<svg width="24" height="24" viewBox="0 0 24 24" fill="none" xmlns="http://www.w3.org/2000/svg">
<path d="M3 4.49805H9.13636L12 7.49805H3V4.49805Z" fill="url(#paint0_linear_4819_23934)"/>
<path d="M8.68945 4.12305C8.83718 4.12267 8.98367 4.15236 9.12012 4.20899C9.25644 4.26558 9.38039 4.34837 9.48438 4.45313L12.1553 7.12305H20.25C20.5484 7.12305 20.8349 7.24215 21.0459 7.45313C21.2566 7.66399 21.3749 7.94995 21.375 8.24805V18.832C21.3747 19.1081 21.2646 19.3731 21.0693 19.5684C20.8742 19.7633 20.6098 19.8727 20.334 19.8731H3.69238C3.40971 19.8726 3.13842 19.7604 2.93848 19.5606C2.73853 19.3606 2.62552 19.0894 2.625 18.8066V5.24805C2.6251 4.94997 2.74342 4.66399 2.9541 4.45313C3.16507 4.24216 3.45165 4.12307 3.75 4.12305H8.68945ZM3.75 4.87305C3.65064 4.87307 3.55565 4.91319 3.48535 4.9834C3.41512 5.05364 3.3751 5.14873 3.375 5.24805V7.12305H11.0947L8.9541 4.9834C8.88395 4.91332 8.78861 4.87322 8.68945 4.87305H3.75Z" fill="#FFB11F"/>
<path d="M13.4702 14.4407L11.8107 14.4407C11.6313 14.4407 11.4893 14.5754 11.4893 14.7456L11.4893 15.5963C11.4893 15.7664 11.6313 15.9011 11.8107 15.9011L13.4702 15.9011L14.9353 16.3761C15.3465 16.5108 15.8024 16.447 16.1538 16.2059C16.5051 15.972 16.7144 15.5821 16.7144 15.1709C16.7144 14.7598 16.5051 14.3769 16.1538 14.1359C15.8024 13.8949 15.3465 13.8311 14.9353 13.9658L13.4702 14.4407ZM15.7725 14.6392C16.1388 14.8803 16.1388 15.4616 15.7725 15.7097C15.5931 15.8302 15.3539 15.8657 15.1446 15.7948L14.6513 15.6388L14.6513 14.7101L15.1446 14.5471C15.3539 14.4833 15.5931 14.5116 15.7725 14.6392ZM2.57901 17.0566L3.49097 17.0566C3.67037 17.0566 3.8124 16.9219 3.8124 16.7518L3.8124 15.5963L5.17286 15.5963L5.17286 16.7518C5.17286 16.9219 5.31489 17.0566 5.49429 17.0566L6.19695 17.0566C6.37635 17.0566 6.52585 16.9219 6.52585 16.7518L6.52585 15.5963L7.87884 15.5963L7.87884 16.7518C7.87884 16.9219 8.02087 17.0566 8.20027 17.0566L8.9104 17.0566C9.08981 17.0566 9.23183 16.9219 9.23183 16.7518L9.23183 15.5963L10.2634 15.5963C10.4428 15.5963 10.5848 15.4545 10.5848 15.2844L10.5848 13.59C10.5848 13.427 10.4428 13.2852 10.2634 13.2852L9.55326 13.2852C9.38133 13.2852 9.23183 13.427 9.23183 13.59L9.23183 14.7527L7.87884 14.7527L7.87884 13.59C7.87884 13.427 7.73682 13.2852 7.55741 13.2852L6.84728 13.2852C6.66788 13.2852 6.52585 13.427 6.52585 13.59L6.52585 14.7527L5.17286 14.7527L5.17286 13.59C5.17286 13.427 5.02336 13.2852 4.84396 13.2852L4.1413 13.2852C3.9619 13.2852 3.8124 13.427 3.8124 13.59L3.8124 14.7527L2.57153 14.7527L2.57901 17.0566Z" fill="#C27400"/>
<defs>
<linearGradient id="paint0_linear_4819_23934" x1="7.49992" y1="5.86682" x2="7.49992" y2="7.272" gradientUnits="userSpaceOnUse">
<stop stop-color="#FF9933"/>
<stop offset="1" stop-color="#FF8B22"/>
</linearGradient>
</defs>
</svg>
