<svg width="24" height="24" viewBox="0 0 24 24" fill="none" xmlns="http://www.w3.org/2000/svg">
<path d="M2 11.9986C2 6.47545 6.4774 1.99805 12.0006 1.99805C17.5237 1.99805 22.0011 6.47545 22.0011 11.9986C22.0011 17.5218 17.5237 21.9992 12.0006 21.9992C6.4774 21.9992 2 17.5218 2 11.9986Z" fill="#00677F"/>
<path d="M5.33352 13.5314V11.1215C5.33352 10.9551 5.46821 10.8204 5.63457 10.8204C5.80092 10.8204 5.93561 10.9551 5.93561 11.1215V13.5314C5.93552 13.6977 5.80087 13.8324 5.63457 13.8324C5.46827 13.8324 5.33361 13.6977 5.33352 13.5314Z" fill="white"/>
<path d="M7.48472 14.435V10.2178C7.48472 10.0515 7.61942 9.91679 7.78577 9.91679C7.95213 9.91679 8.08682 10.0515 8.08682 10.2178V14.435C8.08673 14.6013 7.95207 14.7361 7.78577 14.7361C7.61947 14.7361 7.48482 14.6013 7.48472 14.435Z" fill="white"/>
<path d="M9.63593 15.0374V9.61549C9.63593 9.44914 9.77062 9.31445 9.93698 9.31445C10.1033 9.31445 10.238 9.44914 10.238 9.61549V15.0374C10.238 15.2037 10.1033 15.3384 9.93698 15.3384C9.77062 15.3384 9.63593 15.2037 9.63593 15.0374Z" fill="white"/>
<path d="M11.7871 16.2423V8.41055C11.7871 8.24419 11.9218 8.1095 12.0882 8.1095C12.2545 8.1095 12.3892 8.24419 12.3892 8.41055V16.2423C12.3891 16.4086 12.2545 16.5434 12.0882 16.5434C11.9219 16.5434 11.7872 16.4086 11.7871 16.2423Z" fill="white"/>
<path d="M13.9383 15.0374V9.61549C13.9383 9.44914 14.073 9.31445 14.2394 9.31445C14.4057 9.31445 14.5404 9.44914 14.5404 9.61549V15.0374C14.5404 15.2037 14.4057 15.3384 14.2394 15.3384C14.073 15.3384 13.9383 15.2037 13.9383 15.0374Z" fill="white"/>
<path d="M16.0895 14.435V10.2178C16.0895 10.0515 16.2242 9.91679 16.3906 9.91679C16.5569 9.91679 16.6916 10.0515 16.6916 10.2178V14.435C16.6916 14.6013 16.5569 14.7361 16.3906 14.7361C16.2243 14.7361 16.0896 14.6013 16.0895 14.435Z" fill="white"/>
<path d="M18.2407 13.5314V11.1215C18.2407 10.9551 18.3754 10.8204 18.5418 10.8204C18.7082 10.8204 18.8428 10.9551 18.8428 11.1215V13.5314C18.8428 13.6977 18.7081 13.8324 18.5418 13.8324C18.3755 13.8324 18.2408 13.6977 18.2407 13.5314Z" fill="white"/>
</svg>
