<svg width="120" height="105" viewBox="0 0 120 105" fill="none" xmlns="http://www.w3.org/2000/svg">
<path d="M46.9762 0.0527884C52.2683 -0.175229 55.0963 0.254564 59.8248 2.95509C66.7065 6.88549 71.1814 13.8933 78.3065 17.4026C84.6082 20.5063 92.2752 18.4312 98.7327 21.0129C103.339 22.8426 106.602 25.4725 108.628 30.0681C109.908 32.9361 110.372 36.0989 109.971 39.2117C109.538 42.7519 108.062 46.2013 106.289 49.2538C104.045 53.1178 103.953 55.6229 103.729 59.9713C103.461 65.7149 103.484 71.1686 101.509 76.6488C97.7459 87.0911 83.2156 93.4639 72.8699 89.3859C70.1961 88.5374 67.2197 86.3964 64.9753 84.7158C60.707 81.5197 57.6755 79.2415 52.4328 77.8247C40.3267 74.553 26.2238 82.2093 15.698 73.3425C11.7218 69.9929 9.60494 65.4451 9.10856 60.3901C7.75594 46.6151 19.4116 42.3925 23.5763 32.1139C26.4404 25.0455 23.5749 16.3996 29.865 9.25728C33.9693 4.59702 40.7658 0.568677 46.9762 0.0527884Z" fill="#DEB9F9"/>
<path d="M16.323 66.8501C15.6791 69.7274 15.5472 72.9138 17.0574 75.4501C18.5675 77.9863 22.1759 79.4206 24.6439 77.7888C26.5732 76.5132 27.1615 73.8357 26.5849 71.6038C26.3742 70.7881 26.031 69.9564 26.2049 69.1322C26.4921 67.7707 27.9877 67.0974 29.2451 66.4884C31.2275 65.5282 33.0823 64.195 34.2998 62.3664C35.5172 60.5378 36.0246 58.1642 35.2909 56.0958C33.2971 50.4753 27.0532 52.1186 23.5196 54.8895C19.7932 57.8117 17.3439 62.2885 16.323 66.8501Z" fill="#F5F8FA" stroke="#20434F" stroke-width="1.65215" stroke-linecap="round" stroke-linejoin="round"/>
<path d="M44.5987 16.2725C39.8107 18.0751 35.4756 19.6745 32.1173 25.4274C28.3736 31.8407 27.9987 38.7184 27.8636 46.1332C27.7444 52.6775 28.8665 60.8844 31.1403 67.0265C32.353 70.3022 34.2097 73.3142 36.3524 76.0788C47.9707 91.0698 68.7732 98.3629 87.2733 93.9309C90.446 93.1708 93.5491 92.0983 96.7734 91.5976C100.407 91.0334 104.157 91.2225 107.719 92.1291C109.07 92.4729 110.676 93.5442 111.347 91.8372C111.829 90.6083 110.62 88.8073 110.091 87.7699C107.17 82.0323 102.595 77.1239 97.0165 73.8617C92.4017 71.163 86.8386 69.2787 84.1412 64.6792C82.9031 62.568 82.4331 60.1135 81.8986 57.7278C79.7186 47.9974 77.9842 37.4662 73.0877 28.768C72.0899 26.7645 69.1419 21.5203 62.8112 18.15C54.4776 13.7135 46.3837 15.7724 44.5987 16.2725Z" fill="#F5F8FA" stroke="#20434F" stroke-width="1.43037" stroke-linecap="round" stroke-linejoin="round"/>
<path d="M54.3375 46.5927C55.9928 47.9474 58.6201 47.5586 60.2305 46.1512C61.8408 44.744 62.5843 42.5804 62.8507 40.4647C63.3487 36.5097 59.8067 28.426 54.6723 32.4486C51.3284 35.0685 51.1395 43.9752 54.3375 46.5927ZM44.6057 46.5927C42.9504 47.9474 40.3231 47.5586 38.7128 46.1512C37.1024 44.744 36.3589 42.5804 36.0925 40.4647C35.5945 36.5097 39.1365 28.426 44.2709 32.4486C47.6148 35.0685 47.8037 43.9752 44.6057 46.5927Z" fill="#20434F"/>
<path d="M50.7534 67.5C52.6014 67.0363 53.4609 64.1424 52.6732 61.0364C51.8854 57.9303 49.7488 55.7883 47.9008 56.2521C46.0528 56.7159 45.1933 59.6097 45.981 62.7158C46.7687 65.8218 48.9054 67.9638 50.7534 67.5Z" fill="#20434F"/>
<path d="M65.4614 53.5957C61.9634 56.785 59.855 61.4304 59.1775 66.0548C58.7501 68.9717 58.8565 72.159 60.5518 74.5767C62.2471 76.9945 65.9526 78.1582 68.2919 76.3487C70.1207 74.9341 70.5075 72.2206 69.7659 70.0374C69.4949 69.2396 69.0906 68.4355 69.2024 67.6007C69.3872 66.2217 70.8284 65.4398 72.0369 64.7397C73.9422 63.6358 75.6923 62.1692 76.7699 60.2557" fill="#F5F8FA"/>
<path d="M65.4614 53.5957C61.9634 56.785 59.855 61.4304 59.1775 66.0548C58.7501 68.9717 58.8565 72.159 60.5518 74.5767C62.2471 76.9945 65.9526 78.1582 68.2919 76.3487C70.1207 74.9341 70.5075 72.2206 69.7659 70.0374C69.4949 69.2396 69.0906 68.4355 69.2024 67.6007C69.3872 66.2217 70.8284 65.4398 72.0369 64.7397C73.9422 63.6358 75.6923 62.1692 76.7699 60.2557" stroke="#20434F" stroke-width="1.65215" stroke-linecap="round" stroke-linejoin="round"/>
<path d="M72.5698 29.7137L68.2125 29.2112C68.3576 28.0672 68.5555 27.0874 68.8063 26.2718C69.0571 25.4561 69.4124 24.7327 69.8731 24.102C70.3331 23.4717 70.921 22.8621 71.6359 22.274C72.2334 21.8013 72.7595 21.3457 73.2148 20.908C73.67 20.4704 74.0413 20.0071 74.3293 19.5177C74.6172 19.0289 74.7985 18.4663 74.8727 17.8297C74.9587 17.0917 74.9302 16.4661 74.7879 15.9532C74.6455 15.4402 74.3927 15.0338 74.0297 14.7342C73.6663 14.4344 73.1886 14.2499 72.5961 14.1816C72.1061 14.1251 71.6367 14.1903 71.1882 14.3773C70.7392 14.5643 70.3527 14.8836 70.029 15.3365C69.7048 15.7893 69.4911 16.4097 69.3877 17.1972L64.4326 16.6258C64.67 14.8866 65.1995 13.4866 66.0217 12.4271C66.8432 11.3675 67.8675 10.6283 69.0939 10.2085C70.3204 9.78866 71.6567 9.66214 73.1033 9.82897C74.6978 10.0128 76.0312 10.4605 77.103 11.1708C78.1743 11.8811 78.9471 12.8281 79.4209 14.0111C79.8947 15.1946 80.0392 16.5815 79.8539 18.1718C79.7248 19.2795 79.4165 20.2402 78.9291 21.0546C78.4417 21.8689 77.8418 22.6093 77.1296 23.2752C76.4168 23.941 75.6385 24.6252 74.7951 25.3274C74.07 25.9016 73.5491 26.5317 73.2325 27.2173C72.9157 27.9033 72.6951 28.7351 72.5698 29.7138V29.7137ZM67.0125 35.0511C67.1075 34.2366 67.4369 33.5881 68.0009 33.1046C68.5649 32.6216 69.269 32.4285 70.1121 32.5257C70.9435 32.6216 71.5808 32.9694 72.0251 33.5687C72.4688 34.1684 72.6435 34.875 72.5486 35.6895C72.4566 36.4788 72.1251 37.1176 71.5545 37.6067C70.9834 38.0957 70.2827 38.2919 69.4512 38.196C68.6082 38.0988 67.9675 37.748 67.5304 37.1426C67.0932 36.5373 66.9205 35.8405 67.0125 35.0511Z" fill="#20434F"/>
<path d="M99.1372 5.73733C98.1896 6.51728 96.7837 7.7148 92.5539 11.5047M91.8635 1.49371C91.4366 2.54067 90.8201 4.11758 89.043 8.97054M102.553 14.2141C101.265 14.391 99.3273 14.7008 93.3731 15.8521" stroke="#20434F" stroke-width="1.66667" stroke-linecap="round" stroke-linejoin="round"/>
<path d="M11.1939 20.1065C12.1415 20.8864 13.5474 22.0839 17.7771 25.8738M18.4676 15.8628C18.8945 16.9098 19.511 18.4867 21.2881 23.3397M7.77779 28.5833C9.0658 28.7601 11.0037 29.0699 16.958 30.2213" stroke="#20434F" stroke-width="1.66667" stroke-linecap="round" stroke-linejoin="round"/>
</svg>
