<svg width="117" height="87" viewBox="0 0 117 87" fill="none" xmlns="http://www.w3.org/2000/svg">
<path d="M42.0565 0.05012C47.0811 -0.166371 49.7662 0.241696 54.2556 2.80571C60.7895 6.53743 65.0381 13.191 71.8031 16.5229C77.7863 19.4698 85.0657 17.4995 91.1968 19.9507C95.5702 21.6879 98.6686 24.1849 100.592 28.5482C101.807 31.2712 102.248 34.2741 101.867 37.2296C101.456 40.5908 100.054 43.8659 98.371 46.7641C96.2407 50.4327 96.1528 52.8112 95.9405 56.9398C95.686 62.3931 95.7081 67.571 93.8329 72.7743C90.2598 82.6887 76.464 88.7393 66.6413 84.8675C64.1027 84.0619 61.2768 82.0291 59.1458 80.4334C55.0932 77.3989 52.2149 75.2359 47.2373 73.8907C35.7432 70.7844 22.3532 78.0537 12.3594 69.6351C8.5842 66.4548 6.57436 62.1369 6.10307 57.3374C4.81882 44.2587 15.8853 40.2495 19.8395 30.4906C22.5588 23.7795 19.8381 15.5706 25.8103 8.78933C29.7072 4.36465 36.16 0.53993 42.0565 0.05012Z" fill="#DEB9F9"/>
<path d="M3.9842 17.3593C4.52582 18.0139 5.35742 18.985 7.98924 21.9069M1.03728 22.3838C1.76433 22.6787 2.85939 23.1046 6.22945 24.3321M9.87077 14.9995C9.99359 15.8892 10.2087 17.2279 11.0083 21.341" stroke="#20434F" stroke-width="1.5" stroke-linecap="round" stroke-linejoin="round"/>
<path d="M112.453 13.3593C111.911 14.0139 111.08 14.985 108.448 17.9069M115.4 18.3838C114.673 18.6787 113.578 19.1046 110.208 20.3321M106.566 10.9995C106.443 11.8892 106.228 13.2279 105.429 17.341" stroke="#20434F" stroke-width="1.5" stroke-linecap="round" stroke-linejoin="round"/>
<path d="M96.3344 35.0135L97.8647 43.9489C98.3663 46.8774 95.2917 49.1095 92.6624 47.726L84.6396 43.5044C83.5948 42.9545 82.3463 42.9545 81.3013 43.5044L73.2784 47.726C70.6491 49.1095 67.5749 46.8774 68.0762 43.9489L69.6065 35.0135C69.8056 33.8515 69.4202 32.6658 68.5762 31.8424L62.0858 25.5125C59.9591 23.4384 61.1333 19.8264 64.0728 19.3991L73.0412 18.0956C74.2086 17.926 75.2177 17.1928 75.7397 16.1351L79.7562 7.99793C81.071 5.33402 84.8696 5.33402 86.1846 7.99793L90.2012 16.1351C90.7232 17.1928 91.7325 17.926 92.8997 18.0956L101.868 19.3991C104.808 19.8264 105.982 23.4384 103.855 25.5125L97.3647 31.8424C96.5206 32.6658 96.1352 33.8515 96.3344 35.0135Z" fill="#20434F"/>
<path d="M30.2559 25.1475C31.8565 21.9043 36.4809 21.9042 38.082 25.1475L42.5488 34.1953C43.3926 35.9051 45.0245 37.0901 46.9111 37.3643L56.8809 38.8135C60.4597 39.3337 61.8898 43.7317 59.3008 46.2568L52.084 53.2939C50.7196 54.6245 50.0967 56.5414 50.418 58.4199H50.4189L52.1201 68.3545C52.7308 71.9199 48.9873 74.6375 45.7861 72.9531L36.8672 68.2598C35.1783 67.3709 33.1599 67.3709 31.4707 68.2598L22.5518 72.9531C19.3507 74.6375 15.6084 71.92 16.2188 68.3545L17.9199 58.4209C18.2418 56.5423 17.6181 54.6257 16.2539 53.2949L9.03809 46.2568C6.44895 43.7317 7.87819 39.3337 11.457 38.8135L21.4277 37.3643C23.3146 37.09 24.9453 35.9049 25.7891 34.1953L30.2559 25.1475Z" fill="#F5F8FA" stroke="#20434F" stroke-width="1.43"/>
</svg>
