<svg width="100" height="100" viewBox="0 0 100 100" fill="none" xmlns="http://www.w3.org/2000/svg">
<g clip-path="url(#clip0_3176_20716)">
<path d="M56.563 11.8921C60.5039 12.9704 62.4903 13.9237 65.3818 16.8725C69.5901 21.1643 71.3613 26.9986 75.8399 31.0593C79.8008 34.6506 85.8885 35.0199 90.0773 38.2908C93.0677 40.6158 94.8972 43.1747 95.3906 46.7889C95.7096 49.0479 95.3655 51.3184 94.3957 53.3529C93.3095 55.672 91.4762 57.6859 89.5109 59.3593C87.0232 61.4777 86.4121 63.1686 85.3049 66.0893C83.8626 69.9533 82.6973 73.687 80.0569 76.9729C75.0256 83.234 62.9593 84.2022 56.2359 79.0018C54.4537 77.7982 52.7293 75.6404 51.4432 73.9681C48.9975 70.7878 47.2622 68.5234 43.7143 66.3322C35.5215 61.2725 23.4912 63.2177 17.6736 54.7015C15.4759 51.4843 14.9053 47.8817 15.6362 44.3101C17.6281 34.5776 27.1143 34.4089 32.4052 28.3534C36.0438 24.1891 35.8111 17.6102 41.985 14.1943C46.0134 11.9655 51.8844 10.7965 56.563 11.8921Z" fill="#DEB9F9"/>
<path d="M61.08 20.0335L76.5892 24.0785C81.5049 29.2423 84.2815 34.085 85.4815 40.8622L74.2728 83.8385C73.393 87.2118 69.9452 89.2331 66.572 88.3533L20.3489 76.2979L35.7862 17.1081C36.2813 15.2096 38.2218 14.0719 40.1204 14.567L53.9849 18.183L61.08 20.0335Z" fill="#F5F8FA" stroke="#20434F" stroke-width="0.7956" stroke-linecap="round" stroke-linejoin="round"/>
<path d="M66.6898 88.6918L19.4608 76.4634C17.1536 75.8616 15.3254 74.103 14.6347 71.8208C14.0624 69.9296 15.7822 68.1418 17.6941 68.6405L62.5132 80.3298C63.4075 80.563 63.9434 81.4771 63.7102 82.3714C62.9508 85.283 63.6608 87.5944 66.572 88.3553L66.6898 88.6918ZM85.881 40.7022C85.9375 41.0398 85.521 41.2475 85.2857 40.9988C84.0748 39.7185 82.4099 38.8435 80.6486 38.5968C78.9528 38.3593 77.1909 38.7076 75.7225 39.5377C75.2153 39.8244 74.5884 39.4552 74.5966 38.8727C74.6506 35.044 74.1607 31.1667 75.016 27.4485C75.3056 26.1897 75.7596 24.9453 76.5298 23.907C76.6407 23.7575 76.858 23.7386 76.9949 23.8648C81.828 28.3184 84.8147 34.3355 85.881 40.7022Z" fill="#20434F"/>
<path d="M67.6338 60.9807L65.0298 64.0352L79.4561 76.3338L82.0601 73.2793L67.6338 60.9807Z" fill="#20434F"/>
<path d="M54.3056 69.0385C63.573 69.0385 71.0856 61.5259 71.0856 52.2585C71.0856 42.9912 63.573 35.4785 54.3056 35.4785C45.0383 35.4785 37.5256 42.9912 37.5256 52.2585C37.5256 61.5259 45.0383 69.0385 54.3056 69.0385Z" fill="#20434F"/>
<path d="M54.3056 65.6824C61.7196 65.6824 67.7298 59.6722 67.7298 52.2582C67.7298 44.8442 61.7196 38.834 54.3056 38.834C46.8916 38.834 40.8813 44.8442 40.8813 52.2582C40.8813 59.6722 46.8916 65.6824 54.3056 65.6824Z" fill="#F5F8FA" stroke="#20434F" stroke-width="1.1339" stroke-linecap="round" stroke-linejoin="round"/>
<path d="M75.6159 72.7251L77.9373 70.0021C78.4425 69.4095 79.3338 69.3385 79.9265 69.8437L89.5564 78.0534C90.9005 79.1992 91.0614 81.2207 89.9156 82.5647C88.7698 83.9088 86.7484 84.0697 85.4043 82.9239L75.7743 74.7142C75.1817 74.209 75.1107 73.3177 75.616 72.7251L75.6159 72.7251Z" fill="#F5F8FA" stroke="#20434F" stroke-width="0.7956" stroke-linecap="round" stroke-linejoin="round"/>
<path d="M59.5058 46.8047L48.8353 57.4751" stroke="#20434F" stroke-width="2" stroke-linecap="round" stroke-linejoin="round"/>
<path d="M59.5058 57.4751L48.8353 46.8047" stroke="#20434F" stroke-width="2" stroke-linecap="round" stroke-linejoin="round"/>
<path d="M90.5284 18.3302C89.8169 18.9189 88.7614 19.8227 85.5858 22.683M85.0675 15.1274C84.747 15.9175 84.2841 17.1077 82.95 20.7704M93.093 24.728C92.126 24.8614 90.6711 25.0953 86.2008 25.9642" stroke="#20434F" stroke-width="1.5" stroke-linecap="round" stroke-linejoin="round"/>
<path d="M9.56467 27.3302C10.2761 27.9189 11.3316 28.8227 14.5072 31.683M15.0255 24.1274C15.346 24.9175 15.8089 26.1077 17.1431 29.7704M6.99999 33.728C7.96698 33.8614 9.42192 34.0953 13.8922 34.9642" stroke="#20434F" stroke-width="1.5" stroke-linecap="round" stroke-linejoin="round"/>
<path d="M69.4863 26.594C72.1228 27.7503 73.3372 30.8387 72.1764 33.4859C71.0204 36.1222 67.932 37.3363 65.2847 36.1752C62.6374 35.0141 61.4385 31.9198 62.5945 29.2832C63.7505 26.6466 66.8497 25.4375 69.4863 26.594ZM68.41 29.0482C68.1149 28.9188 67.788 28.8799 67.4708 28.9365C67.1536 28.9932 66.8603 29.1427 66.6283 29.3662C66.3962 29.5898 66.2357 29.8772 66.1672 30.192C66.0988 30.5069 66.1253 30.835 66.2436 31.1348C66.3618 31.4345 66.5665 31.6924 66.8315 31.8758C67.0965 32.0591 67.41 32.1596 67.7322 32.1645C68.0544 32.1694 68.3708 32.0785 68.6412 31.9033C68.9117 31.7282 69.124 31.4766 69.2513 31.1806C69.6084 30.3661 69.2247 29.4056 68.41 29.0482ZM65.7171 35.1892C66.592 35.5745 67.5736 35.6436 68.4939 35.3848C68.1369 34.3338 67.4842 33.5491 66.6053 33.1637C65.7264 32.7782 64.7012 32.8141 63.6923 33.2788C64.1252 34.1312 64.841 34.8065 65.7171 35.1892Z" fill="#20434F"/>
<path d="M29.1166 55.4195C31.2859 54.1846 34.0625 54.9391 35.3025 57.117C36.5374 59.286 35.7827 62.0624 33.6045 63.3023C31.4263 64.5422 28.6536 63.7739 27.4185 61.6048C26.1835 59.4358 26.9473 56.6544 29.1166 55.4195ZM30.2662 57.4387C30.0234 57.5769 29.8271 57.7842 29.7023 58.0341C29.5774 58.284 29.5296 58.5654 29.5648 58.8425C29.6001 59.1196 29.7169 59.38 29.9004 59.5907C30.084 59.8014 30.3259 59.9528 30.5956 60.0257C30.8653 60.0987 31.1506 60.0899 31.4153 60.0005C31.68 59.9111 31.9122 59.7451 32.0825 59.5236C32.2527 59.3021 32.3533 59.035 32.3715 58.7562C32.3897 58.4774 32.3247 58.1995 32.1848 57.9578C31.8032 57.2876 30.9365 57.0572 30.2662 57.4387ZM33.1427 62.4911C33.8636 62.0821 34.42 61.4353 34.7164 60.6613C33.8007 60.3653 32.917 60.413 32.1939 60.8246C31.4707 61.2363 30.9649 61.9679 30.7657 62.9102C31.5826 63.0504 32.4229 62.9023 33.1427 62.4911Z" fill="#20434F"/>
</g>
<defs>
<clipPath id="clip0_3176_20716">
<rect width="100" height="100" fill="white"/>
</clipPath>
</defs>
</svg>
