<svg width="105" height="90" viewBox="0 0 105 90" fill="none" xmlns="http://www.w3.org/2000/svg">
<path d="M39.477 4.43255C44.344 4.27459 46.9392 4.70166 51.2583 7.2533C57.5441 10.967 61.5861 17.5097 68.1 20.8354C73.8611 23.7768 80.9299 21.9302 86.8396 24.3892C91.0551 26.1321 94.0281 28.6035 95.8436 32.8849C96.9904 35.557 97.3852 38.4942 96.9848 41.3763C96.5503 44.6543 95.1583 47.8376 93.4977 50.6499C91.3958 54.2099 91.2852 56.5316 91.0354 60.5611C90.7305 65.8838 90.6963 70.9405 88.825 76.0018C85.2592 85.6456 71.8376 91.4076 62.3691 87.522C59.9199 86.7083 57.2058 84.6931 55.1598 83.1122C51.2687 80.1058 48.5053 77.9629 43.7005 76.5963C32.6056 73.4406 19.5638 80.3968 9.97848 72.0694C6.35754 68.9236 4.45801 64.6856 4.05323 59.9936C2.9502 47.208 13.7074 43.4106 17.6405 33.9227C20.3452 27.3979 17.7993 19.3526 23.6542 12.7939C27.4744 8.51449 33.763 4.84814 39.477 4.43255Z" fill="#DEB9F9"/>
<path d="M71.9417 29.5328L59.9126 29.4718C55.3422 32.2472 52.385 35.2014 50.1926 39.851L49.9107 75.0574C49.8991 76.4864 51.0569 77.6509 52.4967 77.6585L87.8715 77.8379C89.311 77.8453 90.4873 76.6927 90.499 75.2633L90.8436 32.2162C90.8552 30.7872 89.6975 29.6227 88.2576 29.6151L77.4447 29.5604L71.9418 29.5324L71.9417 29.5328Z" fill="#F5F8FA" stroke="#20434F" stroke-width="0.842526" stroke-linecap="round" stroke-linejoin="round"/>
<path d="M49.9355 39.6607C49.8286 39.893 50.09 40.1225 50.309 39.9884C51.4366 39.2989 52.814 38.9878 54.1383 39.1481C55.4136 39.3022 56.6225 39.8907 57.5249 40.7698C57.8365 41.0736 58.3629 40.9281 58.4707 40.507C59.1787 37.7397 60.2907 35.0421 60.3967 32.2009C60.4325 31.2391 60.3463 30.256 59.991 29.3607C59.9397 29.2319 59.7859 29.1766 59.6621 29.241C55.29 31.5211 51.951 35.2811 49.9355 39.6607Z" fill="#20434F"/>
<path d="M86.6248 43.876C84.6132 42.8249 82.4046 41.7406 80.1652 42.1497C77.8326 42.5759 76.0443 44.5339 73.7502 45.1313C69.3874 46.2676 64.9515 42.1992 60.5714 43.2673C59.4774 43.5338 58.4845 44.1083 57.4133 44.4557C56.3421 44.8031 55.3235 44.8163 54.1681 44.2422M86.5649 51.3607C84.5533 50.3096 82.3447 49.2254 80.1053 49.6344C77.7728 50.0607 75.9845 52.0186 73.6903 52.616C69.3276 53.7523 64.8916 49.684 60.5115 50.7521C59.4175 51.0186 58.4246 51.5931 57.3535 51.9404C56.2823 52.2878 55.2637 52.3011 54.1082 51.727M86.5047 58.8454C84.4931 57.7943 82.2845 56.71 80.0451 57.1191C77.7126 57.5453 75.9243 59.5033 73.6301 60.1007C69.2674 61.237 64.8314 57.1686 60.4513 58.2367C59.3573 58.5032 58.3644 59.0777 57.2933 59.4251C56.2221 59.7725 55.2035 59.7857 54.048 59.2116M86.4449 66.3301C84.4333 65.279 82.2247 64.1948 79.9853 64.6038C77.6528 65.0301 75.8644 66.988 73.5703 67.5854C69.2075 68.7217 64.7716 64.6534 60.3915 65.7215C59.2975 65.988 58.3046 66.5625 57.2334 66.9098C56.1623 67.2572 55.1436 67.2705 53.9882 66.6964" stroke="#20434F" stroke-width="0.933874" stroke-miterlimit="10" stroke-linecap="round"/>
<path d="M40.4332 12.593L26.0517 12.5201C20.5876 15.8383 17.052 19.3703 14.4309 24.9291L14.0938 67.0203C14.08 68.7289 15.4642 70.1211 17.1856 70.1301L59.4783 70.3447C61.1993 70.3535 62.6056 68.9755 62.6196 67.2665L63.0316 15.8013C63.0454 14.0928 61.6612 12.7005 59.9398 12.6915L47.0123 12.6261L40.4333 12.5926L40.4332 12.593Z" fill="#F5F8FA" stroke="#20434F" stroke-width="1.00729" stroke-linecap="round" stroke-linejoin="round"/>
<path d="M14.1235 24.6994C13.9957 24.9771 14.3082 25.2515 14.57 25.0912C15.9182 24.2668 17.5649 23.8948 19.1482 24.0865C20.6729 24.2707 22.1182 24.9744 23.197 26.0254C23.5696 26.3886 24.199 26.2146 24.3278 25.7111C25.1743 22.4028 26.5037 19.1776 26.6304 15.7808C26.6733 14.6308 26.5702 13.4555 26.1454 12.3852C26.0841 12.2312 25.9003 12.165 25.7522 12.2421C20.5251 14.9681 16.5331 19.4633 14.1235 24.6994Z" fill="#20434F"/>
<path d="M57.9879 29.7409C55.5829 28.4842 52.9424 27.188 50.265 27.677C47.4764 28.1866 45.3384 30.5274 42.5955 31.2417C37.3796 32.6002 32.0762 27.7362 26.8395 29.0132C25.5316 29.3318 24.3445 30.0187 23.0639 30.434C21.7832 30.8493 20.5654 30.8651 19.184 30.1788M57.9163 38.6893C55.5113 37.4327 52.8708 36.1364 50.1935 36.6255C47.4048 37.1351 45.2668 39.4759 42.524 40.1902C37.308 41.5487 32.0046 36.6847 26.768 37.9617C25.46 38.2803 24.273 38.9671 22.9923 39.3824C21.7117 39.7977 20.4938 39.8136 19.1124 39.1272M57.8444 47.6377C55.4394 46.381 52.7989 45.0848 50.1215 45.5738C47.3329 46.0834 45.1948 48.4242 42.452 49.1385C37.2361 50.497 31.9327 45.633 26.696 46.91C25.388 47.2286 24.201 47.9155 22.9204 48.3308C21.6397 48.7461 20.4219 48.7619 19.0405 48.0756M57.7728 56.5861C55.3678 55.3295 52.7273 54.0332 50.0499 54.5223C47.2613 55.0319 45.1233 57.3727 42.3804 58.087C37.1645 59.4455 31.8611 54.5815 26.6244 55.8585C25.3165 56.1771 24.1294 56.8639 22.8488 57.2792C21.5681 57.6945 20.3503 57.7104 18.9689 57.024" stroke="#20434F" stroke-width="1.1165" stroke-miterlimit="10" stroke-linecap="round"/>
<path d="M89.2784 9.33019C88.5669 9.91885 87.5114 10.8227 84.3358 13.683M83.8175 6.12736C83.497 6.91755 83.0341 8.1077 81.7 11.7704M91.843 15.728C90.876 15.8614 89.4211 16.0953 84.9508 16.9642" stroke="#20434F" stroke-width="1.5" stroke-linecap="round" stroke-linejoin="round"/>
<path d="M2.09216 15.154C2.89986 15.6016 4.10382 16.2955 7.75197 18.5219M6.86954 11C7.3301 11.7176 8.0043 12.8021 9.9904 16.1564M0.75 21.9148C1.72503 21.8678 3.19815 21.8296 7.75197 21.8602" stroke="#20434F" stroke-width="1.5" stroke-linecap="round" stroke-linejoin="round"/>
<path d="M72.1624 18.7638L70.5125 20.4137C70.2846 20.6415 70.2846 21.0108 70.5125 21.2387C70.7403 21.4665 71.1096 21.4665 71.3374 21.2387L72.9873 19.5887C73.2151 19.3609 73.2151 18.9916 72.9873 18.7638C72.7595 18.536 72.3902 18.536 72.1624 18.7638Z" fill="#20434F"/>
<path d="M76.4749 20.2284L75.46 21.2375C75.3507 21.3462 75.2028 21.4072 75.0487 21.4072C74.8946 21.4072 74.7467 21.3462 74.6375 21.2375C74.5288 21.1282 74.4678 20.9804 74.4678 20.8263C74.4678 20.6722 74.5288 20.5243 74.6375 20.415L75.6583 19.4175C76.0836 19.0067 76.3426 18.4535 76.3856 17.8638C76.4287 17.274 76.2528 16.6891 75.8916 16.2209C75.6854 15.9679 75.4283 15.7609 75.1371 15.6135C74.8459 15.466 74.5269 15.3813 74.2009 15.3648C73.8749 15.3483 73.549 15.4004 73.2444 15.5177C72.9398 15.635 72.6632 15.815 72.4324 16.0459L71.3824 17.0842C71.2743 17.1859 71.1314 17.2426 70.9829 17.2426C70.8344 17.2426 70.6915 17.1859 70.5833 17.0842C70.5286 17.03 70.4852 16.9655 70.4556 16.8944C70.426 16.8233 70.4107 16.747 70.4107 16.67C70.4107 16.593 70.426 16.5168 70.4556 16.4457C70.4852 16.3746 70.5286 16.3101 70.5833 16.2559L71.6391 15.2059C71.9914 14.8539 72.4147 14.5811 72.8808 14.4057C73.3469 14.2304 73.8451 14.1566 74.3421 14.1891C74.839 14.2217 75.3232 14.36 75.7625 14.5946C76.2017 14.8293 76.5858 15.1551 76.8891 15.55C77.394 16.2494 77.6301 17.1072 77.554 17.9664C77.4779 18.8256 77.0949 19.6286 76.4749 20.2284ZM72.9866 23.7109L71.9774 24.7259C71.3754 25.3392 70.5731 25.716 69.7167 25.7878C68.8602 25.8595 68.0065 25.6214 67.3108 25.1167C66.9158 24.8134 66.5901 24.4293 66.3554 23.9901C66.1207 23.5508 65.9825 23.0666 65.9499 22.5696C65.9173 22.0727 65.9911 21.5745 66.1665 21.1084C66.3418 20.6423 66.6146 20.219 66.9666 19.8667L68.0399 18.7642C68.1492 18.6556 68.2971 18.5946 68.4512 18.5946C68.6053 18.5946 68.7532 18.6556 68.8625 18.7642C68.9711 18.8735 69.0321 19.0213 69.0321 19.1755C69.0321 19.3296 68.9711 19.4774 68.8625 19.5867L67.8416 20.6134C67.4163 21.0242 67.1573 21.5774 67.1143 22.1671C67.0712 22.7569 67.2471 23.3418 67.6083 23.81C67.8145 24.0631 68.0716 24.27 68.3628 24.4175C68.654 24.5649 68.973 24.6496 69.299 24.6661C69.625 24.6826 69.9509 24.6305 70.2555 24.5132C70.5601 24.3959 70.8367 24.216 71.0675 23.985L72.1641 22.9175C72.2734 22.8089 72.4213 22.7479 72.5754 22.7479C72.7295 22.7479 72.8773 22.8089 72.9866 22.9175C73.0867 23.0254 73.1422 23.1671 73.1422 23.3142C73.1422 23.4613 73.0867 23.603 72.9866 23.7109Z" fill="#20434F"/>
</svg>
