<svg width="104" height="109" viewBox="0 0 104 109" fill="none" xmlns="http://www.w3.org/2000/svg">
<path d="M39.3171 0.0537447C44.6846 -0.178404 47.5528 0.259176 52.3486 3.00863C59.3283 7.01023 63.8669 14.145 71.0935 17.7179C77.4849 20.8778 85.261 18.7651 91.8105 21.3936C96.4823 23.2564 99.7921 25.934 101.847 30.6128C103.144 33.5328 103.616 36.7529 103.209 39.9221C102.769 43.5264 101.272 47.0383 99.4742 50.1461C97.1985 54.0801 97.1046 56.6306 96.8779 61.0578C96.606 66.9055 96.6296 72.4579 94.6265 78.0375C90.8096 88.6689 76.0724 95.1571 65.5794 91.0053C62.8676 90.1414 59.8489 87.9616 57.5725 86.2505C53.2434 82.9966 50.1687 80.6771 44.8514 79.2346C32.573 75.9037 18.2693 83.6987 7.59366 74.6712C3.56083 71.261 1.41385 66.6308 0.910399 61.4841C-0.46148 47.4596 11.3601 43.1605 15.5841 32.6957C18.4889 25.4993 15.5827 16.6967 21.9624 9.42499C26.1251 4.68031 33.0183 0.578979 39.3171 0.0537447Z" fill="#DEB9F9"/>
<g clip-path="url(#clip0_3323_20086)">
<path d="M63.7502 17C63.7502 24.73 70.0202 31 77.7502 31C85.4802 31 91.7502 24.73 91.7502 17C91.7502 22.523 87.2732 27 81.7502 27C76.2272 27 71.7502 22.523 71.7502 17L71.7502 15L75.7502 15L67.7502 7L59.7502 15L63.7502 15L63.7502 17Z" fill="#20434F"/>
</g>
<path d="M42.1155 9.39809L55.7824 13.8756C59.9172 18.751 62.1548 23.2196 62.884 29.322L49.8968 69.3609C49.3697 70.9862 47.6164 71.8695 45.9805 71.3338L5.78914 58.1666C4.15359 57.6309 3.25506 55.8789 3.7821 54.2532L19.6619 5.29735C20.1889 3.67206 21.9422 2.78885 23.5782 3.32454L35.8633 7.34942L42.1155 9.39766L42.1155 9.39809Z" fill="#F5F8FA" stroke="#20434F" stroke-width="1.00729" stroke-linecap="round" stroke-linejoin="round"/>
<path d="M63.2485 29.2008C63.282 29.5047 62.8988 29.6662 62.701 29.4314C61.6827 28.223 60.238 27.3495 58.6753 27.0308C57.1705 26.7235 55.5769 26.9342 54.2212 27.5902C53.7528 27.817 53.2108 27.4529 53.2477 26.9346C53.4906 23.5283 53.249 20.0482 54.2027 16.7856C54.5255 15.6811 54.9949 14.5986 55.7364 13.7175C55.8432 13.5907 56.0385 13.5861 56.1546 13.706C60.2518 17.9447 62.6178 23.4715 63.2485 29.2008Z" fill="#20434F"/>
<path d="M20.0397 20.1171C22.7186 19.6852 25.6335 19.2902 28.0189 20.6006C30.5035 21.9657 31.7918 24.8624 34.1681 26.4072C38.687 29.345 45.2561 26.4072 49.8205 29.2742C50.9607 29.99 51.8697 31.0169 52.9533 31.8158C54.037 32.6147 55.1874 33.0147 56.7149 32.8003M17.2786 28.6292C19.9575 28.1973 22.8724 27.8023 25.2578 29.1128C27.7423 30.4778 29.0306 33.3745 31.407 34.9193C35.9259 37.8571 42.495 34.9193 47.0594 37.7863C48.1995 38.5021 49.1085 39.529 50.1922 40.3279C51.2759 41.1268 52.4262 41.5268 53.9538 41.3124M14.5178 37.1413C17.1967 36.7095 20.1116 36.3145 22.4971 37.6249C24.9816 38.9899 26.2699 41.8867 28.6462 43.4314C33.1651 46.3692 39.7343 43.4314 44.2986 46.2985C45.4388 47.0143 46.3478 48.0411 47.4315 48.84C48.5151 49.6389 49.6655 50.039 51.193 49.8245M11.7567 45.6534C14.4356 45.2216 17.3505 44.8266 19.7359 46.137C22.2204 47.5021 23.5087 50.3988 25.8851 51.9435C30.404 54.8814 36.9731 51.9435 41.5375 54.8106C42.6776 55.5264 43.5866 56.5533 44.6703 57.3521C45.754 58.151 46.9043 58.5511 48.4319 58.3366" stroke="#20434F" stroke-width="1.1165" stroke-miterlimit="10" stroke-linecap="round"/>
<path d="M89.4548 49.4777L100.084 59.162C101.841 65.289 102.033 70.267 100.17 76.1083L71.7092 107.128C70.5537 108.387 68.5861 108.469 67.3136 107.31L36.0536 78.8304C34.7816 77.6713 34.6868 75.7112 35.8422 74.4516L70.6413 36.5236C71.7968 35.2645 73.7644 35.1831 75.0369 36.3423L84.5919 45.0476L89.4548 49.4777Z" fill="#F5F8FA" stroke="#20434F" stroke-width="1.00729" stroke-linecap="round" stroke-linejoin="round"/>
<path d="M100.557 76.147C100.461 76.4365 100.044 76.4259 99.9607 76.1314C99.5314 74.6154 98.5736 73.2287 97.278 72.2963C96.0307 71.3987 94.4876 70.9351 92.9771 70.9737C92.4555 70.9868 92.1114 70.4337 92.3598 69.9781C93.9935 66.9848 95.2152 63.7253 97.439 61.1549C98.1919 60.2849 99.0692 59.4949 100.112 58.9995C100.262 58.9283 100.442 59.0046 100.499 59.1609C102.484 64.6941 102.356 70.685 100.557 76.147Z" fill="#20434F"/>
<path d="M64.7587 49.6621L93.4554 75.8062" stroke="#20434F" stroke-width="0.990325" stroke-miterlimit="10" stroke-linecap="round"/>
<path d="M61.6782 53.0234L90.3749 79.1675" stroke="#20434F" stroke-width="0.990325" stroke-miterlimit="10" stroke-linecap="round"/>
<path d="M58.5923 56.3828L87.2886 82.5269" stroke="#20434F" stroke-width="0.990325" stroke-miterlimit="10" stroke-linecap="round"/>
<path d="M55.512 59.7422L84.2087 85.8863" stroke="#20434F" stroke-width="0.990325" stroke-miterlimit="10" stroke-linecap="round"/>
<path d="M52.426 63.1035L81.1227 89.2476" stroke="#20434F" stroke-width="0.990325" stroke-miterlimit="10" stroke-linecap="round"/>
<path d="M49.3455 66.4629L78.0422 92.607" stroke="#20434F" stroke-width="0.990325" stroke-miterlimit="10" stroke-linecap="round"/>
<path d="M46.2649 69.8242L70.2781 91.7014" stroke="#20434F" stroke-width="0.990325" stroke-miterlimit="10" stroke-linecap="round"/>
<path d="M92.2784 5.33019C91.5669 5.91885 90.5114 6.82267 87.3358 9.68303M86.8175 2.12736C86.497 2.91755 86.0341 4.1077 84.7 7.77042M94.843 11.728C93.876 11.8614 92.4211 12.0953 87.9508 12.9642" stroke="#20434F" stroke-width="1.5" stroke-linecap="round" stroke-linejoin="round"/>
<path d="M2.09216 8.15403C2.89986 8.60156 4.10382 9.29545 7.75197 11.5219M6.86954 4C7.3301 4.71762 8.0043 5.80213 9.9904 9.15638M0.75 14.9148C1.72503 14.8678 3.19815 14.8296 7.75197 14.8602" stroke="#20434F" stroke-width="1.5" stroke-linecap="round" stroke-linejoin="round"/>
<defs>
<clipPath id="clip0_3323_20086">
<rect width="32" height="24" fill="white" transform="translate(91.7502 31) rotate(180)"/>
</clipPath>
</defs>
</svg>
