<svg width="95" height="89" viewBox="0 0 95 89" fill="none" xmlns="http://www.w3.org/2000/svg">
<path d="M42.046 3.04077C46.1285 2.86466 48.3101 3.19661 51.9578 5.28239C57.2665 8.31806 60.7186 13.7306 66.2151 16.441C71.0764 18.8382 76.9909 17.2354 81.9725 19.2295C85.5259 20.6426 88.0433 22.6739 89.6062 26.2233C90.5931 28.4385 90.9515 30.8813 90.6421 33.2855C90.3077 36.0198 89.169 38.6839 87.8015 41.0416C86.0706 44.0259 85.9992 45.9608 85.8268 49.3193C85.62 53.7554 85.6379 57.9676 84.1143 62.2003C81.2112 70.2655 70.0021 75.1875 62.0212 72.0379C59.9585 71.3825 57.6625 69.7289 55.9311 68.4309C52.6383 65.9624 50.2997 64.2028 46.2554 63.1085C36.9164 60.5816 26.037 66.495 17.9171 59.6467C14.8498 57.0596 13.2168 53.547 12.8338 49.6427C11.7904 39.0035 20.7819 35.7421 23.9947 27.8034C26.2041 22.3441 23.9936 15.6664 28.846 10.1499C32.0122 6.55055 37.2551 3.43922 42.046 3.04077Z" fill="#DEB9F9"/>
<path d="M3.31476 15.3302C4.02619 15.9189 5.08171 16.8227 8.25726 19.683M8.77564 12.1274C9.09611 12.9175 9.55898 14.1077 10.8932 17.7704M0.750081 21.728C1.71707 21.8614 3.17201 22.0953 7.64226 22.9642" stroke="#20434F" stroke-width="1.5" stroke-linecap="round" stroke-linejoin="round"/>
<path d="M85.2784 4.33019C84.567 4.91885 83.5115 5.82267 80.3359 8.68303M79.8176 1.12736C79.4971 1.91755 79.0342 3.1077 77.7 6.77042M87.8431 10.728C86.8761 10.8614 85.4212 11.0953 80.9509 11.9642" stroke="#20434F" stroke-width="1.5" stroke-linecap="round" stroke-linejoin="round"/>
<path d="M90.58 37.2463C90.5018 36.5452 90.1595 35.9112 89.6161 35.4613L89.6061 35.453L54.496 10.0204C52.6633 8.64634 50.0668 8.93688 48.5844 10.6811L20.753 43.1306L20.7398 43.1467C20.309 43.7054 20.1148 44.3992 20.1931 45.1003L22.5395 66.1283L92.9263 58.2743L90.5799 37.2463H90.58Z" fill="#20434F"/>
<path d="M90.2007 37.248L94.5694 76.3999C94.8082 78.5405 93.2666 80.4693 91.1261 80.7082L29.2556 87.6119C27.1151 87.8507 25.1862 86.3091 24.9474 84.1686L20.5739 44.9734C20.4194 43.5891 22.0358 42.7272 23.0992 43.6269L44.5173 61.7481L70.8705 58.8075L87.4336 36.5007C88.2674 35.3777 90.0456 35.858 90.2007 37.248L90.2007 37.248Z" fill="#F5F8FA" stroke="#20434F" stroke-width="0.8" stroke-linecap="round" stroke-linejoin="round"/>
<path d="M44.5174 61.748L26.3318 86.736" stroke="#20434F" stroke-width="0.805533" stroke-linecap="round" stroke-linejoin="round"/>
<path d="M93.7923 79.2009L70.8703 58.8086" stroke="#20434F" stroke-width="0.805533" stroke-linecap="round" stroke-linejoin="round"/>
<path d="M51.6819 49.1606C51.5838 48.7489 51.536 48.3328 51.5328 47.916" stroke="white" stroke-width="1.17023" stroke-linecap="round" stroke-linejoin="round"/>
<path d="M51.8734 45.8062C52.6024 43.5352 54.402 41.4171 56.2961 40.0332C58.9972 38.0596 62.6201 38.1184 65.9654 38.1329C68.3782 38.1435 70.7913 38.0884 73.2011 37.9679C76.9992 37.7779 80.8595 37.4085 84.3689 35.9436C85.3776 35.5225 86.3783 34.9906 87.0697 34.1441C87.884 33.147 88.1797 31.8193 88.2422 30.5334C88.3616 28.0776 87.5471 25.449 85.8545 23.75" stroke="white" stroke-width="1.17023" stroke-linecap="round" stroke-linejoin="round"/>
<path d="M85.0375 23.0538C84.7001 22.8125 84.3367 22.6039 83.9476 22.4336" stroke="white" stroke-width="1.17023" stroke-linecap="round" stroke-linejoin="round"/>
<path d="M30.5827 39.6652C34.9085 39.6652 38.4153 36.1584 38.4153 31.8326C38.4153 27.5068 34.9085 24 30.5827 24C26.2569 24 22.7501 27.5068 22.7501 31.8326C22.7501 36.1584 26.2569 39.6652 30.5827 39.6652Z" fill="white"/>
<path d="M30.5831 24C34.9087 24.0002 38.4151 27.5073 38.4151 31.833C38.4149 36.1585 34.9086 39.6648 30.5831 39.665C26.2574 39.665 22.7503 36.1586 22.7501 31.833C22.7501 27.5072 26.2573 24 30.5831 24ZM30.8058 27.3604C29.3659 27.3605 28.3456 28.1765 27.8536 29.4844C27.6017 30.1443 27.4825 30.8884 27.4825 31.7402C27.4826 33.4801 27.9619 34.8602 28.9698 35.6162C29.4618 36.0002 30.0865 36.1924 30.8185 36.1924C32.2583 36.1922 33.2662 35.3878 33.7462 34.0439C33.9861 33.384 34.1065 32.6161 34.1065 31.7402C34.1065 29.1722 32.9418 27.3604 30.8058 27.3604ZM30.8058 28.3076C32.2338 28.3076 33.0743 29.5802 33.0743 31.7402C33.0743 33.9839 32.2582 35.2439 30.8185 35.2441C29.3665 35.2441 28.5138 33.9841 28.5138 31.7402C28.5138 29.5804 29.366 28.3078 30.8058 28.3076Z" fill="#20434F"/>
<path d="M37.9654 28C38.3462 28.8144 38.6006 29.7025 38.7018 30.6427C39.202 35.2939 35.7622 39.4621 31.0187 39.9526C29.8863 40.0697 28.782 39.9666 27.7501 39.6786" stroke="white" stroke-width="0.533333" stroke-miterlimit="10" stroke-linecap="round"/>
</svg>
