<svg width="104" height="82" viewBox="0 0 104 82" fill="none" xmlns="http://www.w3.org/2000/svg">
<path d="M35.1556 1.7089C39.8288 1.50678 42.326 1.88776 46.5015 4.28159C52.5784 7.76562 56.53 13.9775 62.8219 17.0883C68.3866 19.8396 75.1569 18.0001 80.8593 20.2886C84.9268 21.9105 87.8085 24.2417 89.5975 28.3154C90.7273 30.8577 91.1375 33.6613 90.7833 36.4206C90.4006 39.5587 89.0971 42.6164 87.5317 45.3222C85.5504 48.7473 85.4687 50.9679 85.2712 54.8225C85.0345 59.9138 85.055 64.7481 83.311 69.606C79.9878 78.8624 67.1568 84.5114 58.021 80.8965C55.66 80.1444 53.0317 78.2465 51.0497 76.7568C47.2805 73.9237 44.6036 71.9042 39.974 70.6483C29.2837 67.7482 16.8301 74.535 7.5353 66.6752C4.02409 63.706 2.1548 59.6747 1.71647 55.1937C0.522034 42.9832 10.8145 39.2401 14.4922 30.1289C17.0213 23.8632 14.491 16.1992 20.0455 9.86805C23.6698 5.73705 29.6714 2.1662 35.1556 1.7089Z" fill="#DEB9F9"/>
<path d="M70.1219 21.8438H20.7258L25.0689 65.7043C25.2371 67.4019 26.3379 68.8646 27.9238 69.4932C31.9942 71.1066 38.1311 72.8854 45.703 72.8409C53.0085 72.7979 58.9393 71.0736 62.9279 69.4918C64.5122 68.8635 65.6109 67.4006 65.7789 65.7045L70.122 21.8438L70.1219 21.8438Z" fill="#F5F8FA" stroke="#20434F" stroke-width="1.062" stroke-linecap="round" stroke-linejoin="round"/>
<path d="M33.2379 64.7354C32.8106 64.7354 32.4458 64.4099 32.4053 63.976L30.0465 38.7174C30.0035 38.257 30.3419 37.8489 30.8023 37.8059C31.2627 37.7629 31.6708 38.1013 31.7137 38.5617L34.0725 63.8203C34.1155 64.2807 33.7772 64.6888 33.3168 64.7318C33.2903 64.7342 33.264 64.7354 33.2379 64.7354ZM56.4034 64.7354C56.3773 64.7354 56.351 64.7342 56.3245 64.7317C55.8642 64.6887 55.5258 64.2807 55.5688 63.8203L57.9276 38.5617C57.9705 38.1013 58.3787 37.7629 58.839 37.8059C59.2994 37.8489 59.6377 38.257 59.5948 38.7173L57.236 63.976C57.1955 64.4098 56.8306 64.7354 56.4034 64.7354ZM45.4227 64.7354C44.9603 64.7354 44.5855 64.3606 44.5855 63.8982V36.8704C44.5855 36.408 44.9603 36.0332 45.4227 36.0332C45.8851 36.0332 46.2599 36.408 46.2599 36.8704V63.8982C46.2599 64.3606 45.8851 64.7354 45.4227 64.7354Z" fill="#20434F"/>
<path d="M45.4239 32.3768C59.0643 32.3768 70.122 27.66 70.122 21.8417C70.122 16.0233 59.0643 11.3066 45.4239 11.3066C31.7835 11.3066 20.7258 16.0233 20.7258 21.8417C20.7258 27.66 31.7835 32.3768 45.4239 32.3768Z" fill="#F5F8FA" stroke="#20434F" stroke-width="1.062" stroke-linecap="round" stroke-linejoin="round"/>
<path d="M92.4275 72.555C87.6362 75.856 77.4785 69.4262 69.7397 58.1936C62.001 46.961 59.6116 35.1793 64.4029 31.8783L67.1546 29.9824L95.1971 70.6469L92.4275 72.555Z" fill="#20434F" stroke="#20434F" stroke-width="1.062" stroke-linecap="round" stroke-linejoin="round"/>
<path d="M95.1768 70.6609C99.9681 67.3599 97.5788 55.5781 89.84 44.3454C82.1013 33.1128 71.9437 26.683 67.1524 29.984C62.3611 33.285 64.7504 45.0668 72.4892 56.2994C80.2279 67.532 90.3855 73.9618 95.1768 70.6609Z" fill="#F5F8FA" stroke="#20434F" stroke-width="1.062" stroke-linecap="round" stroke-linejoin="round"/>
<path d="M86.4566 59.4775C86.2742 59.2126 86.2536 58.8544 86.4331 58.563L88.581 55.0747C89.0852 54.256 89.0584 53.2153 88.5129 52.4235L81.8586 42.765C81.3403 42.0126 80.4553 41.6176 79.5491 41.734L75.1714 42.2967C74.7127 42.3556 74.2932 42.0316 74.2342 41.573C74.1753 41.1144 74.4993 40.6948 74.9579 40.6359L79.3357 40.0733C80.8667 39.8765 82.3618 40.5439 83.2375 41.815L89.8918 51.4735C90.8134 52.8112 90.8586 54.5694 90.0068 55.9527L87.8589 59.441C87.6164 59.8347 87.1007 59.9573 86.707 59.7149C86.6047 59.6519 86.5207 59.5704 86.4566 59.4775L86.4566 59.4775ZM68.0274 21.7189C68.0274 22.6252 67.7 23.5005 67.0905 24.3264C66.9231 24.5537 66.7343 24.7773 66.525 24.9966C63.2623 28.4162 55.0445 30.8425 45.4224 30.8425C35.1831 30.8425 26.5342 28.0952 23.7542 24.3268C23.6621 24.2017 23.5759 24.0752 23.4968 23.9476C23.0531 23.2343 22.8174 22.4874 22.8174 21.7189C22.8174 16.6805 32.9381 12.5957 45.4224 12.5957C57.9066 12.5957 68.0274 16.6805 68.0274 21.7189H68.0274Z" fill="#20434F"/>
<path d="M67.0907 24.3258C66.9232 24.5531 66.7345 24.7767 66.5251 24.996C63.2625 28.4156 55.0447 30.8419 45.4225 30.8419C35.1833 30.8419 26.5344 28.0946 23.7544 24.3262C26.5344 20.5583 35.1833 17.8105 45.4225 17.8105C55.6618 17.8105 64.3103 20.5579 67.0907 24.3258Z" fill="#20434F"/>
<path d="M2.15084 11.2204C2.99386 11.6875 4.25045 12.4117 8.0581 14.7355M7.13709 6.88477C7.61779 7.63376 8.32147 8.76569 10.3944 12.2666M0.75 18.2767C1.76766 18.2277 3.30518 18.1879 8.0581 18.2198" stroke="#20434F" stroke-width="1.5" stroke-linecap="round" stroke-linejoin="round"/>
<path d="M79.2076 4.51951C78.4651 5.13391 77.3634 6.07724 74.049 9.06266M73.508 1.17665C73.1735 2.00138 72.6904 3.24357 71.2979 7.06643M81.8844 11.197C80.8752 11.3363 79.3566 11.5804 74.6909 12.4873" stroke="#20434F" stroke-width="1.5" stroke-linecap="round" stroke-linejoin="round"/>
</svg>
