<svg width="101" height="79" viewBox="0 0 101 79" fill="none" xmlns="http://www.w3.org/2000/svg">
<path d="M39.6908 0.0460136C44.2915 -0.15274 46.7501 0.221894 50.8608 2.57584C56.8435 6.00181 60.7337 12.1102 66.928 15.1692C72.4064 17.8746 79.0717 16.0657 84.6856 18.3161C88.6901 19.911 91.5271 22.2034 93.2883 26.2092C94.4006 28.7091 94.8044 31.466 94.4557 34.1793C94.079 37.2652 92.7957 40.2719 91.2546 42.9326C89.304 46.3007 89.2235 48.4843 89.0292 52.2747C88.7961 57.2811 88.8163 62.0349 87.0994 66.8118C83.8277 75.9139 71.1957 81.4688 62.2016 77.9142C59.8772 77.1746 57.2897 75.3083 55.3385 73.8434C51.6277 71.0576 48.9923 69.0717 44.4346 67.8368C33.9101 64.985 21.6497 71.6586 12.499 63.9298C9.04225 61.0101 7.20197 57.046 6.77043 52.6397C5.59452 40.6326 15.7274 36.9518 19.348 27.9925C21.8379 21.8312 19.3468 14.2949 24.8152 8.06921C28.3833 4.00705 34.2918 0.495693 39.6908 0.0460136Z" fill="#DEB9F9"/>
<g clip-path="url(#clip0_3955_21634)">
<path d="M54.1454 29.4782L52.6157 31.008C51.9512 31.6725 51.9455 32.7481 52.603 33.4194L53.4719 34.3067C54.125 34.9736 54.1244 36.0404 53.4707 36.7067L52.6997 37.4923C52.0411 38.1635 52.0462 39.2399 52.7112 39.905L54.1454 41.3393C54.4669 41.6608 54.6475 42.0968 54.6475 42.5514V48.7753H45.4938V18.9141H54.6475V28.2661C54.6475 28.7207 54.4669 29.1567 54.1454 29.4782Z" fill="#F5F8FA"/>
<path d="M50.0707 44.4902C43.7239 44.4902 38.5765 49.6378 38.5765 55.9919C38.5765 62.3387 43.7238 67.4862 50.0707 67.4862C56.4176 67.4862 61.565 62.3387 61.565 55.9919C61.565 49.6378 56.4174 44.4902 50.0707 44.4902ZM50.0707 63.702C48.7076 63.702 47.6051 62.5995 47.6051 61.2362C47.6051 59.8729 48.7076 58.7704 50.0707 58.7704C51.434 58.7704 52.5365 59.8729 52.5365 61.2362C52.5365 62.5995 51.4339 63.702 50.0707 63.702Z" fill="#F5F8FA"/>
<path d="M77.4977 15.1983V26.7215C77.4977 28.1416 76.3465 29.2929 74.9264 29.2929H25.2149C23.7948 29.2929 22.6435 28.1417 22.6435 26.7215V15.1983C22.6435 13.7783 23.7947 12.627 25.2149 12.627H74.9264C76.3464 12.627 77.4977 13.7781 77.4977 15.1983Z" fill="#F5F8FA"/>
<path d="M34.4096 18.6355C34.2564 18.37 33.9164 18.2793 33.6516 18.4325L30.9375 19.9994V16.8655C30.9375 16.5592 30.6889 16.3105 30.3825 16.3105C30.0761 16.3105 29.8275 16.5592 29.8275 16.8655V19.9994L27.1136 18.4325C26.8484 18.2792 26.5088 18.37 26.3555 18.6355C26.2023 18.9011 26.293 19.2403 26.5586 19.3936L29.2728 20.9606L26.5586 22.5277C26.293 22.6809 26.2024 23.0202 26.3555 23.2857C26.4581 23.4638 26.6449 23.5632 26.8364 23.5632C26.9306 23.5632 27.026 23.5393 27.1135 23.4887L29.8276 21.9218V25.0556C29.8276 25.362 30.0763 25.6106 30.3826 25.6106C30.689 25.6106 30.9376 25.362 30.9376 25.0556V21.9218L33.6517 23.4888C33.7391 23.5394 33.8345 23.5633 33.9288 23.5633C34.1202 23.5633 34.307 23.464 34.4096 23.2859C34.5628 23.0203 34.4721 22.681 34.2065 22.5278L31.4923 20.9606L34.2065 19.3936C34.4721 19.2403 34.5627 18.9011 34.4096 18.6355ZM47.256 18.6355C47.1028 18.37 46.7629 18.2793 46.498 18.4325L43.7839 19.9995V16.8655C43.7839 16.5592 43.5353 16.3105 43.2289 16.3105C42.9226 16.3105 42.674 16.5592 42.674 16.8655V19.9994L39.9599 18.4324C39.6947 18.2791 39.3551 18.3699 39.2018 18.6354C39.0486 18.901 39.1394 19.2402 39.4049 19.3935L42.1191 20.9605L39.4049 22.5276C39.1394 22.6808 39.0487 23.0201 39.2018 23.2856C39.3045 23.4637 39.4913 23.5631 39.6827 23.5631C39.7769 23.5631 39.8723 23.5392 39.9598 23.4886L42.6738 21.9215V25.0554C42.6738 25.3618 42.9225 25.6104 43.2288 25.6104C43.5352 25.6104 43.7838 25.3618 43.7838 25.0554V21.9218L46.4979 23.4888C46.5853 23.5394 46.6807 23.5633 46.775 23.5633C46.9664 23.5633 47.1532 23.464 47.2558 23.2859C47.409 23.0203 47.3183 22.681 47.0527 22.5278L44.3388 20.9606L47.053 19.3936C47.3185 19.2403 47.4091 18.9011 47.256 18.6355ZM60.1021 18.6355C59.9489 18.37 59.609 18.2793 59.3441 18.4325L56.63 19.9995V16.8655C56.63 16.5592 56.3814 16.3105 56.075 16.3105C55.7687 16.3105 55.5201 16.5592 55.5201 16.8655V19.9993L52.8064 18.4325C52.5412 18.2792 52.2016 18.37 52.0484 18.6355C51.8952 18.9011 51.9859 19.2403 52.2515 19.3936L54.9655 20.9606L52.2515 22.5277C51.9859 22.6809 51.8953 23.0202 52.0484 23.2857C52.151 23.4638 52.3378 23.5632 52.5292 23.5632C52.6235 23.5632 52.7189 23.5393 52.8063 23.4887L55.5199 21.9219V25.0556C55.5199 25.362 55.7686 25.6106 56.0749 25.6106C56.3813 25.6106 56.6299 25.362 56.6299 25.0556V21.9216L59.344 23.4887C59.4314 23.5393 59.5268 23.5632 59.621 23.5632C59.8125 23.5632 59.9993 23.4638 60.1019 23.2857C60.2551 23.0202 60.1644 22.6809 59.8988 22.5277L57.1847 20.9606L59.8988 19.3936C60.1646 19.2403 60.2552 18.9011 60.1021 18.6355ZM72.9485 18.6355C72.7953 18.37 72.4554 18.2793 72.1905 18.4325L69.4764 19.9995V16.8655C69.4764 16.5592 69.2278 16.3105 68.9215 16.3105C68.6151 16.3105 68.3665 16.5592 68.3665 16.8655V19.9994L65.6524 18.4324C65.3872 18.2791 65.0476 18.3699 64.8945 18.6354C64.7412 18.901 64.832 19.2402 65.0976 19.3935L67.8117 20.9605L65.0976 22.5276C64.832 22.6808 64.7414 23.0201 64.8945 23.2856C64.9971 23.4637 65.1839 23.5631 65.3753 23.5631C65.4696 23.5631 65.5649 23.5392 65.6524 23.4886L68.3665 21.9215V25.0554C68.3665 25.3618 68.6151 25.6104 68.9215 25.6104C69.2278 25.6104 69.4764 25.3618 69.4764 25.0554V21.9218L72.1905 23.4888C72.278 23.5394 72.3733 23.5633 72.4676 23.5633C72.659 23.5633 72.8458 23.464 72.9484 23.2859C73.1017 23.0203 73.0109 22.681 72.7454 22.5278L70.0312 20.9608L72.7454 19.3937C73.011 19.2403 73.1017 18.9011 72.9485 18.6355ZM47.05 61.2357C47.05 62.9013 48.4048 64.2565 50.0704 64.2565C51.736 64.2565 53.0912 62.9013 53.0912 61.2357C53.0912 59.5701 51.736 58.2149 50.0704 58.2149C48.4048 58.2149 47.05 59.5702 47.05 61.2357ZM51.9813 61.2357C51.9813 62.2893 51.1239 63.1465 50.0704 63.1465C49.017 63.1465 48.16 62.2891 48.16 61.2357C48.16 60.1823 49.017 59.3249 50.0704 59.3249C51.1239 59.3249 51.9813 60.1823 51.9813 61.2357Z" fill="#20434F"/>
<path d="M74.9263 12.0742H25.2146C23.4909 12.0742 22.0884 13.4767 22.0884 15.2004V26.7238C22.0884 28.4475 23.4909 29.85 25.2146 29.85H44.9389V45.0874C40.8547 47.0193 38.0213 51.1806 38.0213 55.993C38.0213 62.6368 43.4266 68.0421 50.0703 68.0421C56.7145 68.0421 62.1197 62.6368 62.1197 55.993C62.1197 51.1808 59.2865 47.0197 55.2024 45.0876V42.553C55.2024 41.9471 54.9664 41.3769 54.5376 40.9485L53.1033 39.5143C52.6557 39.0666 52.6524 38.3346 53.0957 37.8827L53.8668 37.0973C54.7255 36.2218 54.7263 34.7966 53.8682 33.9201L52.9993 33.0328C52.5568 32.5812 52.5608 31.8496 53.008 31.4023L54.5377 29.8722C54.5447 29.8652 54.5506 29.8573 54.5575 29.8502H74.926C76.6497 29.8502 78.0522 28.4477 78.0522 26.724V15.2005C78.0525 13.4769 76.6499 12.0742 74.9263 12.0742ZM61.01 55.9932C61.01 62.0249 56.1026 66.9324 50.0704 66.9324C44.0387 66.9324 39.1312 62.025 39.1312 55.9932C39.1312 49.9571 44.0386 45.0464 50.0704 45.0464C56.1026 45.0465 61.01 49.9572 61.01 55.9932ZM52.2233 30.6175C51.3475 31.493 51.3403 32.9251 52.2067 33.8095L53.0753 34.6965C53.5139 35.1444 53.5135 35.8725 53.0749 36.3198L52.3039 37.1052C51.4357 37.99 51.4422 39.4228 52.3187 40.299L53.753 41.7332C53.9719 41.9521 54.0926 42.2434 54.0926 42.553V44.6296C52.8338 44.1822 51.4804 43.9363 50.0703 43.9363C48.6605 43.9363 47.3073 44.1821 46.0488 44.6294V29.8502H48.2255V41.366C48.2255 41.6723 48.4741 41.921 48.7805 41.921C49.0868 41.921 49.3355 41.6723 49.3355 41.366V29.8502H52.9904L52.2233 30.6175ZM76.9425 26.7239C76.9425 27.8355 76.0378 28.7403 74.9262 28.7403H25.2146C24.103 28.7403 23.1983 27.8355 23.1983 26.7239V15.2005C23.1983 14.0889 24.103 13.1842 25.2146 13.1842H74.9262C76.0378 13.1842 76.9425 14.0889 76.9425 15.2005V26.7239Z" fill="#20434F"/>
</g>
<path d="M4.43312 15.9772C5.03578 16.7056 5.96108 17.7862 8.88944 21.0372M1.15416 21.5679C1.96313 21.896 3.18157 22.3699 6.93136 23.7358M10.983 13.3516C11.1196 14.3416 11.359 15.8311 12.2486 20.4076" stroke="#20434F" stroke-width="1.66901" stroke-linecap="round" stroke-linejoin="round"/>
<path d="M96.194 7.0749C95.5914 7.80324 94.6661 8.88386 91.7377 12.1349M99.473 12.6656C98.664 12.9937 97.4456 13.4676 93.6958 14.8334M89.6442 4.44926C89.5075 5.43924 89.2681 6.92876 88.3785 11.5053" stroke="#20434F" stroke-width="1.66901" stroke-linecap="round" stroke-linejoin="round"/>
<defs>
<clipPath id="clip0_3955_21634">
<rect width="57.8592" height="57.8592" fill="white" transform="translate(21.1408 11.127)"/>
</clipPath>
</defs>
</svg>
