<svg width="100" height="100" viewBox="0 0 100 100" fill="none" xmlns="http://www.w3.org/2000/svg">
<path d="M50.8702 9.89269C54.8119 10.9685 56.7968 11.9264 59.6792 14.9041C63.8741 19.2379 65.6216 25.1471 70.0882 29.2453C74.0387 32.8699 80.1334 33.217 84.3134 36.5155C87.2976 38.86 89.1182 41.4471 89.596 45.1104C89.9053 47.4 89.5504 49.7044 88.5701 51.7722C87.4719 54.1292 85.6269 56.1799 83.6512 57.886C81.1505 60.0456 80.5308 61.7634 79.4089 64.7305C77.9471 68.6559 76.7633 72.4479 74.1044 75.7925C69.0377 82.1652 56.9498 83.2015 50.2402 77.9575C48.4609 76.7448 46.7437 74.5642 45.4634 72.8739C43.0284 69.6594 41.3009 67.3706 37.7578 65.1643C29.5761 60.0696 17.5199 62.0967 11.7323 53.4857C9.54595 50.2327 8.99076 46.5814 9.73884 42.9558C11.7774 33.076 21.278 32.8622 26.6037 26.6968C30.2662 22.4569 30.0629 15.7855 36.261 12.2933C40.3052 10.0147 46.1899 8.80261 50.8702 9.89269Z" fill="#DEB9F9"/>
<path fill-rule="evenodd" clip-rule="evenodd" d="M18.2506 80.4762L13.8486 30.5458C13.6439 27.9406 15.5481 25.6449 18.1464 25.3647L72.2744 19.5273C74.2246 19.317 75.9971 20.6731 76.3042 22.6105L78.8285 38.5371" fill="#20434F"/>
<path fill-rule="evenodd" clip-rule="evenodd" d="M84.0796 37.8082C85.3084 37.6381 86.3483 38.7111 86.1399 39.9339L81.577 66.7042C81.2627 68.5478 79.8186 69.992 77.975 70.3065L18.2677 80.4936C18.2565 80.4955 18.2472 80.485 18.2504 80.4741L29.9728 40.204C30.5307 38.2876 32.1888 36.8966 34.173 36.6805L45.9261 35.4005C45.9267 35.4004 45.9273 35.4004 45.928 35.4004C49.1981 35.4011 51.553 39.0938 52.8135 42.136L84.0797 37.8082H84.0796Z" fill="#F5F8FA" stroke="#20434F" stroke-width="0.854067" stroke-linecap="round" stroke-linejoin="round"/>
<path d="M40.2061 32.6483C40.1319 32.3369 40.0958 32.0223 40.0934 31.707" stroke="#20434F" stroke-width="0.885" stroke-linecap="round" stroke-linejoin="round"/>
<path d="M68.5825 51.0613L66.0239 54.0625L80.1983 66.1463L82.7568 63.1452L68.5825 51.0613Z" fill="#20434F"/>
<path d="M55.487 58.9739C64.5925 58.9739 71.9739 51.5925 71.9739 42.487C71.9739 33.3815 64.5925 26 55.487 26C46.3815 26 39 33.3815 39 42.487C39 51.5925 46.3815 58.9739 55.487 58.9739Z" fill="#20434F"/>
<path d="M55.4872 55.6765C62.7717 55.6765 68.677 49.7712 68.677 42.4867C68.677 35.2022 62.7717 29.2969 55.4872 29.2969C48.2026 29.2969 42.2974 35.2022 42.2974 42.4867C42.2974 49.7712 48.2026 55.6765 55.4872 55.6765Z" fill="#F5F8FA" stroke="#20434F" stroke-width="1.093" stroke-linecap="round" stroke-linejoin="round"/>
<path d="M60.8764 37L50 47.8764" stroke="#20434F" stroke-width="2" stroke-linecap="round" stroke-linejoin="round"/>
<path d="M60.8764 47.8764L50 37" stroke="#20434F" stroke-width="2" stroke-linecap="round" stroke-linejoin="round"/>
<path d="M76.4253 62.5973L78.7061 59.9219C79.2025 59.3396 80.0783 59.2699 80.6605 59.7663L90.1223 67.8326C91.4429 68.9584 91.601 70.9446 90.4752 72.2651C89.3494 73.5857 87.3633 73.7439 86.0427 72.618L76.5809 64.5517C75.9986 64.0554 75.9289 63.1796 76.4253 62.5973Z" fill="#20434F"/>
<path d="M91.2235 21.1909C90.3707 21.8966 89.1054 22.9801 85.2986 26.409M84.6772 17.3515C84.293 18.2987 83.7381 19.7254 82.1388 24.1162M94.298 28.8604C93.1388 29.0204 91.3947 29.3007 86.0358 30.3424" stroke="#20434F" stroke-width="1.5" stroke-linecap="round" stroke-linejoin="round"/>
<path d="M9.9842 17.3593C10.5258 18.0139 11.3574 18.985 13.9892 21.9069M7.03728 22.3838C7.76433 22.6787 8.85939 23.1046 12.2294 24.3321M15.8708 14.9995C15.9936 15.8892 16.2087 17.2279 17.0083 21.341" stroke="#20434F" stroke-width="1.5" stroke-linecap="round" stroke-linejoin="round"/>
</svg>
