<svg width="99" height="99" viewBox="0 0 99 99" fill="none" xmlns="http://www.w3.org/2000/svg">
<path d="M36.9936 0.0576626C42.1487 -0.191409 44.9036 0.278069 49.5097 3.22795C56.2134 7.52126 60.5724 15.1761 67.5133 19.0095C73.6519 22.3998 81.1205 20.133 87.4109 22.9531C91.898 24.9517 95.0769 27.8245 97.0504 32.8444C98.2967 35.9773 98.7492 39.4321 98.3585 42.8323C97.9363 46.6994 96.4984 50.4673 94.7716 53.8016C92.5859 58.0224 92.4957 60.7588 92.278 65.5087C92.0168 71.7827 92.0395 77.7399 90.1156 83.7262C86.4496 95.1326 72.2953 102.094 62.2173 97.6393C59.6127 96.7124 56.7133 94.3737 54.527 92.5379C50.3691 89.0468 47.416 86.5582 42.309 85.0106C30.5162 81.4369 16.7782 89.8 6.52471 80.1146C2.65136 76.4557 0.58929 71.488 0.105751 65.9661C-1.21187 50.9193 10.1422 46.3067 14.1991 35.0792C16.9891 27.3581 14.1978 17.9139 20.3252 10.112C24.3233 5.02149 30.9439 0.621185 36.9936 0.0576626Z" fill="#DEB9F9"/>
<path d="M79.3527 19.9297V80.506C79.3527 85.9252 67.6303 90.3292 53.1575 90.3292C38.6846 90.3292 26.9623 85.9252 26.9623 80.506V19.9297H79.3527Z" fill="#F5F8FA" stroke="#20434F" stroke-width="1.04051" stroke-linecap="round" stroke-linejoin="round"/>
<path d="M53.1575 29.7538C67.6247 29.7538 79.3527 25.3558 79.3527 19.9306C79.3527 14.5054 67.6247 10.1074 53.1575 10.1074C38.6903 10.1074 26.9623 14.5054 26.9623 19.9306C26.9623 25.3558 38.6903 29.7538 53.1575 29.7538Z" fill="#20434F" stroke="#20434F" stroke-width="1.12191" stroke-linecap="round" stroke-linejoin="round"/>
<path d="M79.3527 60.8594C79.3527 66.2846 67.6247 70.6826 53.1575 70.6826C38.6903 70.6826 26.9623 66.2846 26.9623 60.8594" fill="#F5F8FA"/>
<path d="M79.3527 60.8594C79.3527 66.2846 67.6247 70.6826 53.1575 70.6826C38.6903 70.6826 26.9623 66.2846 26.9623 60.8594" stroke="#20434F" stroke-width="1.04051" stroke-linecap="round" stroke-linejoin="round"/>
<path d="M79.3527 39.5742C79.3527 44.9994 67.6247 49.3974 53.1575 49.3974C38.6903 49.3974 26.9623 44.9994 26.9623 39.5742" stroke="#20434F" stroke-width="1.04051" stroke-linecap="round" stroke-linejoin="round"/>
<path d="M72.8042 36.252C68.0043 38.2914 60.9814 39.5777 53.1575 39.5777M72.8042 55.924C68.0043 57.9634 60.9814 59.2498 53.1575 59.2498M72.8042 77.2076C68.0043 79.247 60.9814 80.5334 53.1575 80.5334" stroke="#20434F" stroke-width="3.27438" stroke-miterlimit="10" stroke-linecap="round"/>
<path d="M35.1484 34.6641H33.5112C32.607 34.6641 31.874 35.3971 31.874 36.3013V37.9384C31.874 38.8426 32.607 39.5756 33.5112 39.5756H35.1484C36.0526 39.5756 36.7856 38.8426 36.7856 37.9384V36.3013C36.7856 35.3971 36.0526 34.6641 35.1484 34.6641Z" fill="#20434F"/>
<path d="M35.1484 54.3125H33.5112C32.607 54.3125 31.874 55.0455 31.874 55.9497V57.5869C31.874 58.4911 32.607 59.2241 33.5112 59.2241H35.1484C36.0526 59.2241 36.7856 58.4911 36.7856 57.5869V55.9497C36.7856 55.0455 36.0526 54.3125 35.1484 54.3125Z" fill="#20434F"/>
<path d="M35.1484 75.5957H33.5112C32.607 75.5957 31.874 76.3287 31.874 77.2329V78.8701C31.874 79.7743 32.607 80.5073 33.5112 80.5073H35.1484C36.0526 80.5073 36.7856 79.7743 36.7856 78.8701V77.2329C36.7856 76.3287 36.0526 75.5957 35.1484 75.5957Z" fill="#20434F"/>
<path d="M43.3342 36.3008H41.697C40.7928 36.3008 40.0598 37.0338 40.0598 37.938V39.5752C40.0598 40.4794 40.7928 41.2124 41.697 41.2124H43.3342C44.2384 41.2124 44.9714 40.4794 44.9714 39.5752V37.938C44.9714 37.0338 44.2384 36.3008 43.3342 36.3008Z" fill="#20434F"/>
<path d="M43.3342 55.9473H41.697C40.7928 55.9473 40.0598 56.6803 40.0598 57.5845V59.2216C40.0598 60.1259 40.7928 60.8589 41.697 60.8589H43.3342C44.2384 60.8589 44.9714 60.1259 44.9714 59.2216V57.5845C44.9714 56.6803 44.2384 55.9473 43.3342 55.9473Z" fill="#20434F"/>
<path d="M43.3342 77.2324H41.697C40.7928 77.2324 40.0598 77.9654 40.0598 78.8696V80.5068C40.0598 81.411 40.7928 82.144 41.697 82.144H43.3342C44.2384 82.144 44.9714 81.411 44.9714 80.5068V78.8696C44.9714 77.9654 44.2384 77.2324 43.3342 77.2324Z" fill="#20434F"/>
<path d="M91.5284 8.33019C90.8169 8.91885 89.7614 9.82267 86.5858 12.683M86.0675 5.12736C85.747 5.91755 85.2841 7.1077 83.95 10.7704M94.093 14.728C93.126 14.8614 91.6711 15.0953 87.2008 15.9642" stroke="#20434F" stroke-width="1.5" stroke-linecap="round" stroke-linejoin="round"/>
<path d="M5.56467 10.3302C6.27609 10.9189 7.33162 11.8227 10.5072 14.683M11.0255 7.12736C11.346 7.91755 11.8089 9.1077 13.1431 12.7704M2.99999 16.728C3.96698 16.8614 5.42192 17.0953 9.89217 17.9642" stroke="#20434F" stroke-width="1.5" stroke-linecap="round" stroke-linejoin="round"/>
</svg>
