<svg width="104" height="109" viewBox="0 0 104 109" fill="none" xmlns="http://www.w3.org/2000/svg">
<path d="M39.317 0.0537447C44.6844 -0.178404 47.5527 0.259176 52.3485 3.00863C59.3282 7.01023 63.8667 14.145 71.0933 17.7179C77.4847 20.8778 85.2608 18.7651 91.8103 21.3936C96.4821 23.2564 99.792 25.934 101.847 30.6128C103.144 33.5328 103.615 36.7529 103.209 39.9221C102.769 43.5264 101.272 47.0383 99.4741 50.1461C97.1984 54.0801 97.1045 56.6306 96.8778 61.0578C96.6059 66.9055 96.6294 72.4579 94.6264 78.0375C90.8094 88.6689 76.0723 95.1571 65.5793 91.0053C62.8675 90.1414 59.8487 87.9616 57.5724 86.2505C53.2432 82.9966 50.1686 80.6771 44.8513 79.2346C32.5729 75.9037 18.2692 83.6987 7.59354 74.6712C3.56071 71.261 1.41373 66.6308 0.910277 61.4841C-0.461602 47.4596 11.3599 43.1605 15.584 32.6957C18.4888 25.4993 15.5826 16.6967 21.9622 9.42499C26.125 4.68031 33.0182 0.578979 39.317 0.0537447Z" fill="#DEB9F9"/>
<path d="M42.1154 9.39809L55.7823 13.8756C59.9171 18.751 62.1547 23.2196 62.8839 29.322L49.8967 69.3609C49.3696 70.9862 47.6163 71.8695 45.9803 71.3338L5.78902 58.1666C4.15347 57.6309 3.25494 55.8789 3.78198 54.2532L19.6617 5.29735C20.1888 3.67206 21.9421 2.78885 23.5781 3.32454L35.8632 7.34942L42.1154 9.39766L42.1154 9.39809Z" fill="#F5F8FA" stroke="#20434F" stroke-width="1.00729" stroke-linecap="round" stroke-linejoin="round"/>
<path d="M63.2485 29.2008C63.282 29.5047 62.8988 29.6662 62.701 29.4314C61.6827 28.223 60.238 27.3495 58.6753 27.0308C57.1705 26.7235 55.5769 26.9342 54.2212 27.5902C53.7528 27.817 53.2108 27.4529 53.2477 26.9346C53.4906 23.5283 53.249 20.0482 54.2027 16.7856C54.5255 15.6811 54.9949 14.5986 55.7364 13.7175C55.8432 13.5907 56.0385 13.5861 56.1546 13.706C60.2518 17.9447 62.6178 23.4715 63.2485 29.2008Z" fill="#20434F"/>
<path d="M20.0396 20.1171C22.7185 19.6852 25.6334 19.2902 28.0188 20.6006C30.5033 21.9657 31.7916 24.8624 34.168 26.4072C38.6869 29.345 45.256 26.4072 49.8204 29.2742C50.9605 29.99 51.8696 31.0169 52.9532 31.8158C54.0369 32.6147 55.1873 33.0147 56.7148 32.8003M17.2784 28.6292C19.9573 28.1973 22.8723 27.8023 25.2577 29.1128C27.7422 30.4778 29.0305 33.3745 31.4068 34.9193C35.9257 37.8571 42.4949 34.9193 47.0593 37.7863C48.1994 38.5021 49.1084 39.529 50.1921 40.3279C51.2757 41.1268 52.4261 41.5268 53.9536 41.3124M14.5177 37.1413C17.1966 36.7095 20.1115 36.3145 22.4969 37.6249C24.9815 38.9899 26.2698 41.8867 28.6461 43.4314C33.165 46.3692 39.7341 43.4314 44.2985 46.2985C45.4387 47.0143 46.3477 48.0411 47.4313 48.84C48.515 49.6389 49.6654 50.039 51.1929 49.8245M11.7566 45.6534C14.4355 45.2216 17.3504 44.8266 19.7358 46.137C22.2203 47.5021 23.5086 50.3988 25.885 51.9435C30.4039 54.8814 36.973 51.9435 41.5374 54.8106C42.6775 55.5264 43.5865 56.5533 44.6702 57.3521C45.7538 58.151 46.9042 58.5511 48.4318 58.3366" stroke="#20434F" stroke-width="1.1165" stroke-miterlimit="10" stroke-linecap="round"/>
<path d="M89.4548 49.4777L100.084 59.162C101.841 65.289 102.033 70.267 100.17 76.1083L71.7092 107.128C70.5537 108.387 68.5861 108.469 67.3136 107.31L36.0536 78.8304C34.7816 77.6713 34.6868 75.7112 35.8422 74.4516L70.6413 36.5236C71.7968 35.2645 73.7644 35.1831 75.0369 36.3423L84.5919 45.0476L89.4548 49.4777Z" fill="#F5F8FA" stroke="#20434F" stroke-width="1.00729" stroke-linecap="round" stroke-linejoin="round"/>
<path d="M100.557 76.147C100.461 76.4365 100.044 76.4259 99.9607 76.1314C99.5314 74.6154 98.5736 73.2287 97.278 72.2963C96.0307 71.3987 94.4876 70.9351 92.9771 70.9737C92.4555 70.9868 92.1114 70.4337 92.3598 69.9781C93.9935 66.9848 95.2152 63.7253 97.439 61.1549C98.1919 60.2849 99.0692 59.4949 100.112 58.9995C100.262 58.9283 100.442 59.0046 100.499 59.1609C102.484 64.6941 102.356 70.685 100.557 76.147Z" fill="#20434F"/>
<path d="M64.7587 49.6621L93.4554 75.8062" stroke="#20434F" stroke-width="0.990325" stroke-miterlimit="10" stroke-linecap="round"/>
<path d="M61.6782 53.0234L90.3749 79.1675" stroke="#20434F" stroke-width="0.990325" stroke-miterlimit="10" stroke-linecap="round"/>
<path d="M58.5923 56.3828L87.2886 82.5269" stroke="#20434F" stroke-width="0.990325" stroke-miterlimit="10" stroke-linecap="round"/>
<path d="M55.512 59.7422L84.2087 85.8863" stroke="#20434F" stroke-width="0.990325" stroke-miterlimit="10" stroke-linecap="round"/>
<path d="M52.426 63.1035L81.1227 89.2476" stroke="#20434F" stroke-width="0.990325" stroke-miterlimit="10" stroke-linecap="round"/>
<path d="M49.3455 66.4629L78.0422 92.607" stroke="#20434F" stroke-width="0.990325" stroke-miterlimit="10" stroke-linecap="round"/>
<path d="M46.2649 69.8242L70.2781 91.7014" stroke="#20434F" stroke-width="0.990325" stroke-miterlimit="10" stroke-linecap="round"/>
<path d="M81.256 41.779C81.95 38.0584 81.7861 34.1094 80.6684 30.3074C79.2684 25.4739 76.3393 20.9333 72.2646 17.5348C68.2077 14.1266 62.9869 11.8762 57.4547 11.282C51.9291 10.6679 46.1008 11.7469 40.9711 14.4533C45.621 11.0057 51.4394 8.89809 57.5159 8.64889C63.5828 8.37977 69.8666 9.93853 75.3011 13.2412C80.7373 16.524 85.2737 21.5156 88.0617 27.487C88.7611 28.9784 89.3425 30.5299 89.8297 32.1196C90.311 33.7119 90.6539 35.349 90.9032 37.0078C91.1462 38.6687 91.2396 40.3529 91.242 42.0434C91.237 42.7071 91.2053 43.3704 91.1599 44.0332L96.6378 45.28L82.3788 60.6735L76.0373 40.5906L81.256 41.779Z" fill="#20434F"/>
<path d="M92.2784 5.33019C91.5669 5.91885 90.5114 6.82267 87.3358 9.68303M86.8175 2.12736C86.497 2.91755 86.0341 4.1077 84.7 7.77042M94.843 11.728C93.876 11.8614 92.4211 12.0953 87.9508 12.9642" stroke="#20434F" stroke-width="1.5" stroke-linecap="round" stroke-linejoin="round"/>
<path d="M2.09216 8.15403C2.89986 8.60156 4.10382 9.29545 7.75197 11.5219M6.86954 4C7.3301 4.71762 8.0043 5.80213 9.9904 9.15638M0.75 14.9148C1.72503 14.8678 3.19815 14.8296 7.75197 14.8602" stroke="#20434F" stroke-width="1.5" stroke-linecap="round" stroke-linejoin="round"/>
</svg>
