<svg width="100" height="87" viewBox="0 0 100 87" fill="none" xmlns="http://www.w3.org/2000/svg">
<path d="M40.9857 4.04834C45.8532 3.83953 48.4544 4.23313 52.8035 6.70626C59.1332 10.3057 63.2491 16.7234 69.8027 19.9372C75.5989 22.7796 82.6508 20.8792 88.5903 23.2435C92.827 24.9191 95.8286 27.3276 97.692 31.5362C98.8688 34.1627 99.296 37.0592 98.9271 39.9099C98.5285 43.152 97.1707 46.311 95.5403 49.1064C93.4766 52.645 93.3914 54.9392 93.1858 58.9215C92.9392 64.1814 92.9606 69.1759 91.1441 74.1947C87.6826 83.7577 74.3179 89.5938 64.8022 85.8592C62.3429 85.0821 59.6053 83.1214 57.5409 81.5823C53.6149 78.6554 50.8266 76.569 46.0046 75.2715C34.8696 72.2754 21.898 79.2869 12.2166 71.1667C8.55935 68.0992 6.61232 63.9344 6.15576 59.305C4.91164 46.6899 15.6323 42.8228 19.4629 33.4098C22.0972 26.9366 19.4616 19.0187 25.2472 12.4778C29.0222 8.20993 35.2735 4.52079 40.9857 4.04834Z" fill="#DEB9F9"/>
<path d="M92.1931 5.73733C91.2455 6.51728 89.8396 7.7148 85.6098 11.5047M84.9194 1.49371C84.4925 2.54067 83.876 4.11758 82.0989 8.97054M95.6092 14.2141C94.3212 14.391 92.3832 14.7008 86.429 15.8521" stroke="#20434F" stroke-width="1.66667" stroke-linecap="round" stroke-linejoin="round"/>
<path d="M4.24977 20.1065C5.19738 20.8864 6.6033 22.0839 10.833 25.8738M11.5235 15.8628C11.9504 16.9098 12.5669 18.4867 14.344 23.3397M0.833699 28.5833C2.1217 28.7601 4.05964 29.0699 10.0139 30.2213" stroke="#20434F" stroke-width="1.66667" stroke-linecap="round" stroke-linejoin="round"/>
<path d="M38.9575 53.0434C37.448 54.8847 36.5422 57.24 36.5422 59.8067V66.24H21.1343C20.4156 66.24 19.8337 65.6575 19.8337 64.9394V60.5163C19.8337 56.0381 23.4637 52.4082 27.9412 52.4082H35.8053C36.9237 52.4082 37.9887 52.6347 38.9575 53.0434Z" fill="white"/>
<path d="M68.1401 53.5629C69.6496 55.4042 70.5554 57.7595 70.5554 60.3262V66.7595H85.9633C86.682 66.7595 87.2639 66.1771 87.2639 65.4589V61.0358C87.2639 56.5576 83.634 52.9277 79.1564 52.9277H71.2923C70.174 52.9277 69.1089 53.1542 68.1401 53.5629Z" fill="white"/>
<path d="M31.8733 48.7061C36.0778 48.7061 39.4861 45.2977 39.4861 41.0933C39.4861 36.8888 36.0778 33.4805 31.8733 33.4805C27.6689 33.4805 24.2605 36.8888 24.2605 41.0933C24.2605 45.2977 27.6689 48.7061 31.8733 48.7061Z" fill="white"/>
<path d="M75.2243 49.2256C71.0199 49.2256 67.6115 45.8173 67.6115 41.6128C67.6115 37.4084 71.0199 34 75.2243 34C79.4288 34 82.8372 37.4084 82.8372 41.6128C82.8372 45.8173 79.4288 49.2256 75.2243 49.2256Z" fill="white"/>
<path d="M70.4321 59.8054V67.773C70.4321 68.2265 70.0646 68.5934 69.6117 68.5934H37.3633C36.9098 68.5934 36.5422 68.2265 36.5422 67.773V59.8054C36.5422 57.2387 37.448 54.8833 38.9575 53.042C40.9151 50.6522 43.8899 49.127 47.2206 49.127H59.7543C65.6518 49.127 70.4321 53.9079 70.4321 59.8054Z" fill="#20434F"/>
<path d="M53.4873 44.4283C59.4046 44.4283 64.2015 39.6314 64.2015 33.7141C64.2015 27.7969 59.4046 23 53.4873 23C47.5701 23 42.7732 27.7969 42.7732 33.7141C42.7732 39.6314 47.5701 44.4283 53.4873 44.4283Z" fill="#20434F"/>
<path d="M38.9575 53.0434C37.448 54.8847 36.5422 57.24 36.5422 59.8067V66.24H21.1343C20.4156 66.24 19.8337 65.6575 19.8337 64.9394V60.5163C19.8337 56.0381 23.4637 52.4082 27.9412 52.4082H35.8053C36.9237 52.4082 37.9887 52.6347 38.9575 53.0434Z" stroke="#20434F" stroke-width="1.21098" stroke-miterlimit="10" stroke-linejoin="round"/>
<path d="M68.1401 53.5629C69.6496 55.4042 70.5554 57.7595 70.5554 60.3262V66.7595H85.9633C86.682 66.7595 87.2639 66.1771 87.2639 65.4589V61.0358C87.2639 56.5576 83.634 52.9277 79.1564 52.9277H71.2923C70.174 52.9277 69.1089 53.1542 68.1401 53.5629Z" stroke="#20434F" stroke-width="1.21098" stroke-miterlimit="10" stroke-linejoin="round"/>
<path d="M31.8733 48.7061C36.0778 48.7061 39.4861 45.2977 39.4861 41.0933C39.4861 36.8888 36.0778 33.4805 31.8733 33.4805C27.6689 33.4805 24.2605 36.8888 24.2605 41.0933C24.2605 45.2977 27.6689 48.7061 31.8733 48.7061Z" fill="white" stroke="#20434F" stroke-width="1.21098" stroke-miterlimit="10" stroke-linejoin="round"/>
<path d="M75.2243 49.2256C71.0199 49.2256 67.6115 45.8173 67.6115 41.6128C67.6115 37.4084 71.0199 34 75.2243 34C79.4288 34 82.8372 37.4084 82.8372 41.6128C82.8372 45.8173 79.4288 49.2256 75.2243 49.2256Z" fill="white" stroke="#20434F" stroke-width="1.21098" stroke-miterlimit="10" stroke-linejoin="round"/>
<path d="M70.4321 59.8054V67.773C70.4321 68.2265 70.0646 68.5934 69.6117 68.5934H37.3633C36.9098 68.5934 36.5422 68.2265 36.5422 67.773V59.8054C36.5422 57.2387 37.448 54.8833 38.9575 53.042C40.9151 50.6522 43.8899 49.127 47.2206 49.127H59.7543C65.6518 49.127 70.4321 53.9079 70.4321 59.8054Z" stroke="#20434F" stroke-width="1.21098" stroke-miterlimit="10" stroke-linejoin="round"/>
<path d="M53.4873 44.4283C59.4046 44.4283 64.2015 39.6314 64.2015 33.7141C64.2015 27.7969 59.4046 23 53.4873 23C47.5701 23 42.7732 27.7969 42.7732 33.7141C42.7732 39.6314 47.5701 44.4283 53.4873 44.4283Z" stroke="#20434F" stroke-width="1.21098" stroke-miterlimit="10" stroke-linejoin="round"/>
<path d="M44.1963 68.5933V61.9238" stroke="#20434F" stroke-width="1.21098" stroke-miterlimit="10" stroke-linejoin="round"/>
<path d="M62.7788 68.5933V61.9238" stroke="#20434F" stroke-width="1.21098" stroke-miterlimit="10" stroke-linejoin="round"/>
</svg>
