<svg width="120" height="105" viewBox="0 0 120 105" fill="none" xmlns="http://www.w3.org/2000/svg">
<path d="M47.9298 4.04834C52.7973 3.83953 55.3985 4.23313 59.7476 6.70626C66.0773 10.3057 70.1932 16.7234 76.7468 19.9372C82.5429 22.7796 89.5949 20.8792 95.5344 23.2435C99.7711 24.9191 102.773 27.3276 104.636 31.5362C105.813 34.1627 106.24 37.0592 105.871 39.9099C105.473 43.152 104.115 46.311 102.484 49.1064C100.421 52.645 100.336 54.9392 100.13 58.9215C99.8833 64.1814 99.9047 69.1759 98.0882 74.1947C94.6267 83.7577 81.262 89.5938 71.7463 85.8592C69.287 85.0821 66.5494 83.1214 64.485 81.5823C60.559 78.6554 57.7707 76.569 52.9487 75.2715C41.8137 72.2754 28.8421 79.2869 19.1607 71.1667C15.5034 68.0992 13.5564 63.9344 13.0999 59.305C11.8557 46.6899 22.5763 42.8228 26.407 33.4098C29.0413 26.9366 26.4057 19.0187 32.1913 12.4778C35.9663 8.20993 42.2176 4.52079 47.9298 4.04834Z" fill="#DEB9F9"/>
<path d="M99.1373 5.73733C98.1897 6.51728 96.7838 7.7148 92.554 11.5047M91.8636 1.49371C91.4367 2.54067 90.8202 4.11758 89.0431 8.97054M102.553 14.2141C101.265 14.391 99.3274 14.7008 93.3732 15.8521" stroke="#20434F" stroke-width="1.66667" stroke-linecap="round" stroke-linejoin="round"/>
<path d="M11.1939 20.1065C12.1415 20.8864 13.5474 22.0839 17.7771 25.8738M18.4676 15.8628C18.8945 16.9098 19.511 18.4867 21.2881 23.3397M7.77779 28.5833C9.0658 28.7601 11.0037 29.0699 16.958 30.2213" stroke="#20434F" stroke-width="1.66667" stroke-linecap="round" stroke-linejoin="round"/>
<path d="M51.7989 56.3474C49.7943 58.7927 48.5913 61.9207 48.5913 65.3294V73.873H28.1291C27.1746 73.873 26.4019 73.0995 26.4019 72.1458V66.2718C26.4019 60.3246 31.2225 55.5039 37.1689 55.5039H47.6127C49.0979 55.5039 50.5124 55.8046 51.7989 56.3474Z" fill="#20434F"/>
<path d="M42.3907 50.5874C47.9744 50.5874 52.5008 46.0609 52.5008 40.4773C52.5008 34.8936 47.9744 30.3672 42.3907 30.3672C36.8071 30.3672 32.2806 34.8936 32.2806 40.4773C32.2806 46.0609 36.8071 50.5874 42.3907 50.5874Z" fill="white"/>
<path d="M93.5981 65.3278V75.9091C93.5981 76.5114 93.11 76.9987 92.5086 76.9987H49.6816C49.0793 76.9987 48.5912 76.5114 48.5912 75.9091V65.3278C48.5912 61.9192 49.7941 58.7912 51.7988 56.3459C54.3985 53.172 58.3491 51.1465 62.7725 51.1465H79.4176C87.2497 51.1465 93.5981 57.4958 93.5981 65.3278Z" fill="#F5F8FA"/>
<path d="M71.095 44.9067C78.9533 44.9067 85.3237 38.5363 85.3237 30.678C85.3237 22.8197 78.9533 16.4492 71.095 16.4492C63.2366 16.4492 56.8662 22.8197 56.8662 30.678C56.8662 38.5363 63.2366 44.9067 71.095 44.9067Z" fill="white"/>
<path d="M51.7989 56.3474C49.7943 58.7927 48.5913 61.9207 48.5913 65.3294V73.873H28.1291C27.1746 73.873 26.4019 73.0995 26.4019 72.1458V66.2718C26.4019 60.3246 31.2225 55.5039 37.1689 55.5039H47.6127C49.0979 55.5039 50.5124 55.8046 51.7989 56.3474Z" stroke="#20434F" stroke-width="1.60822" stroke-miterlimit="10" stroke-linejoin="round"/>
<path d="M42.3907 50.5874C47.9744 50.5874 52.5008 46.0609 52.5008 40.4773C52.5008 34.8936 47.9744 30.3672 42.3907 30.3672C36.8071 30.3672 32.2806 34.8936 32.2806 40.4773C32.2806 46.0609 36.8071 50.5874 42.3907 50.5874Z" fill="#20434F" stroke="#20434F" stroke-width="1.60822" stroke-miterlimit="10" stroke-linejoin="round"/>
<path d="M93.5981 65.3278V75.9091C93.5981 76.5114 93.11 76.9987 92.5086 76.9987H49.6816C49.0793 76.9987 48.5912 76.5114 48.5912 75.9091V65.3278C48.5912 61.9192 49.7941 58.7912 51.7988 56.3459C54.3985 53.172 58.3491 51.1465 62.7725 51.1465H79.4176C87.2497 51.1465 93.5981 57.4958 93.5981 65.3278Z" stroke="#20434F" stroke-width="1.60822" stroke-miterlimit="10" stroke-linejoin="round"/>
<path d="M71.095 44.9067C78.9533 44.9067 85.3237 38.5363 85.3237 30.678C85.3237 22.8197 78.9533 16.4492 71.095 16.4492C63.2366 16.4492 56.8662 22.8197 56.8662 30.678C56.8662 38.5363 63.2366 44.9067 71.095 44.9067Z" stroke="#20434F" stroke-width="1.60822" stroke-miterlimit="10" stroke-linejoin="round"/>
<path d="M58.7561 76.9999V68.1426" stroke="#20434F" stroke-width="1.60822" stroke-miterlimit="10" stroke-linejoin="round"/>
<path d="M83.4344 76.9999V68.1426" stroke="#20434F" stroke-width="1.60822" stroke-miterlimit="10" stroke-linejoin="round"/>
</svg>
