<svg width="110" height="100" viewBox="0 0 110 100" fill="none" xmlns="http://www.w3.org/2000/svg">
<path d="M41.2959 2.03786C45.3784 1.87433 47.56 2.18257 51.2077 4.11936C56.5164 6.9382 59.9685 11.9641 65.465 14.481C70.3263 16.7069 76.2408 15.2186 81.2224 17.0702C84.7758 18.3824 87.2932 20.2686 88.8561 23.5645C89.8431 25.6214 90.2014 27.8897 89.892 30.1222C89.5577 32.6612 88.4189 35.1351 87.0514 37.3243C85.3205 40.0955 85.2491 41.8921 85.0767 45.0108C84.8699 49.13 84.8878 53.0413 83.3643 56.9717C80.4611 64.4608 69.252 69.0313 61.2711 66.1066C59.2084 65.4981 56.9124 63.9626 55.181 62.7572C51.8882 60.4651 49.5496 58.8312 45.5053 57.815C36.1663 55.4686 25.287 60.9596 17.167 54.6005C14.0997 52.1982 12.4667 48.9365 12.0837 45.3111C11.0403 35.4318 20.0318 32.4034 23.2446 25.0318C25.454 19.9624 23.2435 13.7616 28.0959 8.63922C31.2621 5.29694 36.505 2.40785 41.2959 2.03786Z" fill="#DEB9F9"/>
<path d="M18.948 79.1696H75.2654L86.7842 26.0433C87.1459 24.3751 85.8755 22.7988 84.1693 22.7988H29.6444C27.9512 22.7988 26.4872 23.9799 26.1282 25.6354L15.4595 74.8412C14.9769 77.0668 16.6717 79.1696 18.948 79.1696Z" fill="#20434F" stroke="#20434F" stroke-width="1.1" stroke-linecap="round" stroke-linejoin="round"/>
<path d="M94.387 79.1693H42.4263C40.4063 79.1693 38.6599 77.7607 38.2316 75.7856L28.7331 31.9764L27.3196 25.4569C27.0233 24.0901 28.0639 22.7988 29.462 22.7988H85.7201C86.7515 22.7988 87.6436 23.5182 87.8625 24.527L89.4777 31.9764L98.5816 73.965C99.1617 76.6411 97.1238 79.1693 94.387 79.1693Z" fill="#F5F8FA" stroke="#20434F" stroke-width="1.1" stroke-linecap="round" stroke-linejoin="round"/>
<path d="M89.4776 31.9764H28.7331L27.3196 25.4569C27.0233 24.0901 28.0639 22.7988 29.462 22.7988H85.7201C86.7515 22.7988 87.6436 23.5182 87.8625 24.527L89.4776 31.9764Z" fill="#F5F8FA" stroke="#20434F" stroke-width="1.1" stroke-linecap="round" stroke-linejoin="round"/>
<path d="M31.4121 22.6619C31.4121 21.2759 31.9737 20.021 32.8816 19.1127C33.7895 18.2044 35.0437 17.6426 36.4291 17.6426C37.8145 17.6426 39.0688 18.2044 39.9767 19.1127C40.8846 20.021 41.4462 21.2759 41.4462 22.6619C41.4462 24.048 40.8846 25.3028 39.9767 26.2112C39.0688 27.1195 37.8145 27.6813 36.4291 27.6813M46.0944 22.6619C46.0944 21.2759 46.6559 20.021 47.5639 19.1127C48.4718 18.2044 49.726 17.6426 51.1114 17.6426C52.4968 17.6426 53.7511 18.2044 54.659 19.1127C55.5669 20.021 56.1284 21.2759 56.1284 22.6619C56.1284 24.048 55.5669 25.3028 54.659 26.2112C53.7511 27.1195 52.4968 27.6813 51.1114 27.6813M60.7767 22.6619C60.7767 21.2759 61.3383 20.021 62.2462 19.1127C63.1541 18.2044 64.4083 17.6426 65.7937 17.6426C67.1792 17.6426 68.4334 18.2044 69.3413 19.1127C70.2492 20.021 70.8108 21.2759 70.8108 22.6619C70.8108 24.048 70.2492 25.3028 69.3413 26.2112C68.4334 27.1195 67.1792 27.6813 65.7937 27.6813M75.459 22.6619C75.459 21.2759 76.0206 20.021 76.9285 19.1127C77.8364 18.2044 79.0906 17.6426 80.476 17.6426C81.8614 17.6426 83.1157 18.2044 84.0236 19.1127C84.9315 20.021 85.4931 21.2759 85.4931 22.6619C85.4931 24.048 84.9315 25.3028 84.0236 26.2112C83.1157 27.1195 81.8614 27.6813 80.476 27.6813" stroke="#20434F" stroke-width="1.20443" stroke-linecap="round" stroke-linejoin="round"/>
<path d="M9.61739 26.7656C7.14143 29.0707 5.99824 32.7184 6.71548 36.0251C7.43275 39.3318 9.98435 42.1773 13.1926 43.2483C13.9863 43.5132 14.8428 43.6759 15.6596 43.4942C17.3571 43.1164 18.446 41.2483 18.3175 39.5132C18.1755 37.5967 17.2415 35.5503 15.3769 35.089C13.5122 34.6277 10.8912 34.7515 9.87288 36.3809C8.00512 39.3696 9.97932 44.2338 11.9617 47.1477C13.3575 49.1994 14.9774 51.3991 17.3902 51.9756C18.7546 52.3016 20.1845 52.0497 21.5567 51.7586C26.7279 50.6618 31.783 49.0179 36.6104 46.8631C40.0018 45.3492 43.2849 43.5827 46.7647 42.2851C49.8104 41.1493 52.9793 40.3832 56.1448 39.6449C63.027 38.0398 69.9434 36.5517 76.9379 35.5434C80.9082 34.9711 85.0305 34.5643 88.8714 35.7217C91.3084 36.4561 93.5211 37.7912 95.6035 39.2554C97.4467 40.5513 99.2658 42.0236 100.291 44.0306C101.214 45.8387 101.412 47.9389 101.288 49.9654C101.147 52.2682 100.61 54.5462 99.7061 56.6688C97.1548 62.6619 91.9117 67.0464 86.5904 70.8002C81.2693 74.554 75.5864 78.0066 71.441 83.0297C69.7945 85.0249 68.3763 87.8038 69.5748 90.0965C70.1807 91.2556 71.3396 92.0108 72.4918 92.629C78.2042 95.6938 85.0315 96.6201 91.3534 95.1883" stroke="#20434F" stroke-width="0.9735" stroke-linecap="round" stroke-linejoin="round"/>
<path d="M7.56467 15.3302C8.27609 15.9189 9.33162 16.8227 12.5072 19.683M13.0255 12.1274C13.346 12.9175 13.8089 14.1077 15.1431 17.7704M4.99999 21.728C5.96698 21.8614 7.42192 22.0953 11.8922 22.9642" stroke="#20434F" stroke-width="1.5" stroke-linecap="round" stroke-linejoin="round"/>
<path d="M103.528 16.3302C102.817 16.9189 101.761 17.8227 98.5858 20.683M98.0675 13.1274C97.747 13.9175 97.2841 15.1077 95.95 18.7704M106.093 22.728C105.126 22.8614 103.671 23.0953 99.2008 23.9642" stroke="#20434F" stroke-width="1.5" stroke-linecap="round" stroke-linejoin="round"/>
</svg>
