<svg width="140" height="102" viewBox="0 0 140 102" fill="none" xmlns="http://www.w3.org/2000/svg">
<path d="M10.2081 43.7694C10.2081 43.7694 27.2795 43.0862 30.9686 15.0388C34.2447 -9.87 63.0315 1.46757 71.3527 11.3968C82.1321 24.2593 76.386 46.3855 90.3304 49.1806C104.275 51.9758 95.1689 83.0532 74.002 80.0786C47.6711 76.3783 54.0417 91.7568 46.1373 98.2658C40.4645 102.937 17.2039 98.4404 16.4287 81.4822C15.7763 67.2121 9.7538 67.2573 5.48501 65.6393C-0.671572 63.3055 -4.55089 46.4046 10.2081 43.7694Z" fill="#E2BAFF"/>
<path fill-rule="evenodd" clip-rule="evenodd" d="M33.732 100.504L27.5252 30.0809C27.2365 26.4063 29.9215 23.1684 33.585 22.7732L109.906 14.5401C112.655 14.2434 115.155 16.1561 115.588 18.8887L119.147 41.352" fill="#20434F"/>
<path fill-rule="evenodd" clip-rule="evenodd" d="M127.82 40.396C129.553 40.1561 131.019 41.6695 130.725 43.3942L124.291 81.1517C123.848 83.752 121.812 85.7889 119.213 86.2325L35.0254 100.601C35.0096 100.603 34.9964 100.589 35.0009 100.573L51.5296 43.7751C52.3161 41.0722 54.6541 39.1103 57.4518 38.8055L74.0236 37.0001L74.0263 37C78.6371 37.001 81.9576 42.2093 83.7349 46.5001L127.82 40.396Z" fill="#F5F8FA" stroke="#20434F" stroke-width="2.11809" stroke-linecap="round" stroke-linejoin="round"/>
<path d="M16.3629 18.3508C17.3311 18.8873 18.7744 19.7191 23.1477 22.3881M22.0899 13.3711C22.642 14.2314 23.4502 15.5314 25.8311 19.5524M14.7539 26.4554C15.9227 26.3992 17.6887 26.3534 23.1477 26.39" stroke="#20434F" stroke-width="1.5" stroke-linecap="round" stroke-linejoin="round"/>
<path d="M64.6902 33.0483C64.5856 32.6091 64.5346 32.1653 64.5312 31.7207" stroke="#20434F" stroke-width="2.1948" stroke-linecap="round" stroke-linejoin="round"/>
<path d="M64.9043 29.441C65.6874 27.0292 67.5994 24.7815 69.6114 23.311C72.4917 21.2059 76.355 21.2685 79.9222 21.2841C82.495 21.2953 85.0682 21.2366 87.638 21.108C91.688 20.9054 95.8044 20.5113 99.5466 18.9487C99.8515 18.8214 100.156 18.6845 100.452 18.5332" stroke="#20434F" stroke-width="2.1948" stroke-linecap="round" stroke-linejoin="round"/>
<path d="M101.445 17.9362C101.808 17.6755 102.141 17.3773 102.426 17.0293" stroke="#20434F" stroke-width="2.1948" stroke-linecap="round" stroke-linejoin="round"/>
<path d="M134.752 94.1648C133.803 93.5946 132.361 92.7606 127.863 90.3076M136.201 86.7152C135.18 86.6672 133.65 86.6173 128.977 86.5659M128.538 99.6105C128.002 98.5701 127.159 97.0179 124.398 92.3086" stroke="#20434F" stroke-width="1.5" stroke-linecap="round" stroke-linejoin="round"/>
</svg>
