<svg width="130" height="130" viewBox="0 0 130 130" fill="none" xmlns="http://www.w3.org/2000/svg">
<path d="M49.8354 15.246C54.898 15.027 57.6034 15.4398 62.1269 18.0331C68.7102 21.8074 72.991 28.537 79.8072 31.907C85.8357 34.8875 93.1702 32.8948 99.3477 35.374C103.754 37.131 106.876 39.6566 108.814 44.0697C110.038 46.8239 110.482 49.8611 110.099 52.8503C109.684 56.25 108.272 59.5624 106.576 62.4937C104.43 66.2043 104.341 68.6099 104.127 72.7858C103.871 78.3013 103.893 83.5385 102.004 88.8012C98.4037 98.8289 84.5034 104.949 74.6063 101.033C72.0485 100.218 69.2012 98.1617 67.0541 96.5478C62.9708 93.4787 60.0707 91.2909 55.0554 89.9304C43.4743 86.7886 29.9829 94.1409 19.9134 85.6261C16.1096 82.4095 14.0846 78.0423 13.6097 73.1879C12.3157 59.9598 23.466 55.9048 27.4501 46.0343C30.19 39.2465 27.4488 30.9439 33.4662 24.0851C37.3925 19.6098 43.8943 15.7414 49.8354 15.246Z" fill="#DEB9F9" class="background-splash"/>
<path fill-rule="evenodd" clip-rule="evenodd" d="M44.7686 105.556L40.209 53.8376C39.9969 51.1391 41.9694 48.7611 44.6606 48.4709L100.727 42.4246C102.747 42.2068 104.583 43.6114 104.901 45.6182L107.516 62.1151" fill="#20434F"/>
<path d="M44.7686 105.556L40.209 53.8376C39.9969 51.1391 41.9694 48.7611 44.6606 48.4709L100.727 42.4246C102.747 42.2068 104.583 43.6114 104.901 45.6182L107.516 62.1151" stroke="#20434F" stroke-width="1.04797" stroke-linecap="round" stroke-linejoin="round"/>
<path fill-rule="evenodd" clip-rule="evenodd" d="M42.5835 43.1679C42.2331 41.1003 42.4919 38.6439 42.6 36.5496C42.708 34.4553 43.4533 32.2896 45.084 30.971C46.0106 30.2217 47.1511 29.7967 48.2738 29.3973C63.2772 24.0601 79.1213 21.0938 95.0393 20.6416C96.3589 20.6041 97.898 20.6877 98.6643 21.7626C99.098 22.3711 99.1662 23.1582 99.2236 23.9032C100.219 36.8284 102.317 49.6685 105.486 62.2384C106.318 65.5366 105.936 69.2247 104.269 72.1894C101.422 77.2513 97.1331 81.3451 92.6359 85.0196C88.6282 88.2942 84.4028 91.3024 79.9969 94.0176C77.6704 95.4513 75.2538 96.8198 72.6003 97.4737C70.3026 98.0399 67.8911 98.053 65.6099 98.6826C63.7213 99.2038 61.9691 100.135 60.0965 100.711C58.2036 101.293 56.2199 101.503 54.2747 101.875C51.0296 102.496 48.7971 103.78 45.8513 105.276L42.5835 43.1679H42.5835Z" fill="#F5F8FA" stroke="#20434F" stroke-width="1.04797" stroke-linecap="round" stroke-linejoin="round"/>
<path d="M52.4076 50.1423C66.4234 47.5199 80.4391 44.8975 94.4548 42.2751M53.1195 57.0333C67.1352 54.4109 81.1509 51.7885 95.1667 49.1661M54.4849 65.3704C68.5006 62.748 82.5163 60.1256 96.5321 57.5032M51.0007 43.1649C65.0164 40.5425 79.0322 37.9201 93.0479 35.2977M49.5938 36.1875C63.6095 33.5651 77.6252 30.9427 91.6409 28.3203" stroke="#20434F" stroke-width="0.987756" stroke-linecap="round" stroke-linejoin="round"/>
<path fill-rule="evenodd" clip-rule="evenodd" d="M112.954 61.3592C114.227 61.183 115.304 62.2944 115.088 63.561L110.362 91.2898C110.037 93.1995 108.541 94.6954 106.631 95.0212L44.7862 105.573C44.7746 105.575 44.7649 105.564 44.7682 105.553L56.9104 63.8408C57.4882 61.8558 59.2057 60.4151 61.2609 60.1912L73.4348 58.8653C73.4355 58.8652 73.4361 58.8652 73.4368 58.8652C76.824 58.866 79.2633 62.6909 80.5688 65.842L112.955 61.3592L112.954 61.3592Z" fill="#F5F8FA" stroke="#20434F" stroke-width="1.04797" stroke-linecap="round" stroke-linejoin="round"/>
<path fill-rule="evenodd" clip-rule="evenodd" d="M63.9903 89.7508C65.7781 97.7533 64.8238 92.8871 66.7497 99.8401C68.5303 106.269 69.5289 107.982 73.1129 111.351C76.697 114.719 80.535 115.745 87.4101 116.346C87.702 116.371 95.3127 112.181 97.1717 108.517C99.0307 104.853 99.6059 99.9267 99.4077 98.0689C98.595 90.4521 98.354 92.1166 97.0928 84.6498C96.1691 84.6568 93.6059 84.5534 91.1538 82.776C89.4458 81.5379 88.551 80.038 88.1332 79.2031L71.1253 82.0419C71.0246 82.8204 70.5972 85.355 68.4173 87.4397C66.7124 89.0701 64.8202 89.5793 63.9902 89.7508" fill="#20434F"/>
<path fill-rule="evenodd" clip-rule="evenodd" d="M81.6075 99.8098C79.5537 99.3667 77.8766 97.6153 77.5532 95.3276C77.144 92.4327 79.0566 89.7682 81.8215 89.3812C84.5865 88.9942 87.1636 91.0303 87.5728 93.9252C87.8962 96.2129 86.7696 98.3567 84.9183 99.3464L85.6216 104.322C85.7502 105.231 85.1133 106.073 84.1991 106.201H84.199C83.2847 106.329 82.4394 105.695 82.3108 104.785L81.6075 99.8098H81.6075Z" fill="#F5F8FA"/>
<path d="M49.7246 64.1529C49.6397 64.0873 48.9799 62.5019 33.4987 62.7269C16.5332 62.9735 10.4992 63.7906 7.96149 64.7861C7.30473 65.0437 7.5961 75.6277 7.56798 77.5021C7.51113 81.2918 9.72628 80.0595 34.2798 80.1062C48.1398 80.1325 48.7427 79.5492 49.629 78.6918C50.2318 78.1085 52.4504 70.9222 49.7246 64.1529Z" fill="#20434F"/>
<path d="M13.6504 68.7129V75.7687" stroke="#F5F8FA" stroke-width="1.4862" stroke-linecap="round" stroke-linejoin="round"/>
<path d="M17.1769 72.2383H10.1211" stroke="#F5F8FA" stroke-width="1.4862" stroke-linecap="round" stroke-linejoin="round"/>
<path d="M16.1416 69.7461L11.1523 74.7353" stroke="#F5F8FA" stroke-width="1.4862" stroke-linecap="round" stroke-linejoin="round"/>
<path d="M16.1416 74.7353L11.1523 69.7461" stroke="#F5F8FA" stroke-width="1.4862" stroke-linecap="round" stroke-linejoin="round"/>
<path d="M23.5527 68.7129V75.7687" stroke="#F5F8FA" stroke-width="1.4862" stroke-linecap="round" stroke-linejoin="round"/>
<path d="M27.0792 72.2383H20.0234" stroke="#F5F8FA" stroke-width="1.4862" stroke-linecap="round" stroke-linejoin="round"/>
<path d="M26.0439 69.7461L21.0547 74.7353" stroke="#F5F8FA" stroke-width="1.4862" stroke-linecap="round" stroke-linejoin="round"/>
<path d="M26.0439 74.7353L21.0547 69.7461" stroke="#F5F8FA" stroke-width="1.4862" stroke-linecap="round" stroke-linejoin="round"/>
<path d="M33.4551 68.7129V75.7687" stroke="#F5F8FA" stroke-width="1.4862" stroke-linecap="round" stroke-linejoin="round"/>
<path d="M36.9816 72.2383H29.9258" stroke="#F5F8FA" stroke-width="1.4862" stroke-linecap="round" stroke-linejoin="round"/>
<path d="M35.9462 69.7461L30.957 74.7353" stroke="#F5F8FA" stroke-width="1.4862" stroke-linecap="round" stroke-linejoin="round"/>
<path d="M35.9462 74.7353L30.957 69.7461" stroke="#F5F8FA" stroke-width="1.4862" stroke-linecap="round" stroke-linejoin="round"/>
<path d="M43.3574 68.7129V75.7687" stroke="#F5F8FA" stroke-width="1.4862" stroke-linecap="round" stroke-linejoin="round"/>
<path d="M46.8839 72.2383H39.8281" stroke="#F5F8FA" stroke-width="1.4862" stroke-linecap="round" stroke-linejoin="round"/>
<path d="M45.8486 69.7461L40.8594 74.7353" stroke="#F5F8FA" stroke-width="1.4862" stroke-linecap="round" stroke-linejoin="round"/>
<path d="M45.8486 74.7353L40.8594 69.7461" stroke="#F5F8FA" stroke-width="1.4862" stroke-linecap="round" stroke-linejoin="round"/>
<path d="M99.706 6.72958C91.9579 8.02252 87.0761 21.1836 97.3651 26.0481C105.028 29.6709 111.581 24.0995 112.258 17.3748C113.134 8.67277 105.194 5.81373 99.706 6.72958Z" fill="#20434F"/>
<path d="M97.5957 16.8258C99.7484 20.7002 99.8994 20.6841 100.148 20.6176C101.241 20.3256 101.092 19.1695 105.961 13.5488" stroke="#F5F8FA" stroke-width="1.90477" stroke-linecap="round" stroke-linejoin="round"/>
<path d="M27.5176 26.363C28.4308 26.869 29.7922 27.6536 33.9171 30.171M32.9194 21.666C33.4401 22.4774 34.2024 23.7037 36.4481 27.4963M26 34.0073C27.1025 33.9542 28.7681 33.911 33.9171 33.9456" stroke="#20434F" stroke-width="1.925" stroke-linecap="round" stroke-linejoin="round"/>
<path d="M120.141 38.4801C119.337 39.1457 118.143 40.1677 114.553 43.4019M113.967 34.8587C113.604 35.7521 113.081 37.0979 111.572 41.2393M123.041 45.7141C121.948 45.865 120.303 46.1294 115.248 47.1119" stroke="#20434F" stroke-width="1.925" stroke-linecap="round" stroke-linejoin="round"/>
</svg>
