<svg width="24" height="24" viewBox="0 0 24 24" fill="none" xmlns="http://www.w3.org/2000/svg">
<path d="M13.695 1.48201H3.48201V21.7264H19.8703V6.98049L13.695 1.48201Z" fill="white"/>
<path d="M11.6762 8.23015C8.48698 8.23015 5.89206 10.8251 5.89206 14.0143C5.89206 17.2035 8.48698 19.7984 11.6762 19.7984C14.8654 19.7984 17.4603 17.2035 17.4603 14.0143C17.4603 10.8251 14.8654 8.23015 11.6762 8.23015ZM13.713 17.0079C13.3097 18.0487 12.7131 18.753 12.0665 18.9563V16.9109C12.6122 16.921 13.1642 16.9533 13.713 17.0079ZM14.5151 10.9298C14.3165 10.3701 14.0648 9.87825 13.7707 9.47334C14.4258 9.77741 15.0139 10.2231 15.485 10.7743C15.1479 10.8351 14.8277 10.8867 14.5151 10.9298ZM14.2218 13.624H12.0665V11.8997C12.6892 11.8881 13.3243 11.8481 13.9563 11.7811C14.1071 12.3592 14.1957 12.9781 14.2218 13.624ZM12.0665 11.1245V9.07306C12.7138 9.27628 13.312 9.9814 13.7146 11.0244C13.158 11.0814 12.6153 11.1137 12.0665 11.1245ZM16.6628 14.4045C16.6035 15.162 16.3711 15.8987 15.9846 16.553C15.5589 16.4706 15.1417 16.4006 14.7399 16.3436C14.89 15.734 14.9778 15.0827 15.0024 14.4045H16.6628ZM13.7707 18.556C14.0648 18.1511 14.3165 17.6607 14.5144 17.1019C14.8269 17.1442 15.1517 17.1958 15.4843 17.255C15.0139 17.8062 14.4251 18.2519 13.7707 18.556ZM12.0665 16.1289V14.4045H14.2218C14.1964 15.0512 14.1071 15.6693 13.957 16.2482C13.3235 16.1804 12.6892 16.1404 12.0665 16.1289ZM16.6628 13.624H15.0024C14.9778 12.945 14.89 12.2946 14.7399 11.6849C15.141 11.628 15.5582 11.5579 15.9846 11.4763C16.3711 12.1299 16.6035 12.8665 16.6628 13.624ZM9.63703 11.026C10.0404 9.98217 10.6377 9.27628 11.2859 9.07383V11.1261C10.734 11.1145 10.1913 11.0814 9.63703 11.026ZM9.13052 14.4045H11.2859V16.1289C10.6632 16.1404 10.0289 16.1804 9.39609 16.2482C9.24522 15.6693 9.15592 15.0512 9.13052 14.4045ZM8.83723 17.1011C9.03584 17.6599 9.28756 18.1511 9.58084 18.5552C8.92653 18.2511 8.33765 17.8054 7.86654 17.2543C8.19986 17.1958 8.5247 17.1442 8.83723 17.1011ZM11.2859 16.9102V18.9555C10.6393 18.753 10.0419 18.0487 9.63934 17.0072C10.1882 16.9533 10.7401 16.921 11.2859 16.9102ZM6.68878 13.624C6.74805 12.8665 6.98053 12.1291 7.36696 11.4755C7.79418 11.5579 8.21141 11.628 8.61092 11.6849C8.46081 12.2954 8.37306 12.9458 8.34843 13.6248H6.68878V13.624ZM9.58161 9.47334C9.28755 9.87825 9.03584 10.3701 8.83723 10.929C8.52163 10.8851 8.19755 10.8335 7.86731 10.7743C8.33765 10.2231 8.92653 9.77741 9.58161 9.47334ZM11.2859 11.8997V13.624H9.13052C9.15592 12.9781 9.24522 12.3592 9.39532 11.7811C10.0273 11.8481 10.6616 11.8881 11.2859 11.8997ZM8.61169 16.3444C8.21063 16.4014 7.79341 16.4714 7.36696 16.5538C6.98053 15.8995 6.74805 15.1628 6.68878 14.4053H8.34919C8.37383 15.0835 8.46158 15.734 8.61169 16.3444Z" fill="#00CFFF"/>
<path d="M14.3875 1C14.4429 0.999957 14.4977 1.01084 14.5489 1.03201C14.6001 1.05318 14.6467 1.08417 14.6859 1.12333L20.5905 7.02795C20.6297 7.06715 20.6607 7.11373 20.6819 7.16493C20.703 7.21612 20.7139 7.27098 20.7139 7.32638V20.8227C20.7139 21.1582 20.5807 21.4802 20.3434 21.7175C20.1061 21.9548 19.7842 22.0879 19.4486 22.0879H4.26528C3.9297 22.0879 3.60774 21.9548 3.37045 21.7175C3.13317 21.4802 3 21.1582 3 20.8227V2.26528C3 1.9297 3.13317 1.60774 3.37045 1.37045C3.60774 1.13317 3.9297 1 4.26528 1H14.3875ZM4.26528 1.84352C4.15342 1.84352 4.04594 1.88775 3.96684 1.96684C3.88775 2.04594 3.84352 2.15342 3.84352 2.26528V20.8227C3.84352 20.9345 3.88775 21.042 3.96684 21.1211C4.04594 21.2002 4.15342 21.2444 4.26528 21.2444H19.4486C19.5604 21.2444 19.6679 21.2002 19.747 21.1211C19.8261 21.042 19.8703 20.9345 19.8703 20.8227V7.74814H14.3875C14.2756 7.74814 14.1681 7.70391 14.0891 7.62481C14.01 7.54572 13.9657 7.43824 13.9657 7.32638V1.84352H4.26528Z" fill="#00CFFF"/>
</svg>
