<svg width="56" height="56" viewBox="0 0 56 56" fill="none" xmlns="http://www.w3.org/2000/svg">
<path d="M46.1191 18.6309L33.8691 6.38094C33.7877 6.29971 33.6912 6.2353 33.585 6.19138C33.4788 6.14747 33.3649 6.12491 33.25 6.125H12.25C11.5538 6.125 10.8861 6.40156 10.3938 6.89385C9.90156 7.38613 9.625 8.05381 9.625 8.75V47.25C9.625 47.9462 9.90156 48.6139 10.3938 49.1062C10.8861 49.5984 11.5538 49.875 12.25 49.875H43.75C44.4462 49.875 45.1139 49.5984 45.6062 49.1062C46.0984 48.6139 46.375 47.9462 46.375 47.25V19.25C46.3751 19.1351 46.3525 19.0212 46.3086 18.915C46.2647 18.8088 46.2003 18.7123 46.1191 18.6309ZM34.125 9.11094L43.3869 18.375H34.125V9.11094ZM43.75 48.125H12.25C12.0179 48.125 11.7954 48.0328 11.6313 47.8687C11.4672 47.7046 11.375 47.4821 11.375 47.25V8.75C11.375 8.51794 11.4672 8.29538 11.6313 8.13128C11.7954 7.96719 12.0179 7.875 12.25 7.875H32.375V19.25C32.375 19.4821 32.4672 19.7046 32.6313 19.8687C32.7954 20.0328 33.0179 20.125 33.25 20.125H44.625V47.25C44.625 47.4821 44.5328 47.7046 44.3687 47.8687C44.2046 48.0328 43.9821 48.125 43.75 48.125Z" fill="#54697A"/>
<path d="M37.9384 33.1992C37.8978 33.1039 37.8382 33.0172 37.7631 32.9443L32.9173 28.2304C32.8422 28.1574 32.7531 28.0995 32.6551 28.06C32.5571 28.0205 32.452 28.0002 32.3459 28.0002C32.2397 28.0002 32.1347 28.0205 32.0366 28.06C31.9386 28.0995 31.8495 28.1574 31.7745 28.2304C31.6994 28.3034 31.6399 28.3901 31.5993 28.4854C31.5587 28.5808 31.5378 28.683 31.5378 28.7863C31.5378 28.8895 31.5587 28.9917 31.5993 29.0871C31.6399 29.1824 31.6994 29.2691 31.7745 29.3421L36.0489 33.5001L31.7745 37.6581C31.6229 37.8055 31.5378 38.0054 31.5378 38.2139C31.5378 38.4224 31.6229 38.6223 31.7745 38.7698C31.926 38.9172 32.1315 39 32.3459 39C32.5602 39 32.7657 38.9172 32.9173 38.7698L37.7631 34.0559C37.8382 33.983 37.8978 33.8963 37.9384 33.8009C37.9791 33.7056 38 33.6033 38 33.5001C38 33.3968 37.9791 33.2946 37.9384 33.1992Z" fill="#3595E3"/>
<path d="M22.9634 28.0599C23.0615 28.0994 23.1505 28.1574 23.2255 28.2304C23.3006 28.3034 23.3602 28.39 23.4009 28.4854C23.4415 28.5808 23.4624 28.683 23.4624 28.7863C23.4624 28.8895 23.4415 28.9917 23.4009 29.0871C23.3602 29.1825 23.3006 29.2691 23.2255 29.3421L18.9511 33.5001L23.2255 37.6581C23.3006 37.7311 23.3601 37.8177 23.4007 37.9131C23.4413 38.0085 23.4622 38.1107 23.4622 38.2139C23.4622 38.3172 23.4413 38.4194 23.4007 38.5147C23.3601 38.6101 23.3006 38.6968 23.2255 38.7698C23.1505 38.8428 23.0614 38.9007 22.9634 38.9402C22.8653 38.9797 22.7603 39 22.6541 39C22.548 39 22.4429 38.9797 22.3449 38.9402C22.2469 38.9007 22.1578 38.8428 22.0827 38.7698L17.2369 34.0559C17.1618 33.983 17.1022 33.8963 17.0616 33.8009C17.0209 33.7056 17 33.6033 17 33.5001C17 33.3968 17.0209 33.2946 17.0616 33.1992C17.1022 33.1039 17.1618 33.0172 17.2369 32.9443L22.0827 28.2304C22.1577 28.1574 22.2468 28.0994 22.3449 28.0599C22.4429 28.0203 22.548 28 22.6541 28C22.7603 28 22.8654 28.0203 22.9634 28.0599Z" fill="#3595E3"/>
<path d="M26.2537 38.0738C26.0762 38.448 25.6289 38.6075 25.2546 38.43C24.8804 38.2525 24.7209 37.8053 24.8984 37.431L29.1036 28.5642C29.2811 28.1899 29.7284 28.0304 30.1026 28.2079C30.4769 28.3854 30.6364 28.8327 30.4589 29.2069L26.2537 38.0738Z" fill="#3595E3"/>
</svg>
