<svg width="56" height="56" viewBox="0 0 56 56" fill="none" xmlns="http://www.w3.org/2000/svg">
<path d="M46.1191 18.6309L33.8691 6.38094C33.7877 6.29971 33.6912 6.2353 33.585 6.19138C33.4788 6.14747 33.3649 6.12491 33.25 6.125H12.25C11.5538 6.125 10.8861 6.40156 10.3938 6.89385C9.90156 7.38613 9.625 8.05381 9.625 8.75V47.25C9.625 47.9462 9.90156 48.6139 10.3938 49.1062C10.8861 49.5984 11.5538 49.875 12.25 49.875H43.75C44.4462 49.875 45.1139 49.5984 45.6062 49.1062C46.0984 48.6139 46.375 47.9462 46.375 47.25V19.25C46.3751 19.1351 46.3525 19.0212 46.3086 18.915C46.2647 18.8088 46.2003 18.7123 46.1191 18.6309ZM34.125 9.11094L43.3869 18.375H34.125V9.11094ZM43.75 48.125H12.25C12.0179 48.125 11.7954 48.0328 11.6313 47.8687C11.4672 47.7046 11.375 47.4821 11.375 47.25V8.75C11.375 8.51794 11.4672 8.29538 11.6313 8.13128C11.7954 7.96719 12.0179 7.875 12.25 7.875H32.375V19.25C32.375 19.4821 32.4672 19.7046 32.6313 19.8687C32.7954 20.0328 33.0179 20.125 33.25 20.125H44.625V47.25C44.625 47.4821 44.5328 47.7046 44.3687 47.8687C44.2046 48.0328 43.9821 48.125 43.75 48.125Z" fill="#54697A"/>
<path d="M27.5066 22C22.8128 22 19 25.8128 19 30.5066C19 35.2003 22.8128 39 27.5066 39C32.2003 39 36 35.2003 36 30.5066C36 25.8128 32.1872 22.0131 27.5066 22ZM31.0828 30.7695C31.017 30.8879 30.925 30.9799 30.8067 31.0456L25.9551 33.478C25.6527 33.6226 25.2846 33.5043 25.14 33.2019C25.0874 33.123 25.0742 33.0309 25.0742 32.9258V28.0742C25.0742 27.7324 25.3503 27.4695 25.679 27.4695C25.7711 27.4695 25.8631 27.4826 25.9551 27.5352L30.8067 29.9544C31.109 30.1121 31.2274 30.4671 31.0828 30.7695Z" fill="url(#paint0_linear_3571_21855)"/>
<defs>
<linearGradient id="paint0_linear_3571_21855" x1="34.7898" y1="23.0619" x2="36" y2="53" gradientUnits="userSpaceOnUse">
<stop stop-color="#DCABFF"/>
<stop offset="1" stop-color="#9900CC"/>
</linearGradient>
</defs>
</svg>
