<svg width="56" height="56" viewBox="0 0 56 56" fill="none" xmlns="http://www.w3.org/2000/svg">
<path d="M7 10.5H21.3182L28 17.5H7V10.5Z" fill="url(#paint0_linear_3554_21667)"/>
<path fill-rule="evenodd" clip-rule="evenodd" d="M20.2764 9.62501C20.6209 9.62417 20.962 9.69217 21.2803 9.82423C21.5987 9.95641 21.8881 10.1507 22.1309 10.3955L28.3633 16.625H47.25C47.9462 16.625 48.6142 16.9013 49.1064 17.3936C49.5987 17.8858 49.875 18.5538 49.875 19.25V43.9443C49.8744 44.5887 49.6177 45.2065 49.1621 45.6621C48.7065 46.1178 48.0887 46.3744 47.4443 46.375H8.61426C7.95443 46.3738 7.32204 46.1111 6.85547 45.6445C6.3889 45.178 6.12618 44.5456 6.125 43.8857V12.25C6.12501 11.5538 6.40128 10.8858 6.89355 10.3936C7.38584 9.90129 8.05381 9.62501 8.75 9.62501H20.2764ZM8.75 11.375C8.51794 11.375 8.29495 11.4668 8.13086 11.6309C7.96677 11.795 7.87501 12.018 7.875 12.25V16.625H25.8867L20.8926 11.6309C20.729 11.4676 20.5075 11.3755 20.2764 11.375H8.75Z" fill="#FFB11F"/>
<path d="M31.4302 33.6951L27.5581 33.6951C27.1395 33.6951 26.8081 34.0094 26.8081 34.4063L26.8081 36.3913C26.8081 36.7883 27.1395 37.1026 27.5581 37.1026L31.4302 37.1026L34.8488 38.2109C35.8081 38.5251 36.8721 38.3763 37.6919 37.8139C38.5116 37.268 39 36.3582 39 35.3988C39 34.4394 38.5116 33.5462 37.6919 32.9838C36.8721 32.4214 35.8081 32.2725 34.8488 32.5868L31.4302 33.6951ZM36.8023 34.1582C37.657 34.7206 37.657 36.077 36.8023 36.656C36.3837 36.9372 35.8256 37.0199 35.3372 36.8545L34.186 36.4906L34.186 34.3236L35.3372 33.9432C35.8256 33.7943 36.3837 33.8605 36.8023 34.1582ZM6.01744 39.7988L8.14535 39.7988C8.56395 39.7988 8.89535 39.4845 8.89535 39.0876L8.89535 36.3913L12.0698 36.3913L12.0698 39.0876C12.0698 39.4845 12.4012 39.7988 12.8198 39.7988L14.4593 39.7988C14.8779 39.7988 15.2267 39.4845 15.2267 39.0875L15.2267 36.3913L18.3837 36.3913L18.3837 39.0875C18.3837 39.4845 18.7151 39.7988 19.1337 39.7988L20.7907 39.7988C21.2093 39.7988 21.5407 39.4845 21.5407 39.0875L21.5407 36.3913L23.9477 36.3913C24.3663 36.3913 24.6977 36.0605 24.6977 35.6635L24.6977 31.7101C24.6977 31.3297 24.3663 30.9988 23.9477 30.9988L22.2907 30.9988C21.8895 30.9988 21.5407 31.3297 21.5407 31.7101L21.5407 34.4229L18.3837 34.4229L18.3837 31.7101C18.3837 31.3297 18.0523 30.9988 17.6337 30.9988L15.9767 30.9988C15.5581 30.9988 15.2267 31.3297 15.2267 31.7101L15.2267 34.4229L12.0698 34.4229L12.0698 31.7101C12.0698 31.3297 11.7209 30.9988 11.3023 30.9988L9.66279 30.9988C9.24419 30.9988 8.89535 31.3297 8.89535 31.7101L8.89535 34.4229L6 34.4229L6.01744 39.7988Z" fill="#C27400"/>
<defs>
<linearGradient id="paint0_linear_3554_21667" x1="17.4998" y1="13.6938" x2="17.4998" y2="16.9726" gradientUnits="userSpaceOnUse">
<stop stop-color="#FF9933"/>
<stop offset="1" stop-color="#FF8B22"/>
</linearGradient>
</defs>
</svg>
