<svg width="56" height="56" viewBox="0 0 56 56" fill="none" xmlns="http://www.w3.org/2000/svg">
<path d="M7 10.5H21.3182L28 17.5H7V10.5Z" fill="url(#paint0_linear_3554_21653)"/>
<path fill-rule="evenodd" clip-rule="evenodd" d="M20.2764 9.62501C20.6209 9.62417 20.962 9.69217 21.2803 9.82423C21.5987 9.95641 21.8881 10.1507 22.1309 10.3955L28.3633 16.625H47.25C47.9462 16.625 48.6142 16.9013 49.1064 17.3936C49.5987 17.8858 49.875 18.5538 49.875 19.25V43.9443C49.8744 44.5887 49.6177 45.2065 49.1621 45.6621C48.7065 46.1178 48.0887 46.3744 47.4443 46.375H8.61426C7.95443 46.3738 7.32204 46.1111 6.85547 45.6445C6.3889 45.178 6.12618 44.5456 6.125 43.8857V12.25C6.12501 11.5538 6.40128 10.8858 6.89355 10.3936C7.38584 9.90129 8.05381 9.62501 8.75 9.62501H20.2764ZM8.75 11.375C8.51794 11.375 8.29495 11.4668 8.13086 11.6309C7.96677 11.795 7.87501 12.018 7.875 12.25V16.625H25.8867L20.8926 11.6309C20.729 11.4676 20.5075 11.3755 20.2764 11.375H8.75Z" fill="#FFB11F"/>
<defs>
<linearGradient id="paint0_linear_3554_21653" x1="17.4998" y1="13.6938" x2="17.4998" y2="16.9726" gradientUnits="userSpaceOnUse">
<stop stop-color="#FF9933"/>
<stop offset="1" stop-color="#FF8B22"/>
</linearGradient>
</defs>
</svg>
