<svg width="24" height="24" viewBox="0 0 24 24" fill="none" xmlns="http://www.w3.org/2000/svg">
<path d="M13.695 1.48201H3.48201V21.7264H19.8703V6.98049L13.695 1.48201Z" fill="white"/>
<path fill-rule="evenodd" clip-rule="evenodd" d="M14.3875 1C14.4429 0.999957 14.4977 1.01084 14.5489 1.03201C14.6001 1.05318 14.6467 1.08417 14.6859 1.12333L20.5905 7.02795C20.6297 7.06715 20.6607 7.11373 20.6819 7.16493C20.703 7.21612 20.7139 7.27098 20.7139 7.32638V20.8227C20.7139 21.1582 20.5807 21.4802 20.3434 21.7175C20.1061 21.9548 19.7842 22.0879 19.4486 22.0879H4.26528C3.9297 22.0879 3.60774 21.9548 3.37045 21.7175C3.13317 21.4802 3 21.1582 3 20.8227V2.26528C3 1.9297 3.13317 1.60774 3.37045 1.37045C3.60774 1.13317 3.9297 1 4.26528 1H14.3875ZM4.26528 1.84352C4.15342 1.84352 4.04594 1.88775 3.96684 1.96684C3.88775 2.04594 3.84352 2.15342 3.84352 2.26528V20.8227C3.84352 20.9345 3.88775 21.042 3.96684 21.1211C4.04594 21.2002 4.15342 21.2444 4.26528 21.2444H19.4486C19.5604 21.2444 19.6679 21.2002 19.747 21.1211C19.8261 21.042 19.8703 20.9345 19.8703 20.8227V7.74814H14.3875C14.2756 7.74814 14.1681 7.70391 14.0891 7.62481C14.01 7.54572 13.9657 7.43824 13.9657 7.32638V1.84352H4.26528Z" fill="#664EFF"/>
<path d="M12.035 18.9738H17.5348C17.6441 18.9738 17.7489 19.0171 17.8263 19.0943C17.9037 19.1715 17.9473 19.2762 17.9476 19.3855C17.9476 19.495 17.9042 19.6 17.8268 19.6775C17.7492 19.7549 17.6443 19.7984 17.5348 19.7984H12.035C11.9808 19.7984 11.9272 19.7877 11.8772 19.7669C11.8271 19.7462 11.7817 19.7158 11.7434 19.6774C11.7052 19.6391 11.6749 19.5935 11.6543 19.5434C11.6336 19.4934 11.6231 19.4397 11.6232 19.3855C11.6232 19.2763 11.6666 19.1716 11.7438 19.0944C11.8211 19.0172 11.9258 18.9738 12.035 18.9738Z" fill="#664EFF"/>
<path d="M6.16842 16.5109H17.5348C17.6441 16.5109 17.7489 16.5543 17.8263 16.6315C17.9037 16.7086 17.9473 16.8133 17.9476 16.9227C17.9476 17.0321 17.9042 17.1371 17.8268 17.2146C17.7492 17.292 17.6443 17.3355 17.5348 17.3355H6.16842C6.11426 17.3355 6.06062 17.3248 6.01059 17.3041C5.96056 17.2833 5.91513 17.2529 5.87688 17.2145C5.83863 17.1762 5.80832 17.1306 5.7877 17.0805C5.76707 17.0305 5.75652 16.9768 5.75666 16.9227C5.75666 16.8135 5.80005 16.7088 5.87727 16.6315C5.95449 16.5543 6.05922 16.5109 6.16842 16.5109Z" fill="#664EFF"/>
<path d="M6.16842 14.0481H17.5348C17.6443 14.0481 17.7492 14.0915 17.8268 14.1689C17.9042 14.2464 17.9476 14.3514 17.9476 14.4609C17.9473 14.5702 17.9037 14.6749 17.8263 14.7521C17.7489 14.8293 17.6441 14.8727 17.5348 14.8727H6.16842C6.05922 14.8727 5.95449 14.8293 5.87727 14.7521C5.80005 14.6748 5.75666 14.5701 5.75666 14.4609C5.75652 14.4067 5.76707 14.3531 5.7877 14.303C5.80832 14.2529 5.83863 14.2074 5.87688 14.169C5.91513 14.1307 5.96056 14.1002 6.01059 14.0795C6.06062 14.0587 6.11426 14.0481 6.16842 14.0481Z" fill="#664EFF"/>
<path d="M6.16842 11.5852H13.0495C13.1036 11.5852 13.1573 11.5959 13.2073 11.6167C13.2573 11.6374 13.3028 11.6679 13.341 11.7062C13.3792 11.7445 13.4096 11.7901 13.4302 11.8402C13.4508 11.8902 13.4614 11.9439 13.4612 11.9981C13.4612 12.1073 13.4178 12.212 13.3406 12.2893C13.2634 12.3664 13.1587 12.4098 13.0495 12.4098H6.16842C6.05922 12.4098 5.95449 12.3664 5.87727 12.2893C5.80005 12.212 5.75666 12.1073 5.75666 11.9981C5.75652 11.9439 5.76707 11.8902 5.7877 11.8402C5.80832 11.7901 5.83863 11.7445 5.87688 11.7062C5.91513 11.6679 5.96056 11.6374 6.01059 11.6167C6.06062 11.5959 6.11426 11.5852 6.16842 11.5852Z" fill="#664EFF"/>
<path d="M15.4284 12.508H14.6526L15.6603 9.52137H16.6213L17.629 12.508H16.8532L16.1517 10.2739H16.1284L15.4284 12.508ZM15.3249 11.3326H16.9465V11.8809H15.3249V11.3326Z" fill="#664EFF"/>
</svg>
