<svg width="24" height="24" viewBox="0 0 24 24" fill="none" xmlns="http://www.w3.org/2000/svg">
<path d="M13.8764 1.42178H3.6628V21.6673H20.052V6.92057L13.8764 1.42178Z" fill="white"/>
<path fill-rule="evenodd" clip-rule="evenodd" d="M13.8377 17.8713C14.3145 17.1579 14.5689 16.3191 14.5689 15.4611H10.2305V11.1228C9.37251 11.1228 8.53375 11.3772 7.8203 11.8539C7.10686 12.3306 6.55081 13.0082 6.22247 13.8009C5.8941 14.5936 5.80818 15.4659 5.97558 16.3075C6.14297 17.149 6.55615 17.922 7.16288 18.5288C7.76962 19.1355 8.54263 19.5487 9.38417 19.7161C10.2257 19.8835 11.098 19.7975 11.8908 19.4692C12.6835 19.1408 13.361 18.5848 13.8377 17.8713Z" fill="#FF6700"/>
<path d="M17.4611 14.015C17.4611 13.2554 17.3115 12.5032 17.0208 11.8014C16.7301 11.0996 16.304 10.4619 15.7669 9.92476C15.2298 9.38762 14.5921 8.96155 13.8903 8.67088C13.1885 8.38017 12.4363 8.23055 11.6767 8.23055V14.015H17.4611Z" fill="#FFD7BB"/>
<path d="M14.3881 1C14.4435 0.999957 14.4984 1.01084 14.5496 1.03201C14.6008 1.05318 14.6474 1.08418 14.6866 1.12333L20.5915 7.02828C20.6307 7.06748 20.6617 7.11406 20.6828 7.16527C20.704 7.21647 20.7149 7.27133 20.7148 7.32673V20.8238C20.7148 21.1593 20.5817 21.4813 20.3444 21.7186C20.1071 21.9559 19.7851 22.0891 19.4495 22.0891H4.26535C3.92976 22.0891 3.60777 21.9559 3.37047 21.7186C3.13317 21.4813 3 21.1593 3 20.8238V2.26535C3 1.92976 3.13317 1.60777 3.37047 1.37047C3.60777 1.13317 3.92976 1 4.26535 1H14.3881ZM4.26535 1.84356C4.15348 1.84356 4.046 1.8878 3.9669 1.9669C3.8878 2.046 3.84356 2.15348 3.84356 2.26535V20.8238C3.84356 20.9356 3.8878 21.0431 3.9669 21.1222C4.046 21.2013 4.15348 21.2455 4.26535 21.2455H19.4495C19.5614 21.2455 19.6688 21.2013 19.7479 21.1222C19.827 21.0431 19.8713 20.9356 19.8713 20.8238V7.74851H14.3881C14.2762 7.74851 14.1688 7.70428 14.0897 7.62518C14.0106 7.54608 13.9663 7.43859 13.9663 7.32673V1.84356H4.26535Z" fill="#FF6700"/>
</svg>
