<svg width="56" height="56" viewBox="0 0 56 56" fill="none" xmlns="http://www.w3.org/2000/svg">
<path d="M46.1191 18.6309L33.8691 6.38094C33.7877 6.29971 33.6912 6.2353 33.585 6.19138C33.4788 6.14747 33.3649 6.12491 33.25 6.125H12.25C11.5538 6.125 10.8861 6.40156 10.3938 6.89385C9.90156 7.38613 9.625 8.05381 9.625 8.75V47.25C9.625 47.9462 9.90156 48.6139 10.3938 49.1062C10.8861 49.5984 11.5538 49.875 12.25 49.875H43.75C44.4462 49.875 45.1139 49.5984 45.6062 49.1062C46.0984 48.6139 46.375 47.9462 46.375 47.25V19.25C46.3751 19.1351 46.3525 19.0212 46.3086 18.915C46.2647 18.8088 46.2003 18.7123 46.1191 18.6309ZM34.125 9.11094L43.3869 18.375H34.125V9.11094ZM43.75 48.125H12.25C12.0179 48.125 11.7954 48.0328 11.6313 47.8687C11.4672 47.7046 11.375 47.4821 11.375 47.25V8.75C11.375 8.51794 11.4672 8.29538 11.6313 8.13128C11.7954 7.96719 12.0179 7.875 12.25 7.875H32.375V19.25C32.375 19.4821 32.4672 19.7046 32.6313 19.8687C32.7954 20.0328 33.0179 20.125 33.25 20.125H44.625V47.25C44.625 47.4821 44.5328 47.7046 44.3687 47.8687C44.2046 48.0328 43.9821 48.125 43.75 48.125Z" fill="#54697A"/>
<path fill-rule="evenodd" clip-rule="evenodd" d="M4.4308 17H28.5692C28.9625 17 29.3204 17.1821 29.5801 17.4754C29.8392 17.768 30 18.1703 30 18.6116V26.3883C30 26.8297 29.8392 27.232 29.5801 27.5246C29.3204 27.8179 28.9625 28 28.5692 28H4.4308C4.03753 28 3.6796 27.8179 3.41985 27.5246C3.16082 27.2321 3 26.8298 3 26.3883V18.6116C3 18.1703 3.16082 17.768 3.41985 17.4754C3.67957 17.1821 4.03749 17 4.4308 17Z" fill="#F36FA0"/>
<path d="M11.7673 23.5833L13.1477 24.0204C12.9358 24.7911 12.5841 25.363 12.0911 25.7377C11.5997 26.1107 10.9736 26.2981 10.216 26.2981C9.27933 26.2981 8.50861 25.9776 7.90549 25.3384C7.30237 24.6975 7 23.8215 7 22.7123C7 21.5373 7.30402 20.6253 7.91042 19.9745C8.51679 19.3254 9.31382 19 10.3031 19C11.1659 19 11.8676 19.2547 12.4066 19.7658C12.7287 20.0665 12.9686 20.5004 13.1297 21.0657L11.7181 21.4026C11.6359 21.0361 11.4617 20.7469 11.1955 20.5349C10.9309 20.3229 10.6088 20.2177 10.2308 20.2177C9.70824 20.2177 9.2826 20.4051 8.95722 20.7814C8.63184 21.1561 8.46915 21.7641 8.46915 22.6055C8.46915 23.4978 8.62855 24.1338 8.95065 24.5118C9.27111 24.8914 9.68852 25.0804 10.2012 25.0804C10.5809 25.0804 10.9062 24.9604 11.179 24.7188C11.4518 24.4789 11.6474 24.0993 11.7673 23.5833ZM14.0105 23.8824L15.3975 23.746C15.4797 24.2127 15.6489 24.5545 15.9053 24.7731C16.16 24.99 16.5035 25.1001 16.9373 25.1001C17.3958 25.1001 17.7425 25.0031 17.9742 24.8076C18.2076 24.6137 18.3243 24.3869 18.3243 24.1272C18.3243 23.9596 18.275 23.8183 18.1764 23.7016C18.0794 23.5833 17.9085 23.4814 17.6637 23.3959C17.4977 23.3368 17.1164 23.2349 16.5232 23.087C15.759 22.898 15.2233 22.6646 14.916 22.3886C14.4821 22.0008 14.2652 21.5275 14.2652 20.9687C14.2652 20.6088 14.3671 20.2736 14.5709 19.9597C14.7747 19.6475 15.0688 19.4092 15.4517 19.2449C15.8363 19.0822 16.2981 19 16.8403 19C17.7277 19 18.3933 19.1939 18.8419 19.5817C19.2889 19.9712 19.5239 20.4889 19.5469 21.138L18.1221 21.2004C18.0613 20.8373 17.9299 20.576 17.7294 20.4182C17.5289 20.2588 17.2282 20.1799 16.8272 20.1799C16.4131 20.1799 16.0877 20.2637 15.8543 20.4347C15.7032 20.5431 15.6276 20.6894 15.6276 20.8718C15.6276 21.0394 15.6982 21.1823 15.8395 21.3007C16.0187 21.4519 16.4558 21.6096 17.1493 21.7723C17.8428 21.9366 18.3555 22.1059 18.6875 22.2801C19.0194 22.456 19.2791 22.6942 19.468 22.9983C19.6554 23.3023 19.7491 23.677 19.7491 24.1223C19.7491 24.5266 19.6373 24.9062 19.4122 25.2578C19.187 25.6111 18.8699 25.8741 18.459 26.045C18.0482 26.2176 17.5355 26.303 16.9225 26.303C16.0302 26.303 15.3449 26.0976 14.8667 25.6851C14.3885 25.2726 14.1025 24.6712 14.0105 23.8824ZM22.7482 26.1781L20.2256 19.12H21.772L23.5567 24.3442L25.2855 19.12H26.7974L24.2699 26.1781H22.7482Z" fill="white"/>
<path d="M21.0008 35V33.4C21.0008 33.1791 20.8218 33 20.6008 33H15.4C15.1791 33 15 33.1791 15 33.4V35V36V37V38V39V40V41V42V43.6C15 43.8209 15.1791 44 15.4 44H20.0008H21.0008H31.1021C31.323 44 31.5021 43.8209 31.5021 43.6V42.0008V41.0008V40.0008V39.0008V38.0008V37.0008V35.4008C31.5021 35.1799 31.323 35.0008 31.1021 35.0008H21.0017C21.0012 35.0008 21.0008 35.0005 21.0008 35ZM16.0008 34H19.6008C19.8218 34 20.0008 34.1791 20.0008 34.4V34.6C20.0008 34.8209 19.8218 35 19.6008 35H16.4C16.1791 35 16 34.8209 16 34.6V34.0008C16 34.0004 16.0004 34 16.0008 34ZM16.0008 36.0008H19.6008C19.8218 36.0008 20.0008 36.1799 20.0008 36.4008V36.6008C20.0008 36.8218 19.8218 37.0008 19.6008 37.0008H16.4C16.1791 37.0008 16 36.8218 16 36.6008V36.0017C16 36.0012 16.0004 36.0008 16.0008 36.0008ZM16.0008 38.0008H19.6008C19.8218 38.0008 20.0008 38.1799 20.0008 38.4008V38.6008C20.0008 38.8218 19.8218 39.0008 19.6008 39.0008H16.4C16.1791 39.0008 16 38.8218 16 38.6008V38.0017C16 38.0012 16.0004 38.0008 16.0008 38.0008ZM16.0008 40.0008H19.6008C19.8218 40.0008 20.0008 40.1799 20.0008 40.4008V40.6008C20.0008 40.8218 19.8218 41.0008 19.6008 41.0008H16.4C16.1791 41.0008 16 40.8218 16 40.6008V40.0017C16 40.0012 16.0004 40.0008 16.0008 40.0008ZM20.0008 42.6017C20.0008 42.8226 19.8218 43.0017 19.6008 43.0017H16.4C16.1791 43.0017 16 42.8226 16 42.6017V42.4008C16 42.1799 16.1791 42.0008 16.4 42.0008H19.6008C19.8218 42.0008 20.0008 42.1799 20.0008 42.4008V42.6017ZM30.5021 42.6017C30.5021 42.8226 30.323 43.0017 30.1021 43.0017H21.4008C21.1799 43.0017 21.0008 42.8226 21.0008 42.6017V42.4008C21.0008 42.1799 21.1799 42.0008 21.4008 42.0008H30.1021C30.323 42.0008 30.5021 42.1799 30.5021 42.4008V42.6017ZM30.5021 40.6008C30.5021 40.8218 30.323 41.0008 30.1021 41.0008H21.4008C21.1799 41.0008 21.0008 40.8218 21.0008 40.6008V40.4008C21.0008 40.1799 21.1799 40.0008 21.4008 40.0008H30.1021C30.323 40.0008 30.5021 40.1799 30.5021 40.4008V40.6008ZM30.5021 38.6008C30.5021 38.8218 30.323 39.0008 30.1021 39.0008H21.4008C21.1799 39.0008 21.0008 38.8218 21.0008 38.6008V38.4008C21.0008 38.1799 21.1799 38.0008 21.4008 38.0008H30.1021C30.323 38.0008 30.5021 38.1799 30.5021 38.4008V38.6008ZM21.4008 37.0008C21.1799 37.0008 21.0008 36.8218 21.0008 36.6008V36.4008C21.0008 36.1799 21.1799 36.0008 21.4008 36.0008H30.1021C30.323 36.0008 30.5021 36.1799 30.5021 36.4008V36.6008C30.5021 36.8218 30.323 37.0008 30.1021 37.0008H21.4008Z" fill="#F36FA0"/>
</svg>
