<svg width="24" height="24" viewBox="0 0 24 24" fill="none" xmlns="http://www.w3.org/2000/svg">
<path d="M8.68945 4.125C8.83718 4.12462 8.98367 4.15432 9.12012 4.21094C9.25644 4.26753 9.38039 4.35033 9.48438 4.45508L12.1553 7.125H20.25C20.5484 7.125 20.8349 7.2441 21.0459 7.45508C21.2566 7.66594 21.3749 7.9519 21.375 8.25V18.834C21.3747 19.1101 21.2646 19.3751 21.0693 19.5703C20.8742 19.7653 20.6098 19.8746 20.334 19.875H3.69238C3.40971 19.8745 3.13842 19.7623 2.93848 19.5625C2.73853 19.3626 2.62552 19.0914 2.625 18.8086V5.25C2.6251 4.95193 2.74342 4.66594 2.9541 4.45508C3.16507 4.24412 3.45165 4.12502 3.75 4.125H8.68945Z" fill="#F2F3F4" stroke="#70787C" stroke-width="0.9"/>
<path d="M12 10.3L15.2 13.5H13.2V16.8H10.8V13.5H8.8L12 10.3Z" fill="#70787C"/>
</svg>
