<svg width="56" height="56" viewBox="0 0 56 56" fill="none" xmlns="http://www.w3.org/2000/svg">
<path d="M46.1191 18.6309L33.8691 6.38094C33.7877 6.29971 33.6912 6.2353 33.585 6.19138C33.4788 6.14747 33.3649 6.12491 33.25 6.125H12.25C11.5538 6.125 10.8861 6.40156 10.3938 6.89385C9.90156 7.38613 9.625 8.05381 9.625 8.75V47.25C9.625 47.9462 9.90156 48.6139 10.3938 49.1062C10.8861 49.5984 11.5538 49.875 12.25 49.875H43.75C44.4462 49.875 45.1139 49.5984 45.6062 49.1062C46.0984 48.6139 46.375 47.9462 46.375 47.25V19.25C46.3751 19.1351 46.3525 19.0212 46.3086 18.915C46.2647 18.8088 46.2003 18.7123 46.1191 18.6309ZM34.125 9.11094L43.3869 18.375H34.125V9.11094ZM43.75 48.125H12.25C12.0179 48.125 11.7954 48.0328 11.6313 47.8687C11.4672 47.7046 11.375 47.4821 11.375 47.25V8.75C11.375 8.51794 11.4672 8.29538 11.6313 8.13128C11.7954 7.96719 12.0179 7.875 12.25 7.875H32.375V19.25C32.375 19.4821 32.4672 19.7046 32.6313 19.8687C32.7954 20.0328 33.0179 20.125 33.25 20.125H44.625V47.25C44.625 47.4821 44.5328 47.7046 44.3687 47.8687C44.2046 48.0328 43.9821 48.125 43.75 48.125Z" fill="#54697A"/>
<path fill-rule="evenodd" clip-rule="evenodd" d="M20.9717 24H35.6014C36.6968 24 37.5974 24.9007 37.5974 25.9961V35.2948C37.5974 36.3902 36.6968 37.2908 35.6014 37.2908H20.9717C19.8763 37.2908 19 36.3902 19 35.2948V25.9961C19 24.9007 19.8763 24 20.9717 24ZM31.6092 26.5072C30.4165 26.5072 29.4671 27.4809 29.4671 28.6494C29.4671 29.8421 30.4165 30.8158 31.6092 30.8158C32.802 30.8158 33.7757 29.8421 33.7757 28.6494C33.7757 27.4809 32.802 26.5072 31.6092 26.5072ZM20.3145 35.2948C20.3145 35.6599 20.6066 35.9763 20.9717 35.9763H35.6014C35.9665 35.9763 36.2586 35.6599 36.2586 35.2948V34.9053L33.6053 32.252L31.4145 34.4428C31.1467 34.7106 30.7329 34.7106 30.4652 34.4428L24.9638 28.9415L20.3145 33.5908V35.2948Z" fill="url(#paint0_linear_3571_21894)"/>
<defs>
<linearGradient id="paint0_linear_3571_21894" x1="20.3239" y1="24.8302" x2="19.6472" y2="48.2549" gradientUnits="userSpaceOnUse">
<stop stop-color="#0AC963"/>
<stop offset="1" stop-color="#A0FFCC"/>
</linearGradient>
</defs>
</svg>
