<svg width="56" height="56" viewBox="0 0 56 56" fill="none" xmlns="http://www.w3.org/2000/svg">
<path d="M46.1191 18.6309L33.8691 6.38094C33.7877 6.29971 33.6912 6.2353 33.585 6.19138C33.4788 6.14747 33.3649 6.12491 33.25 6.125H12.25C11.5538 6.125 10.8861 6.40156 10.3938 6.89385C9.90156 7.38613 9.625 8.05381 9.625 8.75V47.25C9.625 47.9462 9.90156 48.6139 10.3938 49.1062C10.8861 49.5984 11.5538 49.875 12.25 49.875H43.75C44.4462 49.875 45.1139 49.5984 45.6062 49.1062C46.0984 48.6139 46.375 47.9462 46.375 47.25V19.25C46.3751 19.1351 46.3525 19.0212 46.3086 18.915C46.2647 18.8088 46.2003 18.7123 46.1191 18.6309ZM34.125 9.11094L43.3869 18.375H34.125V9.11094ZM43.75 48.125H12.25C12.0179 48.125 11.7954 48.0328 11.6313 47.8687C11.4672 47.7046 11.375 47.4821 11.375 47.25V8.75C11.375 8.51794 11.4672 8.29538 11.6313 8.13128C11.7954 7.96719 12.0179 7.875 12.25 7.875H32.375V19.25C32.375 19.4821 32.4672 19.7046 32.6313 19.8687C32.7954 20.0328 33.0179 20.125 33.25 20.125H44.625V47.25C44.625 47.4821 44.5328 47.7046 44.3687 47.8687C44.2046 48.0328 43.9821 48.125 43.75 48.125Z" fill="#54697A"/>
<path fill-rule="evenodd" clip-rule="evenodd" d="M27.0239 25.5891C27.1129 25.2429 27.4329 25 27.8 25H34.2C34.6418 25 35 25.3482 35 25.7778C35 26.2073 34.6418 26.5556 34.2 26.5556H28.4246L25.3761 38.4108C25.2949 38.7266 25.0201 38.9599 24.6873 38.9953C24.3545 39.0309 24.0342 38.8612 23.8845 38.57L20.9056 32.7778H19.8C19.3582 32.7778 19 32.4296 19 32C19 31.5704 19.3582 31.2222 19.8 31.2222H21.4C21.703 31.2222 21.98 31.3887 22.1155 31.6522L24.3484 35.9938L27.0239 25.5891Z" fill="#20434F"/>
<path d="M31.808 31.5367C31.7495 31.5132 31.6598 31.5002 31.0587 31.5002C30.6446 31.5002 30.3087 31.1643 30.3087 30.7502C30.3087 30.336 30.6446 30.0003 31.0587 30.0003L31.1592 30.0001C31.5916 29.9993 32.0017 29.9984 32.3662 30.1446C32.5723 30.2272 32.764 30.3444 32.9308 30.4932C33.2346 30.7644 33.3944 31.1402 33.5469 31.4985L33.5473 31.4994C33.7129 31.2939 33.8854 31.0969 34.0645 30.9199C34.5499 30.4402 35.1887 30.0003 35.9995 30.0003C36.4137 30.0003 36.7494 30.336 36.7494 30.7502C36.7494 31.1643 36.4137 31.5002 35.9995 31.5002C35.7657 31.5002 35.4872 31.6226 35.1188 31.9866C34.8242 32.2778 34.5385 32.6559 34.2293 33.0899L34.5439 33.8235C34.6448 34.0586 34.7031 34.193 34.7549 34.2905C34.7783 34.3345 34.7941 34.3585 34.8036 34.3716C34.812 34.383 34.816 34.3866 34.8174 34.3879C34.8496 34.4167 34.8912 34.4431 34.9414 34.4633C35 34.4868 35.0896 34.4999 35.6907 34.4999C36.1049 34.4999 36.4406 34.8357 36.4406 35.2498C36.4406 35.664 36.1049 35.9998 35.6907 35.9998L35.5902 35.9999C35.1578 36.0008 34.7477 36.0016 34.3832 35.8554C34.1772 35.7728 33.9853 35.6556 33.8186 35.5068C33.5148 35.2356 33.3549 34.8598 33.2025 34.5015L33.2022 34.5006C33.0365 34.7061 32.8641 34.9031 32.6849 35.0801C32.1995 35.5598 31.5607 35.9998 30.7499 35.9998C30.3357 35.9998 30 35.664 30 35.2498C30 34.8357 30.3357 34.4999 30.7499 34.4999C30.9837 34.4999 31.2622 34.3774 31.6306 34.0134C31.9252 33.7222 32.2109 33.3441 32.5202 32.9101L32.2055 32.1765C32.1046 31.9413 32.0464 31.807 31.9945 31.7095C31.9711 31.6655 31.9554 31.6414 31.9458 31.6284C31.9375 31.617 31.9333 31.6134 31.932 31.6121C31.8997 31.5834 31.8582 31.5569 31.808 31.5367Z" fill="#20434F"/>
</svg>
