<svg width="24" height="24" viewBox="0 0 24 24" fill="none" xmlns="http://www.w3.org/2000/svg">
<path d="M2 4.22222C2 2.99492 2.99492 2 4.22222 2H19.7778C21.0051 2 22 2.99492 22 4.22222V19.7778C22 21.0051 21.0051 22 19.7778 22H4.22222C2.99492 22 2 21.0051 2 19.7778V4.22222Z" fill="#CD89FF"/>
<path d="M3.11111 4.77778C3.11111 4.47095 3.35984 4.22222 3.66667 4.22222H4.77778C5.0846 4.22222 5.33333 4.47095 5.33333 4.77778V5.88889C5.33333 6.19571 5.0846 6.44444 4.77778 6.44444H3.66667C3.35984 6.44444 3.11111 6.19571 3.11111 5.88889V4.77778Z" fill="#E2C6F7"/>
<path d="M3.11111 7.55556C3.11111 7.24873 3.35984 7 3.66667 7H4.77778C5.0846 7 5.33333 7.24873 5.33333 7.55556V8.66667C5.33333 8.97349 5.0846 9.22222 4.77778 9.22222H3.66667C3.35984 9.22222 3.11111 8.97349 3.11111 8.66667V7.55556Z" fill="#E2C6F7"/>
<path d="M3.11111 10.3333C3.11111 10.0265 3.35984 9.77778 3.66667 9.77778H4.77778C5.0846 9.77778 5.33333 10.0265 5.33333 10.3333V11.4444C5.33333 11.7513 5.0846 12 4.77778 12H3.66667C3.35984 12 3.11111 11.7513 3.11111 11.4444V10.3333Z" fill="#E2C6F7"/>
<path d="M3.11111 13.1111C3.11111 12.8043 3.35984 12.5556 3.66667 12.5556H4.77778C5.0846 12.5556 5.33333 12.8043 5.33333 13.1111V14.2222C5.33333 14.529 5.0846 14.7778 4.77778 14.7778H3.66667C3.35984 14.7778 3.11111 14.529 3.11111 14.2222V13.1111Z" fill="#E2C6F7"/>
<path d="M3.11111 15.8889C3.11111 15.5821 3.35984 15.3333 3.66667 15.3333H4.77778C5.0846 15.3333 5.33333 15.5821 5.33333 15.8889V17C5.33333 17.3068 5.0846 17.5556 4.77778 17.5556H3.66667C3.35984 17.5556 3.11111 17.3068 3.11111 17V15.8889Z" fill="#E2C6F7"/>
<path d="M3.11111 18.6667C3.11111 18.3598 3.35984 18.1111 3.66667 18.1111H4.77778C5.0846 18.1111 5.33333 18.3598 5.33333 18.6667V19.7778C5.33333 20.0846 5.0846 20.3333 4.77778 20.3333H3.66667C3.35984 20.3333 3.11111 20.0846 3.11111 19.7778V18.6667Z" fill="#E2C6F7"/>
<path d="M18.6667 4.77778C18.6667 4.47095 18.9154 4.22222 19.2222 4.22222H20.3333C20.6402 4.22222 20.8889 4.47095 20.8889 4.77778V5.88889C20.8889 6.19571 20.6402 6.44444 20.3333 6.44444H19.2222C18.9154 6.44444 18.6667 6.19571 18.6667 5.88889V4.77778Z" fill="#E2C6F7"/>
<path d="M18.6667 7.55556C18.6667 7.24873 18.9154 7 19.2222 7H20.3333C20.6402 7 20.8889 7.24873 20.8889 7.55556V8.66667C20.8889 8.97349 20.6402 9.22222 20.3333 9.22222H19.2222C18.9154 9.22222 18.6667 8.97349 18.6667 8.66667V7.55556Z" fill="#E2C6F7"/>
<path d="M18.6667 10.3333C18.6667 10.0265 18.9154 9.77778 19.2222 9.77778H20.3333C20.6402 9.77778 20.8889 10.0265 20.8889 10.3333V11.4444C20.8889 11.7513 20.6402 12 20.3333 12H19.2222C18.9154 12 18.6667 11.7513 18.6667 11.4444V10.3333Z" fill="#E2C6F7"/>
<path d="M18.6667 13.1111C18.6667 12.8043 18.9154 12.5556 19.2222 12.5556H20.3333C20.6402 12.5556 20.8889 12.8043 20.8889 13.1111V14.2222C20.8889 14.529 20.6402 14.7778 20.3333 14.7778H19.2222C18.9154 14.7778 18.6667 14.529 18.6667 14.2222V13.1111Z" fill="#E2C6F7"/>
<path d="M18.6667 15.8889C18.6667 15.5821 18.9154 15.3333 19.2222 15.3333H20.3333C20.6402 15.3333 20.8889 15.5821 20.8889 15.8889V17C20.8889 17.3068 20.6402 17.5556 20.3333 17.5556H19.2222C18.9154 17.5556 18.6667 17.3068 18.6667 17V15.8889Z" fill="#E2C6F7"/>
<path d="M18.6667 18.6667C18.6667 18.3598 18.9154 18.1111 19.2222 18.1111H20.3333C20.6402 18.1111 20.8889 18.3598 20.8889 18.6667V19.7778C20.8889 20.0846 20.6402 20.3333 20.3333 20.3333H19.2222C18.9154 20.3333 18.6667 20.0846 18.6667 19.7778V18.6667Z" fill="#E2C6F7"/>
<path d="M14.9993 12.0415C15.3289 12.2641 15.3246 12.7508 14.9912 12.9676L10.0806 16.1604C9.70918 16.4019 9.21835 16.1327 9.22225 15.6897L9.2792 9.21825C9.2831 8.77523 9.77858 8.51478 10.1457 8.76278L14.9993 12.0415Z" fill="white"/>
</svg>
