<svg width="24" height="24" viewBox="0 0 24 24" fill="none" xmlns="http://www.w3.org/2000/svg">
<path d="M7.71446 19.4994C7.71446 16.5287 7.71446 11.8923 7.71446 11.8923V4.28516M5.5716 19.7137H18.4287C19.1388 19.7137 19.7145 19.1381 19.7145 18.428V5.57087C19.7145 4.86079 19.1388 4.28516 18.4287 4.28516H5.5716C4.86152 4.28516 4.28589 4.86079 4.28589 5.57087V18.428C4.28589 19.1381 4.86152 19.7137 5.5716 19.7137Z" stroke="#00677F"/>
<path d="M4.92847 7.07059C5.09415 7.07059 5.14275 7.16653 5.14275 7.28488C5.14275 7.40322 5.09415 7.49916 4.92847 7.49916H3.72847C3.56278 7.49916 3.42847 7.40322 3.42847 7.28488C3.42847 7.16653 3.56278 7.07059 3.72847 7.07059H4.92847Z" fill="#00677F"/>
<path d="M6.21418 7.28488C6.21418 7.04818 6.0223 6.85631 5.78561 6.85631C5.54892 6.85631 5.35704 7.04818 5.35704 7.28488C5.35704 7.52157 5.54892 7.71345 5.78561 7.71345V8.14202C5.31222 8.14202 4.92847 7.75826 4.92847 7.28488C4.92847 6.81149 5.31222 6.42773 5.78561 6.42773C6.259 6.42773 6.64275 6.81149 6.64275 7.28488C6.64275 7.75826 6.259 8.14202 5.78561 8.14202V7.71345C6.0223 7.71345 6.21418 7.52157 6.21418 7.28488Z" fill="#00677F"/>
<path d="M4.92847 9.64286C5.09415 9.64286 5.14275 9.7388 5.14275 9.85714C5.14275 9.97549 5.09415 10.0714 4.92847 10.0714H3.72847C3.56278 10.0714 3.42847 9.97549 3.42847 9.85714C3.42847 9.7388 3.56278 9.64286 3.72847 9.64286H4.92847Z" fill="#00677F"/>
<path d="M6.21418 9.85714C6.21418 9.62045 6.0223 9.42857 5.78561 9.42857C5.54892 9.42857 5.35704 9.62045 5.35704 9.85714C5.35704 10.0938 5.54892 10.2857 5.78561 10.2857V10.7143C5.31222 10.7143 4.92847 10.3305 4.92847 9.85714C4.92847 9.38376 5.31222 9 5.78561 9C6.259 9 6.64275 9.38376 6.64275 9.85714C6.64275 10.3305 6.259 10.7143 5.78561 10.7143V10.2857C6.0223 10.2857 6.21418 10.0938 6.21418 9.85714Z" fill="#00677F"/>
<path d="M4.92847 12.2151C5.09415 12.2151 5.14275 12.3111 5.14275 12.4294C5.14275 12.5478 5.09415 12.6437 4.92847 12.6437H3.72847C3.56278 12.6437 3.42847 12.5478 3.42847 12.4294C3.42847 12.3111 3.56278 12.2151 3.72847 12.2151H4.92847Z" fill="#00677F"/>
<path d="M6.21418 12.4294C6.21418 12.1927 6.0223 12.0008 5.78561 12.0008C5.54892 12.0008 5.35704 12.1927 5.35704 12.4294C5.35704 12.6661 5.54892 12.858 5.78561 12.858V13.2866C5.31222 13.2866 4.92847 12.9028 4.92847 12.4294C4.92847 11.956 5.31222 11.5723 5.78561 11.5723C6.259 11.5723 6.64275 11.956 6.64275 12.4294C6.64275 12.9028 6.259 13.2866 5.78561 13.2866V12.858C6.0223 12.858 6.21418 12.6661 6.21418 12.4294Z" fill="#00677F"/>
<path d="M4.92847 14.7854C5.09415 14.7854 5.14275 14.8814 5.14275 14.9997C5.14275 15.1181 5.09415 15.214 4.92847 15.214H3.72847C3.56278 15.214 3.42847 15.1181 3.42847 14.9997C3.42847 14.8814 3.56278 14.7854 3.72847 14.7854H4.92847Z" fill="#00677F"/>
<path d="M6.21418 14.9997C6.21418 14.763 6.0223 14.5711 5.78561 14.5711C5.54892 14.5711 5.35704 14.763 5.35704 14.9997C5.35704 15.2364 5.54892 15.4283 5.78561 15.4283V15.8569C5.31222 15.8569 4.92847 15.4731 4.92847 14.9997C4.92847 14.5263 5.31222 14.1426 5.78561 14.1426C6.259 14.1426 6.64275 14.5263 6.64275 14.9997C6.64275 15.4731 6.259 15.8569 5.78561 15.8569V15.4283C6.0223 15.4283 6.21418 15.2364 6.21418 14.9997Z" fill="#00677F"/>
<path d="M4.92847 17.3577C5.09415 17.3577 5.14275 17.4536 5.14275 17.572C5.14275 17.6903 5.09415 17.7863 4.92847 17.7863H3.72847C3.56278 17.7863 3.42847 17.6903 3.42847 17.572C3.42847 17.4536 3.56278 17.3577 3.72847 17.3577H4.92847Z" fill="#00677F"/>
<path d="M6.21418 17.572C6.21418 17.3353 6.0223 17.1434 5.78561 17.1434C5.54892 17.1434 5.35704 17.3353 5.35704 17.572C5.35704 17.8087 5.54892 18.0006 5.78561 18.0006V18.4291C5.31222 18.4291 4.92847 18.0454 4.92847 17.572C4.92847 17.0986 5.31222 16.7148 5.78561 16.7148C6.259 16.7148 6.64275 17.0986 6.64275 17.572C6.64275 18.0454 6.259 18.4291 5.78561 18.4291V18.0006C6.0223 18.0006 6.21418 17.8087 6.21418 17.572Z" fill="#00677F"/>
<path d="M14.938 9.9041C14.3176 9.47194 13.6247 9.25586 12.9315 9.25586C12.2018 9.25586 11.5086 9.47194 10.925 9.86802C10.3414 10.3002 9.90354 10.8406 9.64818 11.5249C10.305 10.7684 11.509 10.3005 12.9319 10.3005C14.3183 10.3005 15.5587 10.8048 16.2156 11.5249C15.9595 10.8766 15.5216 10.3002 14.938 9.9041ZM14.938 14.7361C15.5216 14.34 15.9595 13.7635 16.2148 13.1153C15.558 13.8357 14.3176 14.34 12.9312 14.34C11.5447 14.34 10.3043 13.8357 9.64746 13.1153C9.90283 13.7635 10.3407 14.34 10.9243 14.7361C11.5079 15.1321 12.2011 15.3482 12.9308 15.3482C13.6605 15.3482 14.3541 15.1325 14.938 14.7361Z" fill="#FF9100"/>
<path d="M9.79372 10.0853C9.99532 10.0853 10.1587 9.92408 10.1587 9.72525C10.1587 9.52642 9.99532 9.36523 9.79372 9.36523C9.59213 9.36523 9.42871 9.52642 9.42871 9.72525C9.42871 9.92408 9.59213 10.0853 9.79372 10.0853Z" fill="#FF9100"/>
<path d="M10.3406 17.1441C10.7034 17.1441 10.9975 16.8539 10.9975 16.4959C10.9975 16.1379 10.7034 15.8477 10.3406 15.8477C9.9779 15.8477 9.68384 16.1379 9.68384 16.4959C9.68384 16.8539 9.9779 17.1441 10.3406 17.1441Z" fill="#00677F"/>
<path d="M15.9956 9.07462C15.9956 8.79639 15.767 8.57031 15.4849 8.57031C15.2027 8.57031 14.9741 8.79603 14.9741 9.07462C14.9741 9.3532 15.2031 9.57892 15.4849 9.57892C15.767 9.57892 15.9956 9.35284 15.9956 9.07462Z" fill="#00677F"/>
</svg>
