<svg width="24" height="24" viewBox="0 0 24 24" fill="none" xmlns="http://www.w3.org/2000/svg">
<path d="M7.62212 17.611H16.8631C16.952 17.611 17.0372 17.6462 17.1001 17.709C17.163 17.7718 17.1985 17.8569 17.1988 17.9458C17.1988 18.0348 17.1634 18.1202 17.1005 18.1831C17.0375 18.2461 16.9522 18.2814 16.8631 18.2814H7.62212C7.57808 18.2814 7.53447 18.2728 7.49379 18.2559C7.45312 18.239 7.41619 18.2143 7.38509 18.1831C7.35399 18.1519 7.32935 18.1149 7.31258 18.0742C7.29581 18.0334 7.28723 17.9898 7.28735 17.9458C7.28735 17.857 7.32263 17.7719 7.38541 17.7091C7.44819 17.6463 7.53333 17.611 7.62212 17.611Z" fill="white"/>
<path d="M7.62212 15.6087H16.8631C16.952 15.6087 17.0372 15.644 17.1001 15.7067C17.163 15.7694 17.1985 15.8546 17.1988 15.9434C17.1988 16.0324 17.1634 16.1178 17.1005 16.1808C17.0375 16.2438 16.9522 16.2791 16.8631 16.2791H7.62212C7.57808 16.2791 7.53447 16.2704 7.49379 16.2535C7.45312 16.2367 7.41619 16.2119 7.38509 16.1807C7.35399 16.1496 7.32935 16.1125 7.31258 16.0718C7.29581 16.0311 7.28723 15.9875 7.28735 15.9434C7.28735 15.8547 7.32263 15.7695 7.38541 15.7067C7.44819 15.644 7.53333 15.6087 7.62212 15.6087Z" fill="white"/>
<path d="M7.62212 13.6064H16.8631C16.9522 13.6064 17.0375 13.6417 17.1005 13.7046C17.1634 13.7676 17.1988 13.853 17.1988 13.942C17.1985 14.0309 17.163 14.116 17.1001 14.1788C17.0372 14.2415 16.952 14.2768 16.8631 14.2768H7.62212C7.53333 14.2768 7.44819 14.2415 7.38541 14.1788C7.32263 14.1159 7.28735 14.0308 7.28735 13.942C7.28723 13.898 7.29581 13.8544 7.31258 13.8137C7.32935 13.7729 7.35399 13.7359 7.38509 13.7047C7.41619 13.6736 7.45312 13.6488 7.49379 13.632C7.53447 13.615 7.57808 13.6064 7.62212 13.6064Z" fill="white"/>
<path d="M7.62212 11.604H16.7657C16.8097 11.604 16.8534 11.6127 16.894 11.6296C16.9347 11.6464 16.9716 11.6712 17.0027 11.7024C17.0338 11.7335 17.0585 11.7706 17.0752 11.8113C17.092 11.852 17.1006 11.8956 17.1005 11.9397C17.1005 12.0285 17.0652 12.1136 17.0024 12.1764C16.9396 12.2392 16.8545 12.2744 16.7657 12.2744H7.62212C7.53333 12.2744 7.44819 12.2392 7.38541 12.1764C7.32263 12.1136 7.28735 12.0285 7.28735 11.9397C7.28723 11.8956 7.29581 11.852 7.31258 11.8113C7.32935 11.7706 7.35399 11.7335 7.38509 11.7024C7.41619 11.6712 7.45312 11.6464 7.49379 11.6296C7.53447 11.6127 7.57808 11.604 7.62212 11.604Z" fill="white"/>
<path fill-rule="evenodd" clip-rule="evenodd" d="M14.7398 1.58789C14.7946 1.58785 14.8489 1.59862 14.8996 1.61956C14.9503 1.64051 14.9963 1.67118 15.0351 1.70993L20.8779 7.55267C20.9166 7.59145 20.9473 7.63755 20.9682 7.68821C20.9892 7.73887 21 7.79315 20.9999 7.84797V21.2028C20.9999 21.5349 20.8681 21.8535 20.6333 22.0883C20.3985 22.3231 20.0799 22.4548 19.7479 22.4548H4.7237C4.39164 22.4548 4.07305 22.3231 3.83825 22.0883C3.60345 21.8535 3.47168 21.5349 3.47168 21.2028V2.83991C3.47168 2.50785 3.60345 2.18926 3.83825 1.95446C4.07305 1.71966 4.39164 1.58789 4.7237 1.58789H14.7398ZM4.7237 2.42257C4.61301 2.42257 4.50666 2.46634 4.42839 2.5446C4.35013 2.62287 4.30636 2.72922 4.30636 2.83991V21.2028C4.30636 21.3135 4.35013 21.4199 4.42839 21.4981C4.50666 21.5764 4.61301 21.6202 4.7237 21.6202H19.7479C19.8586 21.6202 19.9649 21.5764 20.0432 21.4981C20.1215 21.4199 20.1652 21.3135 20.1652 21.2028V8.26531H14.7398C14.6291 8.26531 14.5228 8.22154 14.4445 8.14328C14.3663 8.06501 14.3225 7.95866 14.3225 7.84797V2.42257H4.7237Z" fill="white"/>
</svg>
