<svg width="56" height="56" viewBox="0 0 56 56" fill="none" xmlns="http://www.w3.org/2000/svg">
<path d="M46.1191 18.6309L33.8691 6.38094C33.7877 6.29971 33.6912 6.2353 33.585 6.19138C33.4788 6.14747 33.3649 6.12491 33.25 6.125H12.25C11.5538 6.125 10.8861 6.40156 10.3938 6.89385C9.90156 7.38613 9.625 8.05381 9.625 8.75V47.25C9.625 47.9462 9.90156 48.6139 10.3938 49.1062C10.8861 49.5984 11.5538 49.875 12.25 49.875H43.75C44.4462 49.875 45.1139 49.5984 45.6062 49.1062C46.0984 48.6139 46.375 47.9462 46.375 47.25V19.25C46.3751 19.1351 46.3525 19.0212 46.3086 18.915C46.2647 18.8088 46.2003 18.7123 46.1191 18.6309ZM34.125 9.11094L43.3869 18.375H34.125V9.11094ZM43.75 48.125H12.25C12.0179 48.125 11.7954 48.0328 11.6313 47.8687C11.4672 47.7046 11.375 47.4821 11.375 47.25V8.75C11.375 8.51794 11.4672 8.29538 11.6313 8.13128C11.7954 7.96719 12.0179 7.875 12.25 7.875H32.375V19.25C32.375 19.4821 32.4672 19.7046 32.6313 19.8687C32.7954 20.0328 33.0179 20.125 33.25 20.125H44.625V47.25C44.625 47.4821 44.5328 47.7046 44.3687 47.8687C44.2046 48.0328 43.9821 48.125 43.75 48.125Z" fill="#54697A"/>
<path d="M33.3935 29.9609C33.4871 29.9775 34.4141 30.9617 34.5639 31.0955C35.1033 31.5768 35.1171 32.499 34.6062 33.0107C34.4765 33.1407 34.3347 33.28 34.2001 33.4136L33.4207 34.1957L31.673 35.9443C31.5174 36.0984 31.3598 36.2573 31.2068 36.4155C30.7729 36.8639 30.0396 36.936 29.5181 36.6016C29.2987 36.4609 29.1174 36.2501 28.9318 36.0636C28.6977 35.8314 28.4654 35.5975 28.2348 35.3619C27.6444 34.7652 27.0329 34.1774 26.4531 33.5703C26.4368 33.5538 26.4209 33.5358 26.4054 33.5185C26.165 33.2537 26.0424 32.9028 26.0655 32.546C26.0958 32.0497 26.3305 31.7626 26.6857 31.4514C26.7836 31.529 26.8941 31.6479 26.9838 31.7382L27.42 32.1753C27.6915 32.4472 30.2181 34.997 30.2647 35.007C30.9545 34.3018 31.6507 33.6028 32.3531 32.91C32.6146 32.6478 32.9455 32.3344 33.191 32.0655C32.8725 31.7533 32.5565 31.4385 32.2431 31.1212C32.3413 30.9857 32.5767 30.7599 32.7064 30.6327C32.9191 30.4241 33.1694 30.1465 33.3935 29.9609Z" fill="#B75BAB"/>
<path d="M29.8842 23.0067C30.0205 22.9928 30.1608 23.0018 30.296 23.0215C30.7728 23.0908 31.0118 23.3953 31.3325 23.7176C31.6242 24.0066 31.9137 24.2978 32.2013 24.591L33.708 26.1029C34.2181 26.6163 34.8274 27.0287 34.7866 27.819C34.755 28.4327 34.3411 28.7556 33.9405 29.1528C33.617 29.48 33.2908 29.8047 32.9622 30.1267L32.0652 31.0272C31.8947 31.201 31.6741 31.4396 31.4966 31.5971C31.2287 31.8358 30.8758 31.9562 30.5179 31.9312C30.0324 31.901 29.7331 31.6616 29.4252 31.3116C29.4976 31.2421 29.5692 31.172 29.6402 31.1011C30.058 30.7013 30.4948 30.2438 30.9041 29.8317L32.9908 27.738C32.8675 27.6211 32.7408 27.4862 32.6184 27.3651L31.2409 25.9823L30.4648 25.2053C30.3381 25.0778 30.1615 24.9097 30.0477 24.7754C29.7498 25.1143 29.3934 25.4196 29.1019 25.7462C28.9412 25.5965 28.0214 24.7088 27.9497 24.5764C27.9565 24.562 27.9645 24.5481 27.9737 24.5351C28.065 24.4044 29.1573 23.3114 29.2768 23.2329C29.4648 23.1094 29.6644 23.0449 29.8842 23.0067Z" fill="#B75BAB"/>
<path d="M25.3698 28.0742C25.9557 28.1029 26.1642 28.2835 26.5489 28.6875C26.4911 28.7691 26.3264 28.9282 26.2497 29.006L25.5675 29.6862L24.0866 31.1738C23.719 31.5436 23.3713 31.9044 22.9931 32.2679C23.0703 32.3694 23.3196 32.6056 23.425 32.7105C23.7054 32.9924 23.9872 33.2729 24.2705 33.5519C24.6687 33.9548 25.0697 34.355 25.4733 34.7523C25.6122 34.89 25.7995 35.1016 25.9377 35.2207C26.2372 34.9044 26.5721 34.5836 26.8814 34.2722C26.9982 34.3631 27.2996 34.6757 27.4133 34.7921C27.6009 34.9843 27.8861 35.246 28.0506 35.4452C27.8437 35.6453 27.6191 35.8669 27.4234 36.077C26.9816 36.4783 26.7003 36.964 26.037 36.9983C25.6956 37.0159 25.3117 36.9288 25.0602 36.691C24.7908 36.4361 24.5201 36.1547 24.2565 35.8909L22.6977 34.3312L21.9328 33.5619C21.8567 33.4868 21.5244 33.1668 21.4756 33.0981C21.3113 32.8707 21.2153 32.6012 21.1987 32.3211C21.1647 31.6586 21.5821 31.3153 22.0042 30.8961L22.8528 30.0507L23.7435 29.1521C24.0243 28.8648 24.3542 28.4991 24.6796 28.2702C24.8887 28.1231 25.1206 28.0858 25.3698 28.0742Z" fill="#B75BAB"/>
<path d="M25.6158 23.1989C25.8331 23.156 26.2436 23.2664 26.4312 23.3858C26.6176 23.5045 26.805 23.7154 26.9626 23.8724C27.2131 24.1207 27.4619 24.3706 27.7091 24.6221L29.031 25.9456C29.4852 26.4029 29.9416 26.7183 29.9111 27.4313C29.8888 27.9518 29.668 28.2205 29.303 28.5615C29.2129 28.4987 28.8994 28.1644 28.8029 28.068L27.5158 26.7783L26.3012 25.5662C26.1878 25.4529 25.8032 25.0794 25.7344 24.9746C25.606 25.098 25.4779 25.2392 25.351 25.3669L24.3339 26.3863C23.816 26.8906 23.3089 27.4373 22.7857 27.935C22.8445 28.0172 22.9905 28.1518 23.0664 28.2307C23.2801 28.4527 23.5205 28.6689 23.7291 28.8946C23.6495 29.0051 23.3949 29.2508 23.285 29.3589C23.0515 29.5888 22.8115 29.8468 22.5736 30.068C22.3958 29.9135 22.1693 29.6827 22.0059 29.5062C21.6077 29.0763 21.103 28.7562 21.0158 28.1362C20.9062 27.3562 21.3838 26.9944 21.8797 26.5006L22.9369 25.4421L24.3038 24.0713C24.7409 23.6369 24.9603 23.2853 25.6158 23.1989Z" fill="#B75BAB"/>
<path d="M30.7212 27.8837C30.994 27.8551 31.3646 27.9578 31.5785 28.127C31.6637 28.1945 31.9328 28.4119 31.9462 28.5022C31.9048 28.5761 31.6742 28.7879 31.6006 28.861L31.0569 29.4066L29.9575 30.5076C29.7461 30.7208 29.5536 30.9261 29.3345 31.1357C29.3141 31.1589 29.3149 31.1575 29.2867 31.1642C29.2376 31.1458 28.2327 30.1254 28.1169 30.0149C28.1235 30.0069 28.1301 29.9991 28.1367 29.9913C28.3559 29.735 28.7522 29.3658 29.0068 29.1096L29.6227 28.4941C29.9935 28.124 30.1608 27.9268 30.7212 27.8837Z" fill="#B75BAB"/>
<path d="M26.4755 26.0273C26.5557 26.0818 26.747 26.2854 26.8276 26.366L27.5675 27.1086L28.5532 28.0974C28.6938 28.2369 29.0399 28.5664 29.1495 28.7113C29.0778 28.7976 28.9257 28.9438 28.8433 29.0272L28.2643 29.6101C28.1728 29.7012 28.083 29.794 27.995 29.8885C27.9589 29.8471 27.9176 29.808 27.8794 29.7685C27.3261 29.197 26.7368 28.6516 26.1965 28.0685C25.8407 27.6846 25.7807 27.0773 25.9999 26.6115C26.1197 26.357 26.2772 26.2167 26.4755 26.0273Z" fill="#B75BAB"/>
<path d="M27.9772 30.1523C28.0619 30.1725 28.4884 30.6315 28.5856 30.7298C28.9061 31.0541 29.2295 31.3756 29.5558 31.6942C29.8935 32.0235 30.1025 32.3311 30.1056 32.8222C30.109 33.3702 29.851 33.6388 29.4999 33.9952L29.2396 33.7325C28.7618 33.2604 28.2868 32.7855 27.8146 32.3077C27.5214 32.0088 27.122 31.5863 26.8176 31.3169C26.9235 31.1888 27.1208 31.0048 27.2437 30.8826L27.9772 30.1523Z" fill="#B75BAB"/>
<path d="M26.6801 28.8516C26.7115 28.8586 26.738 28.8754 26.7613 28.8977C27.1296 29.2497 27.4834 29.6602 27.8555 30.0024C27.8448 30.0176 27.8273 30.0416 27.8143 30.0547C27.5537 30.3186 27.2896 30.5822 27.0277 30.8446L26.4976 31.3765C26.085 31.7906 25.8448 32.0901 25.2259 32.1232C25.1482 32.1253 25.0704 32.1212 24.9934 32.1109C24.6194 32.0573 24.2504 31.8272 24.0264 31.5267C24.0848 31.4311 24.2806 31.2503 24.3682 31.1637L24.8976 30.6364C25.4771 30.0576 26.0908 29.4123 26.6801 28.8516Z" fill="#B75BAB"/>
</svg>
