<svg width="56" height="56" viewBox="0 0 56 56" fill="none" xmlns="http://www.w3.org/2000/svg">
<path d="M46.1191 18.6309L33.8691 6.38094C33.7877 6.29971 33.6912 6.2353 33.585 6.19138C33.4788 6.14747 33.3649 6.12491 33.25 6.125H12.25C11.5538 6.125 10.8861 6.40156 10.3938 6.89385C9.90156 7.38613 9.625 8.05381 9.625 8.75V47.25C9.625 47.9462 9.90156 48.6139 10.3938 49.1062C10.8861 49.5984 11.5538 49.875 12.25 49.875H43.75C44.4462 49.875 45.1139 49.5984 45.6062 49.1062C46.0984 48.6139 46.375 47.9462 46.375 47.25V19.25C46.3751 19.1351 46.3525 19.0212 46.3086 18.915C46.2647 18.8088 46.2003 18.7123 46.1191 18.6309ZM34.125 9.11094L43.3869 18.375H34.125V9.11094ZM43.75 48.125H12.25C12.0179 48.125 11.7954 48.0328 11.6313 47.8687C11.4672 47.7046 11.375 47.4821 11.375 47.25V8.75C11.375 8.51794 11.4672 8.29538 11.6313 8.13128C11.7954 7.96719 12.0179 7.875 12.25 7.875H32.375V19.25C32.375 19.4821 32.4672 19.7046 32.6313 19.8687C32.7954 20.0328 33.0179 20.125 33.25 20.125H44.625V47.25C44.625 47.4821 44.5328 47.7046 44.3687 47.8687C44.2046 48.0328 43.9821 48.125 43.75 48.125Z" fill="#54697A"/>
<path d="M27 32H16C15.4477 32 15 32.4477 15 33V43C15 43.5523 15.4477 44 16 44H27C27.5523 44 28 43.5523 28 43V33C28 32.4477 27.5523 32 27 32Z" fill="#64B44D"/>
<path d="M25.8855 35H17.1339C16.7622 35 16.4609 35.3013 16.4609 35.6729C16.4609 36.0446 16.7622 36.3459 17.1339 36.3459H25.8855C26.2572 36.3459 26.5584 36.0446 26.5584 35.6729C26.5584 35.3013 26.2572 35 25.8855 35Z" fill="white"/>
<path d="M25.8855 37.6855H17.1339C16.7622 37.6855 16.4609 37.9868 16.4609 38.3585C16.4609 38.7301 16.7622 39.0314 17.1339 39.0314H25.8855C26.2572 39.0314 26.5584 38.7301 26.5584 38.3585C26.5584 37.9868 26.2572 37.6855 25.8855 37.6855Z" fill="white"/>
<path d="M25.8579 40.2344H17.1063C16.7346 40.2344 16.4333 40.5357 16.4333 40.9073C16.4333 41.279 16.7346 41.5802 17.1063 41.5802H25.8579C26.2296 41.5802 26.5309 41.279 26.5309 40.9073C26.5309 40.5357 26.2296 40.2344 25.8579 40.2344Z" fill="white"/>
<path fill-rule="evenodd" clip-rule="evenodd" d="M4.4308 17H28.5692C28.9625 17 29.3204 17.1821 29.5801 17.4754C29.8392 17.768 30 18.1703 30 18.6116V26.3883C30 26.8297 29.8392 27.232 29.5801 27.5246C29.3204 27.8179 28.9625 28 28.5692 28H4.4308C4.03753 28 3.6796 27.8179 3.41985 27.5246C3.16082 27.2321 3 26.8298 3 26.3883V18.6116C3 18.1703 3.16082 17.768 3.41985 17.4754C3.67957 17.1821 4.03749 17 4.4308 17Z" fill="#64B44D"/>
<path d="M7.37295 23.5721C7.42025 24.1688 8.00741 24.4525 8.6797 24.4525C9.17227 24.4525 9.56953 24.3863 9.95734 24.2634L10.1465 25.2383C9.67285 25.4275 9.09588 25.5221 8.47088 25.5221C6.89929 25.5221 6 24.6133 6 23.1647C6 21.9911 6.72904 20.6938 8.33846 20.6938C9.83437 20.6938 10.4019 21.858 10.4019 23.0039C10.4019 23.2498 10.3735 23.4681 10.3546 23.5721H7.37295ZM9.0675 22.5877C9.0675 22.2378 8.91616 21.6506 8.25333 21.6506C7.64725 21.6506 7.40133 22.1999 7.36349 22.5877H9.0675ZM11.3106 19.1324C11.7559 19.0568 12.3802 19 13.2606 19C14.1504 19 14.7849 19.1703 15.2105 19.5115C15.6172 19.8331 15.8923 20.3635 15.8923 20.9885C15.8923 21.6135 15.6842 22.1432 15.3051 22.5033C14.8125 22.9675 14.0835 23.1756 13.2315 23.1756C13.0423 23.1756 12.872 23.1662 12.7389 23.1472V25.4289H11.3092V19.1324H11.3106ZM12.7404 22.0289C12.8633 22.0573 13.0147 22.0668 13.2235 22.0668C13.9903 22.0668 14.4633 21.679 14.4633 21.0256C14.4633 20.4384 14.0558 20.0885 13.337 20.0885C13.0438 20.0885 12.8444 20.1168 12.7404 20.1452V22.0289ZM18.2496 19.0473V22.7201C18.2496 23.8181 18.6658 24.3769 19.4043 24.3769C20.1617 24.3769 20.5779 23.8464 20.5779 22.7201V19.0473H22.0171V22.6256C22.0171 24.5944 21.0232 25.5323 19.357 25.5323C17.7476 25.5323 16.801 24.6424 16.801 22.6066V19.0473H18.2496ZM23.2671 19.1324C23.6461 19.0568 24.4123 19 25.1319 19C26.0122 19 26.5521 19.0851 27.0156 19.3594C27.4609 19.5959 27.7825 20.0317 27.7825 20.6087C27.7825 21.1769 27.4514 21.7066 26.7318 21.9722V21.9911C27.4609 22.1897 28 22.7391 28 23.5627C28 24.1404 27.7352 24.5944 27.3372 24.9167C26.873 25.2856 26.0974 25.4944 24.8285 25.4944C24.1183 25.4944 23.5886 25.4471 23.2663 25.3998V19.1324H23.2671ZM24.6968 21.5749H25.1704C25.9278 21.5749 26.3346 21.2628 26.3346 20.7891C26.3346 20.306 25.9657 20.0506 25.3123 20.0506C25.0002 20.0506 24.8197 20.0696 24.6968 20.0885V21.5749ZM24.6968 24.4052C24.8386 24.4241 25.0089 24.4242 25.2555 24.4242C25.9089 24.4242 26.4866 24.1782 26.4866 23.5059C26.4866 22.862 25.9089 22.6066 25.1893 22.6066H24.6968V24.4052Z" fill="white"/>
</svg>
