<svg width="56" height="56" viewBox="0 0 56 56" fill="none" xmlns="http://www.w3.org/2000/svg">
<path d="M46.1191 18.6309L33.8691 6.38094C33.7877 6.29971 33.6912 6.2353 33.585 6.19138C33.4788 6.14747 33.3649 6.12491 33.25 6.125H12.25C11.5538 6.125 10.8861 6.40156 10.3938 6.89385C9.90156 7.38613 9.625 8.05381 9.625 8.75V47.25C9.625 47.9462 9.90156 48.6139 10.3938 49.1062C10.8861 49.5984 11.5538 49.875 12.25 49.875H43.75C44.4462 49.875 45.1139 49.5984 45.6062 49.1062C46.0984 48.6139 46.375 47.9462 46.375 47.25V19.25C46.3751 19.1351 46.3525 19.0212 46.3086 18.915C46.2647 18.8088 46.2003 18.7123 46.1191 18.6309ZM34.125 9.11094L43.3869 18.375H34.125V9.11094ZM43.75 48.125H12.25C12.0179 48.125 11.7954 48.0328 11.6313 47.8687C11.4672 47.7046 11.375 47.4821 11.375 47.25V8.75C11.375 8.51794 11.4672 8.29538 11.6313 8.13128C11.7954 7.96719 12.0179 7.875 12.25 7.875H32.375V19.25C32.375 19.4821 32.4672 19.7046 32.6313 19.8687C32.7954 20.0328 33.0179 20.125 33.25 20.125H44.625V47.25C44.625 47.4821 44.5328 47.7046 44.3687 47.8687C44.2046 48.0328 43.9821 48.125 43.75 48.125Z" fill="#54697A"/>
<path fill-rule="evenodd" clip-rule="evenodd" d="M4.4308 17H28.5692C28.9625 17 29.3204 17.1821 29.5801 17.4754C29.8392 17.768 30 18.1703 30 18.6116V26.3883C30 26.8297 29.8392 27.232 29.5801 27.5246C29.3204 27.8179 28.9625 28 28.5692 28H4.4308C4.03753 28 3.6796 27.8179 3.41985 27.5246C3.16082 27.2321 3 26.8298 3 26.3883V18.6116C3 18.1703 3.16082 17.768 3.41985 17.4754C3.67957 17.1821 4.03749 17 4.4308 17Z" fill="#D84200"/>
<path d="M8 26V19H10.0954C10.8893 19 11.4075 19.0358 11.6486 19.1059C12.0191 19.2102 12.331 19.4384 12.581 19.7905C12.8311 20.1425 12.9561 20.5972 12.9561 21.153C12.9561 21.5832 12.8838 21.9451 12.7392 22.2368C12.5946 22.5301 12.4123 22.7599 12.1894 22.9278C11.9679 23.0941 11.742 23.2049 11.513 23.2587C11.2011 23.3255 10.7492 23.3597 10.1572 23.3597H9.30605V26H8ZM9.30607 20.1849V22.17H10.0201C10.5353 22.17 10.8803 22.1341 11.0535 22.0608C11.2268 21.9874 11.3623 21.8733 11.4617 21.7169C11.5597 21.5604 11.6094 21.3795 11.6094 21.1725C11.6094 20.9183 11.5401 20.708 11.4015 20.5418C11.2644 20.3772 11.0882 20.2729 10.8773 20.2321C10.7206 20.1995 10.4073 20.1849 9.93727 20.1849H9.30605L9.30607 20.1849ZM14.0242 19H16.4119C16.9497 19 17.3594 19.044 17.6426 19.1337C18.0222 19.2543 18.3476 19.4694 18.6173 19.7791C18.8884 20.0871 19.0948 20.4652 19.2364 20.9118C19.3765 21.36 19.4473 21.9108 19.4473 22.5676C19.4473 23.143 19.381 23.6401 19.2485 24.0573C19.0873 24.5658 18.8568 24.9781 18.5555 25.2927C18.3295 25.5323 18.0237 25.7181 17.6381 25.8517C17.3504 25.9511 16.9647 26 16.4812 26H14.0242L14.0242 19ZM15.3303 20.1849V24.82H16.3049C16.6695 24.82 16.9331 24.7988 17.0958 24.7532C17.3067 24.6962 17.4829 24.6 17.623 24.4631C17.7631 24.3262 17.8761 24.0996 17.965 23.7867C18.0524 23.4738 18.0975 23.0452 18.0975 22.5041C18.0975 21.963 18.0524 21.549 17.965 21.2589C17.8761 20.9688 17.7526 20.7423 17.5944 20.5809C17.4347 20.4179 17.2329 20.3087 16.9888 20.2517C16.8066 20.2061 16.4495 20.1849 15.9163 20.1849H15.3303ZM20.5636 26V19H25V20.1849H21.8712V21.8407H24.5722V23.0256H21.8712V26H20.5636Z" fill="white"/>
<path d="M15.6676 43.9578C15.5073 43.9054 15.3703 43.8027 15.2707 43.6611C14.9088 43.1434 14.9754 42.7221 15.0956 42.459C15.4258 41.7358 16.6111 41.2544 18.6211 41.0269C19.8128 39.7343 21.0866 38.0779 21.9927 36.6425C21.8609 35.4901 21.8396 34.0444 22.4154 33.3891C22.617 33.1596 22.8271 33.0013 23.1218 33C23.2381 32.9994 23.5186 33.042 23.6162 33.0743C23.8489 33.1506 23.9549 33.517 24.0389 33.7484C24.1184 33.9662 24.3058 34.4348 22.8387 36.8286C23.0397 38.3163 23.4915 39.9127 24.0421 41.0844C24.6826 41.1736 25.2209 41.288 25.6449 41.4269C26.3668 41.6635 26.7494 41.9756 26.814 42.3808C26.8677 42.7162 26.697 43.0316 26.308 43.3179C25.9331 43.5933 25.5169 43.6669 25.1046 43.5319C24.5436 43.3483 24.0072 42.7802 23.5083 41.8418C22.1104 41.6867 20.4229 41.6738 19.0114 41.8089C18.358 42.5004 17.7725 43.0381 17.2703 43.4091C16.5795 43.9145 16.0708 44.0896 15.6676 43.9578ZM17.6697 41.9963C16.5026 42.227 15.9519 42.5508 15.8388 42.7977C15.8201 42.8384 15.771 42.9463 15.9332 43.1822C16.0088 43.1822 16.4696 43.1312 17.6697 41.9963ZM24.6289 42.0092C24.9101 42.4215 24.954 42.598 25.1996 42.6781C25.3075 42.7137 25.6165 42.81 25.8239 42.6574C25.9241 42.5838 25.9713 42.5308 25.9926 42.501C25.9454 42.4526 25.8905 42.3673 25.4807 42.2328C25.2481 42.1566 24.9521 42.0713 24.6289 42.0092ZM22.1795 37.8452C21.4757 38.878 20.6368 39.967 19.8031 40.9286C20.8895 40.8705 22.0438 40.8873 23.1037 40.979C22.7185 40.0523 22.3921 38.9452 22.1795 37.8452ZM23.1787 33.8518C23.1283 33.8525 22.2997 34.4613 22.7366 35.3493C23.4941 34.5175 23.2 33.8518 23.1787 33.8518Z" fill="#D84200"/>
</svg>
