<svg width="24" height="24" viewBox="0 0 24 24" fill="none" xmlns="http://www.w3.org/2000/svg">
<path d="M19.7142 6.85658H4.71422M5.57136 19.7137H18.4285C19.1386 19.7137 19.7142 19.1381 19.7142 18.428V5.57087C19.7142 4.86079 19.1386 4.28516 18.4285 4.28516H5.57136C4.86128 4.28516 4.28564 4.86079 4.28564 5.57087V18.428C4.28564 19.1381 4.86128 19.7137 5.57136 19.7137Z" stroke="#3595E3"/>
<path d="M12.4257 9.85742L10.9345 15.6003L11.7295 15.8202L13.2207 10.0773L12.4257 9.85742ZM9.65147 10.8397L10.2335 11.4403L8.87834 12.8387L10.2335 14.2371L9.65147 14.8377L7.71436 12.8387L9.65147 10.8397ZM14.3487 14.8377L13.7666 14.2372L15.1218 12.8387L13.7666 11.4403L14.3487 10.8397L16.2858 12.8387L14.3487 14.8377Z" fill="#3595E3"/>
</svg>
