<svg width="24" height="24" viewBox="0 0 24 24" fill="none" xmlns="http://www.w3.org/2000/svg">
<path d="M13.8758 1.42176H3.66276V21.6662H20.0511V6.92024L13.8758 1.42176Z" fill="#F9EAEA" fill-opacity="0.68"/>
<path d="M14.3875 1C14.4429 0.999957 14.4977 1.01084 14.5489 1.03201C14.6001 1.05318 14.6467 1.08417 14.6859 1.12333L20.5905 7.02795C20.6297 7.06715 20.6607 7.11373 20.6819 7.16493C20.703 7.21612 20.7139 7.27098 20.7139 7.32638V20.8227C20.7139 21.1582 20.5807 21.4802 20.3434 21.7175C20.1061 21.9548 19.7842 22.0879 19.4486 22.0879H4.26528C3.9297 22.0879 3.60774 21.9548 3.37045 21.7175C3.13317 21.4802 3 21.1582 3 20.8227V2.26528C3 1.9297 3.13317 1.60774 3.37045 1.37045C3.60774 1.13317 3.9297 1 4.26528 1H14.3875ZM4.26528 1.84352C4.15342 1.84352 4.04594 1.88775 3.96684 1.96684C3.88775 2.04594 3.84352 2.15342 3.84352 2.26528V20.8227C3.84352 20.9345 3.88775 21.042 3.96684 21.1211C4.04594 21.2002 4.15342 21.2444 4.26528 21.2444H19.4486C19.5604 21.2444 19.6679 21.2002 19.747 21.1211C19.8261 21.042 19.8703 20.9345 19.8703 20.8227V7.74814H14.3875C14.2756 7.74814 14.1681 7.70391 14.0891 7.62481C14.01 7.54572 13.9657 7.43824 13.9657 7.32638V1.84352H4.26528Z" fill="#D84200"/>
<path d="M6.9917 19.3325C6.84341 19.2841 6.71664 19.189 6.62456 19.0581C6.2897 18.5791 6.35129 18.1892 6.46251 17.9459C6.76807 17.2768 7.86472 16.8313 9.72437 16.6208C10.827 15.4249 12.0056 13.8923 12.8439 12.5643C12.7219 11.4981 12.7022 10.1605 13.235 9.55415C13.4215 9.34187 13.6159 9.19537 13.8885 9.19418C13.9962 9.19358 14.2557 9.23304 14.346 9.26294C14.5612 9.3335 14.6593 9.67254 14.737 9.88661C14.8106 10.0881 14.984 10.5216 13.6266 12.7365C13.8126 14.113 14.2306 15.5899 14.74 16.674C15.3326 16.7565 15.8307 16.8624 16.223 16.9909C16.8909 17.2098 17.2449 17.4986 17.3047 17.8735C17.3543 18.1839 17.1964 18.4757 16.8365 18.7406C16.4896 18.9953 16.1046 19.0634 15.7231 18.9385C15.204 18.7687 14.7077 18.2431 14.2461 17.3748C12.9527 17.2313 11.3915 17.2194 10.0855 17.3443C9.481 17.9841 8.93925 18.4816 8.47464 18.8249C7.83542 19.2925 7.36483 19.4545 6.9917 19.3325ZM8.84417 17.5177C7.76426 17.7312 7.2548 18.0308 7.15016 18.2592C7.13282 18.2969 7.08738 18.3967 7.23746 18.615C7.30743 18.615 7.73377 18.5677 8.84417 17.5177ZM15.283 17.5297C15.5431 17.9112 15.5837 18.0744 15.811 18.1486C15.9108 18.1815 16.1966 18.2706 16.3886 18.1294C16.4813 18.0613 16.5249 18.0122 16.5447 17.9847C16.501 17.9399 16.4502 17.861 16.0711 17.7366C15.8558 17.666 15.5819 17.5871 15.283 17.5297ZM13.0167 13.6771C12.3655 14.6326 11.5894 15.6401 10.818 16.5299C11.8232 16.4761 12.8911 16.4916 13.8718 16.5765C13.5154 15.7191 13.2134 14.6948 13.0167 13.6771ZM13.9412 9.98228C13.8945 9.98288 13.1279 10.5462 13.5322 11.3677C14.233 10.5982 13.9609 9.98228 13.9412 9.98228Z" fill="#D84200"/>
</svg>
