<svg width="56" height="56" viewBox="0 0 56 56" fill="none" xmlns="http://www.w3.org/2000/svg">
<path d="M46.1191 18.6309L33.8691 6.38094C33.7877 6.29971 33.6912 6.2353 33.585 6.19138C33.4788 6.14747 33.3649 6.12491 33.25 6.125H12.25C11.5538 6.125 10.8861 6.40156 10.3938 6.89385C9.90156 7.38613 9.625 8.05381 9.625 8.75V47.25C9.625 47.9462 9.90156 48.6139 10.3938 49.1062C10.8861 49.5984 11.5538 49.875 12.25 49.875H43.75C44.4462 49.875 45.1139 49.5984 45.6062 49.1062C46.0984 48.6139 46.375 47.9462 46.375 47.25V19.25C46.3751 19.1351 46.3525 19.0212 46.3086 18.915C46.2647 18.8088 46.2003 18.7123 46.1191 18.6309ZM34.125 9.11094L43.3869 18.375H34.125V9.11094ZM43.75 48.125H12.25C12.0179 48.125 11.7954 48.0328 11.6313 47.8687C11.4672 47.7046 11.375 47.4821 11.375 47.25V8.75C11.375 8.51794 11.4672 8.29538 11.6313 8.13128C11.7954 7.96719 12.0179 7.875 12.25 7.875H32.375V19.25C32.375 19.4821 32.4672 19.7046 32.6313 19.8687C32.7954 20.0328 33.0179 20.125 33.25 20.125H44.625V47.25C44.625 47.4821 44.5328 47.7046 44.3687 47.8687C44.2046 48.0328 43.9821 48.125 43.75 48.125Z" fill="#54697A"/>
<path d="M22.25 33.5C22.6642 33.5 23 33.8358 23 34.25C23 34.6642 22.6642 35 22.25 35H15.75C15.3358 35 15 34.6642 15 34.25C15 33.8358 15.3358 33.5 15.75 33.5H22.25Z" fill="#54697A"/>
<path d="M27.25 36.6992C27.6642 36.6992 28 37.035 28 37.4492C28 37.8634 27.6642 38.1992 27.25 38.1992H15.75C15.3358 38.1992 15 37.8634 15 37.4492C15 37.035 15.3358 36.6992 15.75 36.6992H27.25Z" fill="#54697A"/>
<path d="M27.25 39.8984C27.6642 39.8984 28 40.2342 28 40.6484C28 41.0627 27.6642 41.3984 27.25 41.3984H15.75C15.3358 41.3984 15 41.0627 15 40.6484C15 40.2342 15.3358 39.8984 15.75 39.8984H27.25Z" fill="#54697A"/>
<path d="M27.25 43.0977C27.6642 43.0977 28 43.4334 28 43.8477C28 44.2619 27.6642 44.5977 27.25 44.5977H15.75C15.3358 44.5977 15 44.2619 15 43.8477C15 43.4334 15.3358 43.0977 15.75 43.0977H27.25Z" fill="#54697A"/>
</svg>
