<svg width="56" height="56" viewBox="0 0 56 56" fill="none" xmlns="http://www.w3.org/2000/svg">
<path d="M46.1191 18.6309L33.8691 6.38094C33.7877 6.29971 33.6912 6.2353 33.585 6.19138C33.4788 6.14747 33.3649 6.12491 33.25 6.125H12.25C11.5538 6.125 10.8861 6.40156 10.3938 6.89385C9.90156 7.38613 9.625 8.05381 9.625 8.75V47.25C9.625 47.9462 9.90156 48.6139 10.3938 49.1062C10.8861 49.5984 11.5538 49.875 12.25 49.875H43.75C44.4462 49.875 45.1139 49.5984 45.6062 49.1062C46.0984 48.6139 46.375 47.9462 46.375 47.25V19.25C46.3751 19.1351 46.3525 19.0212 46.3086 18.915C46.2647 18.8088 46.2003 18.7123 46.1191 18.6309ZM34.125 9.11094L43.3869 18.375H34.125V9.11094ZM43.75 48.125H12.25C12.0179 48.125 11.7954 48.0328 11.6313 47.8687C11.4672 47.7046 11.375 47.4821 11.375 47.25V8.75C11.375 8.51794 11.4672 8.29538 11.6313 8.13128C11.7954 7.96719 12.0179 7.875 12.25 7.875H32.375V19.25C32.375 19.4821 32.4672 19.7046 32.6313 19.8687C32.7954 20.0328 33.0179 20.125 33.25 20.125H44.625V47.25C44.625 47.4821 44.5328 47.7046 44.3687 47.8687C44.2046 48.0328 43.9821 48.125 43.75 48.125Z" fill="#54697A"/>
<path d="M36.5049 34.0049H35.9822C35.808 31.4741 34.3501 29.2368 32.2319 28.0081H34.0933C34.3042 28.5858 34.8544 29.0076 35.5054 29.0076C36.3306 29.0076 37 28.329 37 27.5038C37 26.6785 36.3306 26 35.5054 26C34.8544 26 34.3042 26.4218 34.0933 26.9995H30.0038V26.5043C30.0038 26.2292 29.7745 26 29.4995 26H27.5005C27.2255 26 27.0054 26.2292 27.0054 26.5043V26.9995H22.9067C22.705 26.4218 22.1548 26 21.5038 26C20.6785 26 20 26.6785 20 27.5038C20 28.329 20.6785 29.0076 21.5038 29.0076C22.1548 29.0076 22.705 28.5858 22.9067 28.0081H24.7772C22.6499 29.2368 21.192 31.4741 21.027 34.0049H20.5043C20.2292 34.0049 20 34.2249 20 34.5V36.5081C20 36.7832 20.2292 37.0032 20.5043 37.0032H22.5032C22.7783 37.0032 22.9984 36.7832 22.9984 36.5081V34.5C22.9984 34.2249 22.7783 34.0049 22.5032 34.0049H22.0448C22.2648 31.2082 24.2821 28.8517 27.0054 28.2098V28.5032C27.0054 28.7783 27.2255 29.0076 27.5005 29.0076H29.4995C29.7745 29.0076 30.0038 28.7783 30.0038 28.5032V28.2098C32.7179 28.8517 34.7352 31.2082 34.9552 34.0049H34.5059C34.2217 34.0049 34.0016 34.2249 34.0016 34.5V36.5081C34.0016 36.7832 34.2217 37.0032 34.5059 37.0032H36.5049C36.7799 37.0032 37 36.7832 37 36.5081V34.5C37 34.2249 36.7799 34.0049 36.5049 34.0049Z" fill="#049CAB"/>
</svg>
