<svg width="24" height="24" viewBox="0 0 24 24" fill="none" xmlns="http://www.w3.org/2000/svg">
<rect x="4.35718" y="3.92773" width="15.2857" height="16.1429" rx="0.785714" fill="white" stroke="#049CAB"/>
<path d="M15.9528 13.2156H15.7055C15.6231 12.018 14.9332 10.9594 13.9309 10.3779H14.8117C14.9115 10.6513 15.1718 10.8509 15.4799 10.8509C15.8704 10.8509 16.1871 10.5298 16.1871 10.1393C16.1871 9.74881 15.8704 9.42773 15.4799 9.42773C15.1718 9.42773 14.9115 9.62732 14.8117 9.90067H12.8765V9.66637C12.8765 9.53621 12.7681 9.42773 12.6379 9.42773H11.692C11.5619 9.42773 11.4577 9.53621 11.4577 9.66637V9.90067H9.51825C9.42279 9.62732 9.16246 9.42773 8.8544 9.42773C8.4639 9.42773 8.14282 9.74881 8.14282 10.1393C8.14282 10.5298 8.4639 10.8509 8.8544 10.8509C9.16246 10.8509 9.42279 10.6513 9.51825 10.3779H10.4034C9.39676 10.9594 8.70688 12.018 8.62878 13.2156H8.38146C8.25129 13.2156 8.14282 13.3197 8.14282 13.4499V14.4001C8.14282 14.5303 8.25129 14.6344 8.38146 14.6344H9.32734C9.4575 14.6344 9.56164 14.5303 9.56164 14.4001V13.4499C9.56164 13.3197 9.4575 13.2156 9.32734 13.2156H9.11039C9.21453 11.8922 10.1691 10.7771 11.4577 10.4734V10.6122C11.4577 10.7424 11.5619 10.8509 11.692 10.8509H12.6379C12.7681 10.8509 12.8765 10.7424 12.8765 10.6122V10.4734C14.1609 10.7771 15.1154 11.8922 15.2195 13.2156H15.0069C14.8724 13.2156 14.7683 13.3197 14.7683 13.4499V14.4001C14.7683 14.5303 14.8724 14.6344 15.0069 14.6344H15.9528C16.083 14.6344 16.1871 14.5303 16.1871 14.4001V13.4499C16.1871 13.3197 16.083 13.2156 15.9528 13.2156Z" fill="#049CAB"/>
</svg>
