<svg width="24" height="24" viewBox="0 0 24 24" fill="none" xmlns="http://www.w3.org/2000/svg">
<rect x="4.35693" y="3.92773" width="15.2857" height="16.1429" rx="0.785714" fill="white" stroke="#049CAB"/>
<path d="M15.9526 13.2156H15.7052C15.6228 12.018 14.9329 10.9594 13.9306 10.3779H14.8114C14.9112 10.6513 15.1716 10.8509 15.4796 10.8509C15.8701 10.8509 16.1869 10.5298 16.1869 10.1393C16.1869 9.74881 15.8701 9.42773 15.4796 9.42773C15.1716 9.42773 14.9112 9.62732 14.8114 9.90067H12.8763V9.66637C12.8763 9.53621 12.7678 9.42773 12.6377 9.42773H11.6918C11.5616 9.42773 11.4575 9.53621 11.4575 9.66637V9.90067H9.518C9.42255 9.62732 9.16222 9.42773 8.85415 9.42773C8.46366 9.42773 8.14258 9.74881 8.14258 10.1393C8.14258 10.5298 8.46366 10.8509 8.85415 10.8509C9.16222 10.8509 9.42255 10.6513 9.518 10.3779H10.4031C9.39651 10.9594 8.70663 12.018 8.62853 13.2156H8.38122C8.25105 13.2156 8.14258 13.3197 8.14258 13.4499V14.4001C8.14258 14.5303 8.25105 14.6344 8.38122 14.6344H9.32709C9.45726 14.6344 9.56139 14.5303 9.56139 14.4001V13.4499C9.56139 13.3197 9.45726 13.2156 9.32709 13.2156H9.11015C9.21428 11.8922 10.1688 10.7771 11.4575 10.4734V10.6122C11.4575 10.7424 11.5616 10.8509 11.6918 10.8509H12.6377C12.7678 10.8509 12.8763 10.7424 12.8763 10.6122V10.4734C14.1606 10.7771 15.1152 11.8922 15.2193 13.2156H15.0067C14.8722 13.2156 14.7681 13.3197 14.7681 13.4499V14.4001C14.7681 14.5303 14.8722 14.6344 15.0067 14.6344H15.9526C16.0827 14.6344 16.1869 14.5303 16.1869 14.4001V13.4499C16.1869 13.3197 16.0827 13.2156 15.9526 13.2156Z" fill="#049CAB"/>
</svg>
