<svg width="56" height="56" viewBox="0 0 56 56" fill="none" xmlns="http://www.w3.org/2000/svg">
<path d="M46.1191 18.6309L33.8691 6.38094C33.7877 6.29971 33.6912 6.2353 33.585 6.19138C33.4788 6.14747 33.3649 6.12491 33.25 6.125H12.25C11.5538 6.125 10.8861 6.40156 10.3938 6.89385C9.90156 7.38613 9.625 8.05381 9.625 8.75V47.25C9.625 47.9462 9.90156 48.6139 10.3938 49.1062C10.8861 49.5984 11.5538 49.875 12.25 49.875H43.75C44.4462 49.875 45.1139 49.5984 45.6062 49.1062C46.0984 48.6139 46.375 47.9462 46.375 47.25V19.25C46.3751 19.1351 46.3525 19.0212 46.3086 18.915C46.2647 18.8088 46.2003 18.7123 46.1191 18.6309ZM34.125 9.11094L43.3869 18.375H34.125V9.11094ZM43.75 48.125H12.25C12.0179 48.125 11.7954 48.0328 11.6313 47.8687C11.4672 47.7046 11.375 47.4821 11.375 47.25V8.75C11.375 8.51794 11.4672 8.29538 11.6313 8.13128C11.7954 7.96719 12.0179 7.875 12.25 7.875H32.375V19.25C32.375 19.4821 32.4672 19.7046 32.6313 19.8687C32.7954 20.0328 33.0179 20.125 33.25 20.125H44.625V47.25C44.625 47.4821 44.5328 47.7046 44.3687 47.8687C44.2046 48.0328 43.9821 48.125 43.75 48.125Z" fill="#54697A"/>
<path d="M15 33.5V28.833C15 28.5108 15.2608 28.25 15.583 28.25C15.9052 28.25 16.166 28.5108 16.166 28.833V33.5C16.1658 33.822 15.9051 34.083 15.583 34.083C15.261 34.083 15.0002 33.822 15 33.5Z" fill="url(#paint0_linear_3571_21824)"/>
<path d="M19.166 35.25V27.083C19.166 26.7608 19.4269 26.5 19.749 26.5C20.0712 26.5 20.332 26.7608 20.332 27.083V35.25C20.3319 35.572 20.0711 35.833 19.749 35.833C19.427 35.833 19.1662 35.572 19.166 35.25Z" fill="url(#paint1_linear_3571_21824)"/>
<path d="M23.332 36.417V25.917C23.332 25.5948 23.5929 25.334 23.915 25.334C24.2372 25.334 24.498 25.5948 24.498 25.917V36.417C24.498 36.7392 24.2372 37 23.915 37C23.5929 37 23.332 36.7392 23.332 36.417Z" fill="url(#paint2_linear_3571_21824)"/>
<path d="M27.498 38.75V23.583C27.498 23.2608 27.7589 23 28.0811 23C28.4032 23 28.6641 23.2608 28.6641 23.583V38.75C28.6639 39.072 28.4031 39.333 28.0811 39.333C27.759 39.333 27.4982 39.072 27.498 38.75Z" fill="url(#paint3_linear_3571_21824)"/>
<path d="M31.6641 36.417V25.917C31.6641 25.5948 31.9249 25.334 32.2471 25.334C32.5692 25.334 32.8301 25.5948 32.8301 25.917V36.417C32.8301 36.7392 32.5692 37 32.2471 37C31.9249 37 31.6641 36.7392 31.6641 36.417Z" fill="url(#paint4_linear_3571_21824)"/>
<path d="M35.8301 35.25V27.083C35.8301 26.7608 36.0909 26.5 36.4131 26.5C36.7353 26.5 36.9961 26.7608 36.9961 27.083V35.25C36.9959 35.572 36.7351 35.833 36.4131 35.833C36.091 35.833 35.8303 35.572 35.8301 35.25Z" fill="url(#paint5_linear_3571_21824)"/>
<path d="M39.9961 33.5V28.833C39.9961 28.5108 40.2569 28.25 40.5791 28.25C40.9013 28.25 41.1621 28.5108 41.1621 28.833V33.5C41.1619 33.822 40.9012 34.083 40.5791 34.083C40.257 34.083 39.9963 33.822 39.9961 33.5Z" fill="url(#paint6_linear_3571_21824)"/>
<defs>
<linearGradient id="paint0_linear_3571_21824" x1="16.083" y1="28.833" x2="16.083" y2="33.4997" gradientUnits="userSpaceOnUse">
<stop stop-color="#9900CC"/>
<stop offset="1" stop-color="#DCABFF"/>
</linearGradient>
<linearGradient id="paint1_linear_3571_21824" x1="20.249" y1="27.083" x2="20.249" y2="35.2497" gradientUnits="userSpaceOnUse">
<stop stop-color="#9900CC"/>
<stop offset="1" stop-color="#DCABFF"/>
</linearGradient>
<linearGradient id="paint2_linear_3571_21824" x1="24.415" y1="25.917" x2="24.415" y2="36.417" gradientUnits="userSpaceOnUse">
<stop stop-color="#9900CC"/>
<stop offset="1" stop-color="#DCABFF"/>
</linearGradient>
<linearGradient id="paint3_linear_3571_21824" x1="28.5811" y1="23.583" x2="28.5811" y2="38.7497" gradientUnits="userSpaceOnUse">
<stop stop-color="#9900CC"/>
<stop offset="1" stop-color="#DCABFF"/>
</linearGradient>
<linearGradient id="paint4_linear_3571_21824" x1="32.7471" y1="25.917" x2="32.7471" y2="36.417" gradientUnits="userSpaceOnUse">
<stop stop-color="#9900CC"/>
<stop offset="1" stop-color="#DCABFF"/>
</linearGradient>
<linearGradient id="paint5_linear_3571_21824" x1="36.9131" y1="27.083" x2="36.9131" y2="35.2497" gradientUnits="userSpaceOnUse">
<stop stop-color="#9900CC"/>
<stop offset="1" stop-color="#DCABFF"/>
</linearGradient>
<linearGradient id="paint6_linear_3571_21824" x1="41.0791" y1="28.833" x2="41.0791" y2="33.4997" gradientUnits="userSpaceOnUse">
<stop stop-color="#9900CC"/>
<stop offset="1" stop-color="#DCABFF"/>
</linearGradient>
</defs>
</svg>
