<svg width="24" height="24" viewBox="0 0 24 24" fill="none" xmlns="http://www.w3.org/2000/svg">
<g clip-path="url(#clip0_4374_20676)">
<rect x="2" y="2" width="20" height="20" rx="2.22235" fill="#E2BAFF"/>
<path d="M16.1901 12.9682C16.7291 12.3049 17.7417 12.3049 18.2807 12.9682L26.5319 23.1227C27.2471 24.0029 26.6207 25.3189 25.4866 25.3189H8.98419C7.85005 25.3189 7.22368 24.0029 7.93889 23.1227L16.1901 12.9682Z" fill="#F3E2FF"/>
<path d="M7.58043 12.2927C8.38913 11.2879 9.91956 11.2878 10.7283 12.2927L19.9229 23.7176C20.9868 25.0395 20.0458 27.0046 18.349 27.0046H-0.0403349C-1.73712 27.0046 -2.67808 25.0395 -1.61425 23.7176L7.58043 12.2927Z" fill="#CD89FF"/>
<path d="M17.5553 8.39092C17.5553 9.15802 16.9334 9.77989 16.1663 9.77989C15.3992 9.77989 14.7773 9.15802 14.7773 8.39092C14.7773 7.62381 15.3992 7.00195 16.1663 7.00195C16.9334 7.00195 17.5553 7.62381 17.5553 8.39092Z" fill="white"/>
</g>
<defs>
<clipPath id="clip0_4374_20676">
<rect x="2" y="2" width="20" height="20" rx="2.22235" fill="white"/>
</clipPath>
</defs>
</svg>
