<svg width="56" height="56" viewBox="0 0 56 56" fill="none" xmlns="http://www.w3.org/2000/svg">
<path d="M46.1191 18.6309L33.8691 6.38094C33.7877 6.29971 33.6912 6.2353 33.585 6.19138C33.4788 6.14747 33.3649 6.12491 33.25 6.125H12.25C11.5538 6.125 10.8861 6.40156 10.3938 6.89385C9.90156 7.38613 9.625 8.05381 9.625 8.75V47.25C9.625 47.9462 9.90156 48.6139 10.3938 49.1062C10.8861 49.5984 11.5538 49.875 12.25 49.875H43.75C44.4462 49.875 45.1139 49.5984 45.6062 49.1062C46.0984 48.6139 46.375 47.9462 46.375 47.25V19.25C46.3751 19.1351 46.3525 19.0212 46.3086 18.915C46.2647 18.8088 46.2003 18.7123 46.1191 18.6309ZM34.125 9.11094L43.3869 18.375H34.125V9.11094ZM43.75 48.125H12.25C12.0179 48.125 11.7954 48.0328 11.6313 47.8687C11.4672 47.7046 11.375 47.4821 11.375 47.25V8.75C11.375 8.51794 11.4672 8.29538 11.6313 8.13128C11.7954 7.96719 12.0179 7.875 12.25 7.875H32.375V19.25C32.375 19.4821 32.4672 19.7046 32.6313 19.8687C32.7954 20.0328 33.0179 20.125 33.25 20.125H44.625V47.25C44.625 47.4821 44.5328 47.7046 44.3687 47.8687C44.2046 48.0328 43.9821 48.125 43.75 48.125Z" fill="#54697A"/>
<path fill-rule="evenodd" clip-rule="evenodd" d="M25.5813 36.3952C25.8577 37.0625 26 37.7777 26 38.5H20.5V33C21.2223 33 21.9375 33.1423 22.6048 33.4187C23.2721 33.6951 23.8784 34.1002 24.3891 34.6109C24.8998 35.1216 25.3049 35.7279 25.5813 36.3952ZM22.5548 42.1667C23.0081 41.4884 23.25 40.6908 23.25 39.875H19.125V35.75C18.3092 35.75 17.5116 35.9919 16.8333 36.4452C16.1549 36.8985 15.6262 37.5427 15.314 38.2964C15.0018 39.0502 14.9201 39.8796 15.0793 40.6798C15.2384 41.4799 15.6313 42.2149 16.2082 42.7918C16.7851 43.3687 17.5201 43.7616 18.3202 43.9207C19.1204 44.0799 19.9498 43.9982 20.7036 43.686C21.4573 43.3738 22.1015 42.8451 22.5548 42.1667Z" fill="#FF6700"/>
<path fill-rule="evenodd" clip-rule="evenodd" d="M4.4308 17H28.5692C28.9625 17 29.3204 17.1821 29.5801 17.4754C29.8392 17.768 30 18.1703 30 18.6116V26.3883C30 26.8297 29.8392 27.232 29.5801 27.5246C29.3204 27.8179 28.9625 28 28.5692 28H4.4308C4.03753 28 3.6796 27.8179 3.41985 27.5246C3.16082 27.2321 3 26.8298 3 26.3883V18.6116C3 18.1703 3.16082 17.768 3.41985 17.4754C3.67957 17.1821 4.03749 17 4.4308 17Z" fill="#FF6700"/>
<path d="M8 26.3333V19H10.2956C11.1653 19 11.733 19.0376 11.997 19.111C12.403 19.2203 12.7446 19.4593 13.0186 19.8281C13.2925 20.1969 13.4295 20.6733 13.4295 21.2555C13.4295 21.7063 13.3503 22.0853 13.1919 22.3909C13.0335 22.6982 12.8338 22.939 12.5895 23.1149C12.3469 23.289 12.0994 23.4051 11.8485 23.4615C11.5069 23.5315 11.0118 23.5673 10.3632 23.5673H9.4308V26.3333H8ZM9.43082 20.2413V22.3209H10.2131C10.7775 22.3209 11.1554 22.2833 11.3452 22.2065C11.535 22.1297 11.6835 22.0102 11.7924 21.8463C11.8997 21.6823 11.9542 21.4928 11.9542 21.276C11.9542 21.0096 11.8782 20.7894 11.7264 20.6152C11.5762 20.4428 11.3832 20.3335 11.1521 20.2908C10.9805 20.2566 10.6372 20.2413 10.1223 20.2413H9.4308L9.43082 20.2413ZM14.6045 26.3333V19H16.9001C17.7698 19 18.3376 19.0376 18.6016 19.111C19.0076 19.2203 19.3492 19.4593 19.6232 19.8281C19.8971 20.1969 20.0341 20.6733 20.0341 21.2555C20.0341 21.7063 19.9549 22.0853 19.7964 22.3909C19.638 22.6982 19.4383 22.939 19.1941 23.1149C18.9515 23.289 18.7039 23.4051 18.4531 23.4615C18.1115 23.5315 17.6164 23.5673 16.9678 23.5673H16.0354V26.3333H14.6045ZM16.0354 20.2413V22.3209H16.8176C17.382 22.3209 17.7599 22.2833 17.9497 22.2065C18.1395 22.1297 18.2881 22.0102 18.397 21.8463C18.5042 21.6823 18.5587 21.4928 18.5587 21.276C18.5587 21.0096 18.4828 20.7894 18.331 20.6152C18.1808 20.4428 17.9877 20.3335 17.7566 20.2908C17.585 20.2566 17.2418 20.2413 16.7269 20.2413H16.0354V20.2413ZM22.8033 26.3333V20.2413H20.7008V19H26.3333V20.2413H24.2358V26.3333H22.8033Z" fill="white"/>
</svg>
