<svg width="56" height="56" viewBox="0 0 56 56" fill="none" xmlns="http://www.w3.org/2000/svg">
<path d="M46.1191 18.6309L33.8691 6.38094C33.7877 6.29971 33.6912 6.2353 33.585 6.19138C33.4788 6.14747 33.3649 6.12491 33.25 6.125H12.25C11.5538 6.125 10.8861 6.40156 10.3938 6.89385C9.90156 7.38613 9.625 8.05381 9.625 8.75V47.25C9.625 47.9462 9.90156 48.6139 10.3938 49.1062C10.8861 49.5984 11.5538 49.875 12.25 49.875H43.75C44.4462 49.875 45.1139 49.5984 45.6062 49.1062C46.0984 48.6139 46.375 47.9462 46.375 47.25V19.25C46.3751 19.1351 46.3525 19.0212 46.3086 18.915C46.2647 18.8088 46.2003 18.7123 46.1191 18.6309ZM34.125 9.11094L43.3869 18.375H34.125V9.11094ZM43.75 48.125H12.25C12.0179 48.125 11.7954 48.0328 11.6313 47.8687C11.4672 47.7046 11.375 47.4821 11.375 47.25V8.75C11.375 8.51794 11.4672 8.29538 11.6313 8.13128C11.7954 7.96719 12.0179 7.875 12.25 7.875H32.375V19.25C32.375 19.4821 32.4672 19.7046 32.6313 19.8687C32.7954 20.0328 33.0179 20.125 33.25 20.125H44.625V47.25C44.625 47.4821 44.5328 47.7046 44.3687 47.8687C44.2046 48.0328 43.9821 48.125 43.75 48.125Z" fill="#54697A"/>
<path fill-rule="evenodd" clip-rule="evenodd" d="M28.2939 23.2052C28.1571 22.9316 27.7666 22.9316 27.6297 23.2052L24.7496 28.9655C24.6262 29.2124 24.8057 29.5029 25.0817 29.5029H30.842C31.118 29.5029 31.2975 29.2124 31.1741 28.9655L28.2939 23.2052ZM21 34.7242C21 33.1222 22.2987 31.8235 23.9008 31.8235C25.5028 31.8235 26.8015 33.1222 26.8015 34.7242C26.8015 36.3263 25.5028 37.625 23.9008 37.625C22.2987 37.625 21 36.3263 21 34.7242ZM29.1221 32.1948C29.1221 31.9897 29.2884 31.8235 29.4934 31.8235H34.5524C34.7573 31.8235 34.9237 31.9897 34.9237 32.1948V37.2537C34.9237 37.4588 34.7573 37.625 34.5524 37.625H29.4934C29.2884 37.625 29.1221 37.4588 29.1221 37.2537V32.1948Z" fill="#3B44A6"/>
</svg>
