<svg width="24" height="24" viewBox="0 0 24 24" fill="none" xmlns="http://www.w3.org/2000/svg">
<path d="M14.0515 1.42H3.67347V21.58H20.3265V6.89556L14.0515 1.42Z" fill="#F1F9FF"/>
<path d="M7.26215 17.1253H16.7518C16.8431 17.1253 16.9306 17.1608 16.9952 17.2239C17.0599 17.2871 17.0963 17.3728 17.0965 17.4622C17.0965 17.5518 17.0602 17.6377 16.9956 17.7011C16.9309 17.7644 16.8433 17.8 16.7518 17.8H7.26215C7.21692 17.8 7.17214 17.7913 7.13037 17.7743C7.0886 17.7573 7.05068 17.7324 7.01873 17.701C6.9868 17.6696 6.9615 17.6324 6.94428 17.5914C6.92706 17.5504 6.91825 17.5065 6.91837 17.4622C6.91837 17.3728 6.95459 17.2872 7.01907 17.224C7.08354 17.1608 7.17097 17.1253 7.26215 17.1253Z" fill="#0072FF"/>
<path d="M7.26215 15.1102H16.7518C16.8431 15.1102 16.9306 15.1457 16.9952 15.2088C17.0599 15.272 17.0963 15.3576 17.0965 15.4471C17.0965 15.5366 17.0602 15.6226 16.9956 15.686C16.9309 15.7493 16.8433 15.7849 16.7518 15.7849H7.26215C7.21692 15.7849 7.17214 15.7761 7.13037 15.7592C7.0886 15.7422 7.05068 15.7173 7.01873 15.6859C6.9868 15.6546 6.9615 15.6173 6.94428 15.5763C6.92706 15.5353 6.91825 15.4914 6.91837 15.4471C6.91837 15.3577 6.95459 15.2721 7.01907 15.2088C7.08354 15.1457 7.17097 15.1102 7.26215 15.1102Z" fill="#0072FF"/>
<path d="M7.26215 13.0951H16.7518C16.8433 13.0951 16.9309 13.1307 16.9956 13.194C17.0602 13.2574 17.0965 13.3433 17.0965 13.4329C17.0963 13.5223 17.0599 13.608 16.9952 13.6712C16.9306 13.7343 16.8431 13.7698 16.7518 13.7698H7.26215C7.17097 13.7698 7.08354 13.7343 7.01907 13.6712C6.95459 13.6079 6.91837 13.5223 6.91837 13.4329C6.91825 13.3886 6.92706 13.3447 6.94428 13.3037C6.9615 13.2627 6.9868 13.2254 7.01873 13.1941C7.05068 13.1627 7.0886 13.1378 7.13037 13.1209C7.17214 13.1038 7.21692 13.0951 7.26215 13.0951Z" fill="#0072FF"/>
<path d="M7.26215 11.08H13.0071C13.0523 11.08 13.0971 11.0887 13.1388 11.1058C13.1806 11.1227 13.2185 11.1476 13.2505 11.179C13.2824 11.2103 13.3077 11.2476 13.3249 11.2886C13.3422 11.3295 13.351 11.3735 13.3508 11.4178C13.3508 11.5072 13.3146 11.5928 13.2501 11.6561C13.1857 11.7192 13.0982 11.7547 13.0071 11.7547H7.26215C7.17097 11.7547 7.08354 11.7192 7.01907 11.6561C6.95459 11.5928 6.91837 11.5072 6.91837 11.4178C6.91825 11.3735 6.92706 11.3295 6.94428 11.2886C6.9615 11.2476 6.9868 11.2103 7.01873 11.179C7.05068 11.1476 7.0886 11.1227 7.13037 11.1058C7.17214 11.0887 7.21692 11.08 7.26215 11.08Z" fill="#0072FF"/>
<path fill-rule="evenodd" clip-rule="evenodd" d="M14.5714 1C14.6277 0.999957 14.6835 1.0108 14.7355 1.03188C14.7875 1.05295 14.8349 1.08382 14.8747 1.12281L20.8747 7.00281C20.9145 7.04185 20.946 7.08823 20.9675 7.13922C20.989 7.1902 21 7.24483 21 7.3V20.74C21 21.0742 20.8647 21.3948 20.6236 21.6311C20.3824 21.8674 20.0553 22 19.7143 22H4.28571C3.94472 22 3.61755 21.8674 3.37643 21.6311C3.13532 21.3948 3 21.0742 3 20.74V2.26C3 1.92583 3.13532 1.6052 3.37643 1.36891C3.61755 1.13261 3.94472 1 4.28571 1H14.5714ZM4.28571 1.84C4.17205 1.84 4.06283 1.88405 3.98246 1.96281C3.90209 2.04158 3.85714 2.14861 3.85714 2.26V20.74C3.85714 20.8514 3.90209 20.9584 3.98246 21.0372C4.06283 21.116 4.17205 21.16 4.28571 21.16H19.7143C19.828 21.16 19.9372 21.116 20.0175 21.0372C20.0979 20.9584 20.1429 20.8514 20.1429 20.74V7.72H14.5714C14.4578 7.72 14.3485 7.67595 14.2682 7.59719C14.1878 7.51842 14.1429 7.41139 14.1429 7.3V1.84H4.28571Z" fill="#0072FF"/>
</svg>
