<svg width="24" height="24" viewBox="0 0 24 24" fill="none" xmlns="http://www.w3.org/2000/svg">
<path d="M13.8678 1.4898H3.4898V22.0612H20.1429V7.0771L13.8678 1.4898Z" fill="#E4FFF2" fill-opacity="0.49"/>
<path d="M14.5714 1C14.6277 0.999956 14.6835 1.01102 14.7355 1.03253C14.7875 1.05403 14.8349 1.08553 14.8747 1.12532L20.8747 7.12532C20.9145 7.16515 20.946 7.21248 20.9675 7.26451C20.989 7.31653 21 7.37228 21 7.42857V21.1429C21 21.4839 20.8647 21.811 20.6236 22.0521C20.3824 22.2933 20.0553 22.4286 19.7143 22.4286H4.28571C3.94472 22.4286 3.61755 22.2933 3.37643 22.0521C3.13532 21.811 3 21.4839 3 21.1429V2.28571C3 1.94472 3.13532 1.61755 3.37643 1.37644C3.61755 1.13532 3.94472 1 4.28571 1H14.5714ZM4.28571 1.85714C4.17205 1.85714 4.06283 1.90209 3.98246 1.98246C3.90209 2.06283 3.85714 2.17205 3.85714 2.28571V21.1429C3.85714 21.2565 3.90209 21.3657 3.98246 21.4461C4.06283 21.5265 4.17205 21.5714 4.28571 21.5714H19.7143C19.8279 21.5714 19.9372 21.5265 20.0175 21.4461C20.0979 21.3657 20.1429 21.2565 20.1429 21.1429V7.85714H14.5714C14.4578 7.85714 14.3485 7.8122 14.2682 7.73182C14.1878 7.65145 14.1429 7.54224 14.1429 7.42857V1.85714H4.28571Z" fill="#0C9954"/>
<path fill-rule="evenodd" clip-rule="evenodd" d="M6.42857 9.1698C6.42857 8.71535 6.79539 8.34694 7.24787 8.34694H11.754C12.2065 8.34694 12.5733 8.71535 12.5733 9.1698V11.4327H16.8746C17.3271 11.4327 17.6939 11.8011 17.6939 12.2555V17.8098C17.6939 18.2642 17.3271 18.6327 16.8746 18.6327H7.24787C6.79539 18.6327 6.42857 18.2642 6.42857 17.8098V9.1698ZM7.94427 11.4327H11.0576C11.3291 11.4327 11.5492 11.2116 11.5492 10.9389V9.86922C11.5492 9.59656 11.3291 9.37551 11.0576 9.37551H7.94427C7.67279 9.37551 7.45269 9.59656 7.45269 9.86922V10.9389C7.45269 11.2116 7.67279 11.4327 7.94427 11.4327ZM7.94427 12.4612C7.67279 12.4612 7.45269 12.6823 7.45269 12.9549V14.0247C7.45269 14.2973 7.67279 14.5184 7.94427 14.5184H11.0576C11.3291 14.5184 11.5492 14.2973 11.5492 14.0247V12.9549C11.5492 12.6823 11.3291 12.4612 11.0576 12.4612H7.94427ZM12.5733 12.9549C12.5733 12.6823 12.7934 12.4612 13.0649 12.4612H16.1782C16.4497 12.4612 16.6698 12.6823 16.6698 12.9549V14.0247C16.6698 14.2973 16.4497 14.5184 16.1782 14.5184H13.0649C12.7934 14.5184 12.5733 14.2973 12.5733 14.0247V12.9549ZM7.94427 15.5469C7.67279 15.5469 7.45269 15.768 7.45269 16.0407V17.1104C7.45269 17.383 7.67279 17.6041 7.94427 17.6041H11.0576C11.3291 17.6041 11.5492 17.383 11.5492 17.1104V16.0407C11.5492 15.768 11.3291 15.5469 11.0576 15.5469H7.94427ZM12.5733 16.0407C12.5733 15.768 12.7934 15.5469 13.0649 15.5469H16.1782C16.4497 15.5469 16.6698 15.768 16.6698 16.0407V17.1104C16.6698 17.383 16.4497 17.6041 16.1782 17.6041H13.0649C12.7934 17.6041 12.5733 17.383 12.5733 17.1104V16.0407Z" fill="#0C9954"/>
</svg>
