<svg width="56" height="56" viewBox="0 0 56 56" fill="none" xmlns="http://www.w3.org/2000/svg">
<path d="M46.1191 18.6309L33.8691 6.38094C33.7877 6.29971 33.6912 6.2353 33.585 6.19138C33.4788 6.14747 33.3649 6.12491 33.25 6.125H12.25C11.5538 6.125 10.8861 6.40156 10.3938 6.89385C9.90156 7.38613 9.625 8.05381 9.625 8.75V47.25C9.625 47.9462 9.90156 48.6139 10.3938 49.1062C10.8861 49.5984 11.5538 49.875 12.25 49.875H43.75C44.4462 49.875 45.1139 49.5984 45.6062 49.1062C46.0984 48.6139 46.375 47.9462 46.375 47.25V19.25C46.3751 19.1351 46.3525 19.0212 46.3086 18.915C46.2647 18.8088 46.2003 18.7123 46.1191 18.6309ZM34.125 9.11094L43.3869 18.375H34.125V9.11094ZM43.75 48.125H12.25C12.0179 48.125 11.7954 48.0328 11.6313 47.8687C11.4672 47.7046 11.375 47.4821 11.375 47.25V8.75C11.375 8.51794 11.4672 8.29538 11.6313 8.13128C11.7954 7.96719 12.0179 7.875 12.25 7.875H32.375V19.25C32.375 19.4821 32.4672 19.7046 32.6313 19.8687C32.7954 20.0328 33.0179 20.125 33.25 20.125H44.625V47.25C44.625 47.4821 44.5328 47.7046 44.3687 47.8687C44.2046 48.0328 43.9821 48.125 43.75 48.125Z" fill="#54697A"/>
<path fill-rule="evenodd" clip-rule="evenodd" d="M4.4308 17H28.5692C28.9625 17 29.3204 17.1821 29.5801 17.4754C29.8392 17.768 30 18.1703 30 18.6116V26.3883C30 26.8297 29.8392 27.232 29.5801 27.5246C29.3204 27.8179 28.9625 28 28.5692 28H4.4308C4.03753 28 3.6796 27.8179 3.41985 27.5246C3.16082 27.2321 3 26.8298 3 26.3883V18.6116C3 18.1703 3.16082 17.768 3.41985 17.4754C3.67957 17.1821 4.03749 17 4.4308 17Z" fill="#0C9954"/>
<path d="M5 25.4145L7.15578 22.1235L5.20267 19.1072H6.69027L7.95613 21.1338L9.19411 19.1072H10.67L8.70804 22.1705L10.8638 25.4145H9.32773L7.9297 23.2337L6.52727 25.4145H5ZM11.5526 25.4145V19.1586H12.8258V24.3513H15.9919V25.4145H11.5526ZM16.5778 23.363L17.8172 23.2411C17.8907 23.6581 18.0419 23.9636 18.271 24.1589C18.4986 24.3528 18.8056 24.4511 19.1933 24.4511C19.603 24.4511 19.9128 24.3645 20.1199 24.1898C20.3284 24.0165 20.4327 23.8138 20.4327 23.5818C20.4327 23.432 20.3886 23.3057 20.3005 23.2014C20.2139 23.0957 20.0612 23.0046 19.8423 22.9283C19.694 22.8754 19.3533 22.7844 18.8232 22.6522C18.1403 22.4833 17.6616 22.2748 17.387 22.0281C16.9993 21.6815 16.8054 21.2586 16.8054 20.7593C16.8054 20.4377 16.8965 20.1381 17.0786 19.8576C17.2607 19.5786 17.5236 19.3657 17.8657 19.2188C18.2094 19.0734 18.622 19 19.1066 19C19.8996 19 20.4944 19.1733 20.8953 19.5199C21.2947 19.8679 21.5047 20.3305 21.5253 20.9105L20.2521 20.9663C20.1977 20.6418 20.0802 20.4083 19.9011 20.2673C19.7219 20.1249 19.4532 20.0544 19.0949 20.0544C18.7248 20.0544 18.434 20.1293 18.2255 20.282C18.0904 20.3789 18.0228 20.5096 18.0228 20.6726C18.0228 20.8224 18.086 20.9502 18.2123 21.0559C18.3723 21.191 18.763 21.332 19.3827 21.4774C20.0024 21.6242 20.4606 21.7755 20.7572 21.9312C21.0539 22.0883 21.2859 22.3012 21.4548 22.5729C21.6222 22.8446 21.7059 23.1794 21.7059 23.5774C21.7059 23.9386 21.606 24.2778 21.4048 24.5921C21.2037 24.9078 20.9202 25.1428 20.5531 25.2955C20.186 25.4497 19.7278 25.5261 19.18 25.5261C18.3826 25.5261 17.7703 25.3425 17.3429 24.9739C16.9156 24.6053 16.6601 24.0679 16.5778 23.363ZM22.1362 25.4145L24.292 22.1235L22.3389 19.1072H23.8265L25.0923 21.1338L26.3303 19.1072H27.8062L25.8442 22.1705L28 25.4145H26.4639L25.0659 23.2337L23.6635 25.4145H22.1362Z" fill="white"/>
<path fill-rule="evenodd" clip-rule="evenodd" d="M15 33.88C15 33.394 15.3907 33 15.8727 33H20.6727C21.1547 33 21.5455 33.394 21.5455 33.88V36.3H26.1273C26.6093 36.3 27 36.694 27 37.18V43.12C27 43.606 26.6093 44 26.1273 44H15.8727C15.3907 44 15 43.606 15 43.12V36.3V33.88ZM16.6145 36.3H19.9309C20.2201 36.3 20.4545 36.0636 20.4545 35.772V34.628C20.4545 34.3364 20.2201 34.1 19.9309 34.1H16.6145C16.3254 34.1 16.0909 34.3364 16.0909 34.628V35.772C16.0909 36.0636 16.3254 36.3 16.6145 36.3ZM16.6145 37.4C16.3254 37.4 16.0909 37.6364 16.0909 37.928V39.072C16.0909 39.3636 16.3254 39.6 16.6145 39.6H19.9309C20.2201 39.6 20.4545 39.3636 20.4545 39.072V37.928C20.4545 37.6364 20.2201 37.4 19.9309 37.4H16.6145ZM21.5455 37.928C21.5455 37.6364 21.7799 37.4 22.0691 37.4H25.3855C25.6746 37.4 25.9091 37.6364 25.9091 37.928V39.072C25.9091 39.3636 25.6746 39.6 25.3855 39.6H22.0691C21.7799 39.6 21.5455 39.3636 21.5455 39.072V37.928ZM16.6145 40.7C16.3254 40.7 16.0909 40.9364 16.0909 41.228V42.372C16.0909 42.6636 16.3254 42.9 16.6145 42.9H19.9309C20.2201 42.9 20.4545 42.6636 20.4545 42.372V41.228C20.4545 40.9364 20.2201 40.7 19.9309 40.7H16.6145ZM21.5455 41.228C21.5455 40.9364 21.7799 40.7 22.0691 40.7H25.3855C25.6746 40.7 25.9091 40.9364 25.9091 41.228V42.372C25.9091 42.6636 25.6746 42.9 25.3855 42.9H22.0691C21.7799 42.9 21.5455 42.6636 21.5455 42.372V41.228Z" fill="#0C9954"/>
</svg>
