<svg width="24" height="24" viewBox="0 0 24 24" fill="none" xmlns="http://www.w3.org/2000/svg">
<path d="M4.28564 5.57087C4.28564 4.86079 4.86128 4.28516 5.57136 4.28516H18.4285C19.1386 4.28516 19.7142 4.86079 19.7142 5.57087V18.428C19.7142 19.1381 19.1386 19.7137 18.4285 19.7137H5.57136C4.86128 19.7137 4.28564 19.1381 4.28564 18.428V5.57087Z" fill="white"/>
<path d="M7.71422 19.4994C7.71422 16.5287 7.71422 11.8923 7.71422 11.8923V4.28516M5.57136 19.7137H18.4285C19.1386 19.7137 19.7142 19.1381 19.7142 18.428V5.57087C19.7142 4.86079 19.1386 4.28516 18.4285 4.28516H5.57136C4.86128 4.28516 4.28564 4.86079 4.28564 5.57087V18.428C4.28564 19.1381 4.86128 19.7137 5.57136 19.7137Z" stroke="#00677F"/>
<path d="M4.92871 7.07059C5.0944 7.07059 5.143 7.16653 5.143 7.28488C5.143 7.40322 5.0944 7.49916 4.92871 7.49916H3.72871C3.56303 7.49916 3.42871 7.40322 3.42871 7.28488C3.42871 7.16653 3.56303 7.07059 3.72871 7.07059H4.92871Z" fill="#00677F"/>
<path d="M6.21442 7.28488C6.21442 7.04818 6.02255 6.85631 5.78585 6.85631C5.54916 6.85631 5.35728 7.04818 5.35728 7.28488C5.35728 7.52157 5.54916 7.71345 5.78585 7.71345V8.14202C5.31247 8.14202 4.92871 7.75826 4.92871 7.28488C4.92871 6.81149 5.31247 6.42773 5.78585 6.42773C6.25924 6.42773 6.643 6.81149 6.643 7.28488C6.643 7.75826 6.25924 8.14202 5.78585 8.14202V7.71345C6.02255 7.71345 6.21442 7.52157 6.21442 7.28488Z" fill="#00677F"/>
<path d="M4.92871 9.64286C5.0944 9.64286 5.143 9.7388 5.143 9.85714C5.143 9.97549 5.0944 10.0714 4.92871 10.0714H3.72871C3.56303 10.0714 3.42871 9.97549 3.42871 9.85714C3.42871 9.7388 3.56303 9.64286 3.72871 9.64286H4.92871Z" fill="#00677F"/>
<path d="M6.21442 9.85714C6.21442 9.62045 6.02255 9.42857 5.78585 9.42857C5.54916 9.42857 5.35728 9.62045 5.35728 9.85714C5.35728 10.0938 5.54916 10.2857 5.78585 10.2857V10.7143C5.31247 10.7143 4.92871 10.3305 4.92871 9.85714C4.92871 9.38376 5.31247 9 5.78585 9C6.25924 9 6.643 9.38376 6.643 9.85714C6.643 10.3305 6.25924 10.7143 5.78585 10.7143V10.2857C6.02255 10.2857 6.21442 10.0938 6.21442 9.85714Z" fill="#00677F"/>
<path d="M4.92871 12.2151C5.0944 12.2151 5.143 12.3111 5.143 12.4294C5.143 12.5478 5.0944 12.6437 4.92871 12.6437H3.72871C3.56303 12.6437 3.42871 12.5478 3.42871 12.4294C3.42871 12.3111 3.56303 12.2151 3.72871 12.2151H4.92871Z" fill="#00677F"/>
<path d="M6.21442 12.4294C6.21442 12.1927 6.02255 12.0008 5.78585 12.0008C5.54916 12.0008 5.35728 12.1927 5.35728 12.4294C5.35728 12.6661 5.54916 12.858 5.78585 12.858V13.2866C5.31247 13.2866 4.92871 12.9028 4.92871 12.4294C4.92871 11.956 5.31247 11.5723 5.78585 11.5723C6.25924 11.5723 6.643 11.956 6.643 12.4294C6.643 12.9028 6.25924 13.2866 5.78585 13.2866V12.858C6.02255 12.858 6.21442 12.6661 6.21442 12.4294Z" fill="#00677F"/>
<path d="M4.92871 14.7854C5.0944 14.7854 5.143 14.8814 5.143 14.9997C5.143 15.1181 5.0944 15.214 4.92871 15.214H3.72871C3.56303 15.214 3.42871 15.1181 3.42871 14.9997C3.42871 14.8814 3.56303 14.7854 3.72871 14.7854H4.92871Z" fill="#00677F"/>
<path d="M6.21442 14.9997C6.21442 14.763 6.02255 14.5711 5.78585 14.5711C5.54916 14.5711 5.35728 14.763 5.35728 14.9997C5.35728 15.2364 5.54916 15.4283 5.78585 15.4283V15.8569C5.31247 15.8569 4.92871 15.4731 4.92871 14.9997C4.92871 14.5263 5.31247 14.1426 5.78585 14.1426C6.25924 14.1426 6.643 14.5263 6.643 14.9997C6.643 15.4731 6.25924 15.8569 5.78585 15.8569V15.4283C6.02255 15.4283 6.21442 15.2364 6.21442 14.9997Z" fill="#00677F"/>
<path d="M4.92871 17.3577C5.0944 17.3577 5.143 17.4536 5.143 17.572C5.143 17.6903 5.0944 17.7863 4.92871 17.7863H3.72871C3.56303 17.7863 3.42871 17.6903 3.42871 17.572C3.42871 17.4536 3.56303 17.3577 3.72871 17.3577H4.92871Z" fill="#00677F"/>
<path d="M6.21442 17.572C6.21442 17.3353 6.02255 17.1434 5.78585 17.1434C5.54916 17.1434 5.35728 17.3353 5.35728 17.572C5.35728 17.8087 5.54916 18.0006 5.78585 18.0006V18.4291C5.31247 18.4291 4.92871 18.0454 4.92871 17.572C4.92871 17.0986 5.31247 16.7148 5.78585 16.7148C6.25924 16.7148 6.643 17.0986 6.643 17.572C6.643 18.0454 6.25924 18.4291 5.78585 18.4291V18.0006C6.02255 18.0006 6.21442 17.8087 6.21442 17.572Z" fill="#00677F"/>
<path d="M14.938 9.9041C14.3176 9.47194 13.6247 9.25586 12.9315 9.25586C12.2018 9.25586 11.5086 9.47194 10.925 9.86802C10.3414 10.3002 9.90354 10.8406 9.64818 11.5249C10.305 10.7684 11.509 10.3005 12.9319 10.3005C14.3183 10.3005 15.5587 10.8048 16.2156 11.5249C15.9595 10.8766 15.5216 10.3002 14.938 9.9041ZM14.938 14.7361C15.5216 14.34 15.9595 13.7635 16.2148 13.1153C15.558 13.8357 14.3176 14.34 12.9312 14.34C11.5447 14.34 10.3043 13.8357 9.64746 13.1153C9.90283 13.7635 10.3407 14.34 10.9243 14.7361C11.5079 15.1321 12.2011 15.3482 12.9308 15.3482C13.6605 15.3482 14.3541 15.1325 14.938 14.7361Z" fill="#FF9100"/>
<path d="M9.79372 10.0853C9.99532 10.0853 10.1587 9.92408 10.1587 9.72525C10.1587 9.52642 9.99532 9.36523 9.79372 9.36523C9.59213 9.36523 9.42871 9.52642 9.42871 9.72525C9.42871 9.92408 9.59213 10.0853 9.79372 10.0853Z" fill="#FF9100"/>
<path d="M10.3404 17.1441C10.7031 17.1441 10.9972 16.8539 10.9972 16.4959C10.9972 16.1379 10.7031 15.8477 10.3404 15.8477C9.97766 15.8477 9.68359 16.1379 9.68359 16.4959C9.68359 16.8539 9.97766 17.1441 10.3404 17.1441Z" fill="#00677F"/>
<path d="M15.9956 9.07462C15.9956 8.79639 15.767 8.57031 15.4849 8.57031C15.2027 8.57031 14.9741 8.79603 14.9741 9.07462C14.9741 9.3532 15.2031 9.57892 15.4849 9.57892C15.767 9.57892 15.9956 9.35284 15.9956 9.07462Z" fill="#00677F"/>
</svg>
