<svg width="56" height="56" viewBox="0 0 56 56" fill="none" xmlns="http://www.w3.org/2000/svg">
<path d="M46.1191 18.6309L33.8691 6.38094C33.7877 6.29971 33.6912 6.2353 33.585 6.19138C33.4788 6.14747 33.3649 6.12491 33.25 6.125H12.25C11.5538 6.125 10.8861 6.40156 10.3938 6.89385C9.90156 7.38613 9.625 8.05381 9.625 8.75V47.25C9.625 47.9462 9.90156 48.6139 10.3938 49.1062C10.8861 49.5984 11.5538 49.875 12.25 49.875H43.75C44.4462 49.875 45.1139 49.5984 45.6062 49.1062C46.0984 48.6139 46.375 47.9462 46.375 47.25V19.25C46.3751 19.1351 46.3525 19.0212 46.3086 18.915C46.2647 18.8088 46.2003 18.7123 46.1191 18.6309ZM34.125 9.11094L43.3869 18.375H34.125V9.11094ZM43.75 48.125H12.25C12.0179 48.125 11.7954 48.0328 11.6313 47.8687C11.4672 47.7046 11.375 47.4821 11.375 47.25V8.75C11.375 8.51794 11.4672 8.29538 11.6313 8.13128C11.7954 7.96719 12.0179 7.875 12.25 7.875H32.375V19.25C32.375 19.4821 32.4672 19.7046 32.6313 19.8687C32.7954 20.0328 33.0179 20.125 33.25 20.125H44.625V47.25C44.625 47.4821 44.5328 47.7046 44.3687 47.8687C44.2046 48.0328 43.9821 48.125 43.75 48.125Z" fill="#54697A"/>
<path d="M33.4251 24.731C31.6881 23.521 29.7481 22.916 27.8071 22.916C25.7641 22.916 23.8231 23.521 22.1891 24.63C20.5551 25.84 19.3291 27.353 18.6141 29.269C20.4531 27.151 23.8241 25.841 27.8081 25.841C31.6901 25.841 35.1631 27.253 37.0021 29.269C36.2851 27.454 35.0591 25.84 33.4251 24.731ZM33.4251 38.26C35.0591 37.151 36.2851 35.537 37.0001 33.722C35.1611 35.739 31.6881 37.151 27.8061 37.151C23.9241 37.151 20.4511 35.739 18.6121 33.722C19.3271 35.537 20.5531 37.151 22.1871 38.26C23.8211 39.369 25.7621 39.974 27.8051 39.974C29.8481 39.974 31.7901 39.37 33.4251 38.26Z" fill="#FF9100"/>
<path d="M19.022 25.2348C19.5864 25.2348 20.044 24.7835 20.044 24.2267C20.044 23.67 19.5864 23.2188 19.022 23.2188C18.4576 23.2188 18 23.67 18 24.2267C18 24.7835 18.4576 25.2348 19.022 25.2348Z" fill="#FF9100"/>
<path d="M20.5541 44.9991C21.5697 44.9991 22.3931 44.1865 22.3931 43.1841C22.3931 42.1817 21.5697 41.3691 20.5541 41.3691C19.5384 41.3691 18.7151 42.1817 18.7151 43.1841C18.7151 44.1865 19.5384 44.9991 20.5541 44.9991Z" fill="#54697A"/>
<path d="M36.3871 22.412C36.3871 21.633 35.7471 21 34.9571 21C34.1671 21 33.5271 21.632 33.5271 22.412C33.5271 23.192 34.1681 23.824 34.9571 23.824C35.7471 23.824 36.3871 23.191 36.3871 22.412Z" fill="#54697A"/>
</svg>
