<svg width="56" height="56" viewBox="0 0 56 56" fill="none" xmlns="http://www.w3.org/2000/svg">
<path d="M46.1191 18.6309L33.8691 6.38094C33.7877 6.29971 33.6912 6.2353 33.585 6.19138C33.4788 6.14747 33.3649 6.12491 33.25 6.125H12.25C11.5538 6.125 10.8861 6.40156 10.3938 6.89385C9.90156 7.38613 9.625 8.05381 9.625 8.75V47.25C9.625 47.9462 9.90156 48.6139 10.3938 49.1062C10.8861 49.5984 11.5538 49.875 12.25 49.875H43.75C44.4462 49.875 45.1139 49.5984 45.6062 49.1062C46.0984 48.6139 46.375 47.9462 46.375 47.25V19.25C46.3751 19.1351 46.3525 19.0212 46.3086 18.915C46.2647 18.8088 46.2003 18.7123 46.1191 18.6309ZM34.125 9.11094L43.3869 18.375H34.125V9.11094ZM43.75 48.125H12.25C12.0179 48.125 11.7954 48.0328 11.6313 47.8687C11.4672 47.7046 11.375 47.4821 11.375 47.25V8.75C11.375 8.51794 11.4672 8.29538 11.6313 8.13128C11.7954 7.96719 12.0179 7.875 12.25 7.875H32.375V19.25C32.375 19.4821 32.4672 19.7046 32.6313 19.8687C32.7954 20.0328 33.0179 20.125 33.25 20.125H44.625V47.25C44.625 47.4821 44.5328 47.7046 44.3687 47.8687C44.2046 48.0328 43.9821 48.125 43.75 48.125Z" fill="#54697A"/>
<path fill-rule="evenodd" clip-rule="evenodd" d="M4.4308 17H28.5692C28.9625 17 29.3204 17.1821 29.5801 17.4754C29.8392 17.768 30 18.1703 30 18.6116V26.3883C30 26.8297 29.8392 27.232 29.5801 27.5246C29.3204 27.8179 28.9625 28 28.5692 28H4.4308C4.03753 28 3.6796 27.8179 3.41985 27.5246C3.16082 27.2321 3 26.8298 3 26.3883V18.6116C3 18.1703 3.16082 17.768 3.41985 17.4754C3.67957 17.1821 4.03749 17 4.4308 17Z" fill="#00CFFF"/>
<path d="M6 26V20H7.21257V22.3609H9.58603V20H10.7972V26H9.58603V23.3765H7.21257V26H6ZM13.3998 26V21.0156H11.62V20H16.3879V21.0156H14.6123V26H13.3998ZM17.1534 26V20H18.9667L20.0549 24.0931L21.1306 20H22.9481V26H21.8235V21.2768L20.6319 26H19.4654L18.278 21.2768V26H17.1534ZM24.1844 26V20.0489H25.3956V24.9886H28.4074V26H24.1844Z" fill="white"/>
<path d="M20.5 33C17.4675 33 15 35.4675 15 38.5C15 41.5325 17.4675 44 20.5 44C23.5325 44 26 41.5325 26 38.5C26 35.4675 23.5325 33 20.5 33ZM22.4368 41.3466C22.0532 42.3362 21.486 43.006 20.8711 43.1992V41.2544C21.3901 41.2639 21.9149 41.2947 22.4368 41.3466ZM23.1995 35.567C23.0106 35.0349 22.7713 34.5671 22.4917 34.1821C23.1146 34.4713 23.6738 34.8951 24.1218 35.4192C23.8012 35.477 23.4967 35.526 23.1995 35.567ZM22.9206 38.1289H20.8711V36.4893C21.4633 36.4783 22.0671 36.4402 22.6681 36.3766C22.8116 36.9263 22.8957 37.5148 22.9206 38.1289ZM20.8711 35.7522V33.8015C21.4867 33.9947 22.0554 34.6652 22.4382 35.657C21.909 35.7112 21.393 35.7419 20.8711 35.7522ZM25.2417 38.8711C25.1853 39.5914 24.9643 40.2919 24.5968 40.914C24.192 40.8357 23.7953 40.7691 23.4132 40.7149C23.556 40.1352 23.6394 39.516 23.6628 38.8711H25.2417ZM22.4917 42.8186C22.7713 42.4336 23.0106 41.9673 23.1988 41.4359C23.4959 41.4762 23.8048 41.5252 24.121 41.5816C23.6738 42.1057 23.1139 42.5295 22.4917 42.8186ZM20.8711 40.5107V38.8711H22.9206C22.8965 39.486 22.8116 40.0737 22.6688 40.6242C22.0664 40.5598 21.4633 40.5217 20.8711 40.5107ZM25.2417 38.1289H23.6628C23.6394 37.4833 23.556 36.8648 23.4132 36.2851C23.7946 36.2309 24.1913 36.1643 24.5968 36.0867C24.9643 36.7081 25.1853 37.4086 25.2417 38.1289ZM18.561 35.6585C18.9446 34.666 19.5126 33.9947 20.1289 33.8022V35.7537C19.6041 35.7427 19.088 35.7112 18.561 35.6585ZM18.0794 38.8711H20.1289V40.5107C19.5367 40.5217 18.9336 40.5598 18.3319 40.6242C18.1884 40.0737 18.1035 39.486 18.0794 38.8711ZM17.8005 41.4352C17.9894 41.9666 18.2287 42.4336 18.5076 42.8179C17.8854 42.5287 17.3255 42.1049 16.8775 41.5808C17.1944 41.5252 17.5033 41.4762 17.8005 41.4352ZM20.1289 41.2537V43.1985C19.514 43.006 18.946 42.3362 18.5632 41.3459C19.0851 41.2946 19.6099 41.2639 20.1289 41.2537ZM15.7576 38.1289C15.8139 37.4086 16.035 36.7074 16.4024 36.086C16.8087 36.1643 17.2054 36.2309 17.5853 36.2851C17.4426 36.8655 17.3591 37.484 17.3357 38.1296H15.7576V38.1289ZM18.5083 34.1821C18.2287 34.5671 17.9894 35.0349 17.8005 35.5663C17.5004 35.5246 17.1922 35.4755 16.8782 35.4192C17.3255 34.8951 17.8854 34.4713 18.5083 34.1821ZM20.1289 36.4893V38.1289H18.0794C18.1035 37.5148 18.1884 36.9263 18.3312 36.3766C18.9321 36.4402 19.5353 36.4783 20.1289 36.4893ZM17.586 40.7157C17.2047 40.7698 16.808 40.8364 16.4024 40.9148C16.035 40.2926 15.8139 39.5921 15.7576 38.8718H17.3364C17.3599 39.5167 17.4433 40.1352 17.586 40.7157Z" fill="#00CFFF"/>
</svg>
