<svg width="24" height="24" viewBox="0 0 24 24" fill="none" xmlns="http://www.w3.org/2000/svg">
<path d="M4 5.28571C4 4.57563 4.57563 4 5.28571 4H18.1429C18.8529 4 19.4286 4.57563 19.4286 5.28571V18.1429C19.4286 18.8529 18.8529 19.4286 18.1429 19.4286H5.28571C4.57563 19.4286 4 18.8529 4 18.1429V5.28571Z" fill="white"/>
<path d="M19.4286 6.57143H4.42857M5.28571 19.4286H18.1429C18.8529 19.4286 19.4286 18.8529 19.4286 18.1429V5.28571C19.4286 4.57563 18.8529 4 18.1429 4H5.28571C4.57563 4 4 4.57563 4 5.28571V18.1429C4 18.8529 4.57563 19.4286 5.28571 19.4286Z" stroke="#3595E3"/>
<path d="M12.4257 9.85742L10.9345 15.6003L11.7295 15.8202L13.2207 10.0773L12.4257 9.85742ZM9.65147 10.8397L10.2335 11.4403L8.87834 12.8387L10.2335 14.2371L9.65147 14.8377L7.71436 12.8387L9.65147 10.8397ZM14.3487 14.8377L13.7666 14.2372L15.1218 12.8387L13.7666 11.4403L14.3487 10.8397L16.2858 12.8387L14.3487 14.8377Z" fill="#3595E3"/>
</svg>
