<svg width="24" height="24" viewBox="0 0 24 24" fill="none" xmlns="http://www.w3.org/2000/svg">
<path d="M13.8684 1.48982H3.48982V22.0623H20.1438V7.07741L13.8684 1.48982Z" fill="white"/>
<path d="M14.572 1C14.6283 0.999956 14.6841 1.01102 14.7361 1.03253C14.7881 1.05404 14.8355 1.08554 14.8753 1.12533L20.8756 7.12564C20.9154 7.16547 20.9469 7.21281 20.9684 7.26484C20.9899 7.31686 21.001 7.37261 21.0009 7.42891V21.1439C21.0009 21.4849 20.8656 21.8121 20.6245 22.0532C20.3834 22.2944 20.0562 22.4297 19.7152 22.4297H4.28578C3.94477 22.4297 3.61759 22.2944 3.37645 22.0532C3.13532 21.8121 3 21.4849 3 21.1439V2.28578C3 1.94477 3.13532 1.61759 3.37645 1.37645C3.61759 1.13532 3.94477 1 4.28578 1H14.572ZM4.28578 1.85719C4.17211 1.85719 4.06289 1.90214 3.98251 1.98251C3.90214 2.06289 3.85719 2.17211 3.85719 2.28578V21.1439C3.85719 21.2576 3.90214 21.3668 3.98251 21.4472C4.06289 21.5276 4.17211 21.5725 4.28578 21.5725H19.7152C19.8288 21.5725 19.938 21.5276 20.0184 21.4472C20.0988 21.3668 20.1438 21.2576 20.1438 21.1439V7.8575H14.572C14.4584 7.8575 14.3491 7.81255 14.2688 7.73217C14.1884 7.6518 14.1434 7.54258 14.1434 7.42891V1.85719H4.28578Z" fill="#F36FA0"/>
<path d="M10.2589 11.4198V10.1107C10.2589 9.94838 10.1273 9.81679 9.96501 9.81679H5.74304C5.5807 9.81679 5.44911 9.94838 5.44911 10.1107V18.3396C5.44911 18.502 5.5807 18.6336 5.74304 18.6336H18.3821C18.5444 18.6336 18.676 18.502 18.676 18.3396V11.7144C18.676 11.5521 18.5444 11.4205 18.3821 11.4205H10.2596L10.2589 11.4198ZM6.25131 10.6183H9.16349C9.32582 10.6183 9.45742 10.7499 9.45742 10.9122V11.1259C9.45742 11.2882 9.32582 11.4198 9.16349 11.4198H6.54456C6.38223 11.4198 6.25063 11.2882 6.25063 11.1259V10.619L6.25131 10.6183ZM6.25131 12.222H9.16349C9.32582 12.222 9.45742 12.3536 9.45742 12.516V12.7296C9.45742 12.892 9.32582 13.0236 9.16349 13.0236H6.54456C6.38223 13.0236 6.25063 12.892 6.25063 12.7296V12.2227L6.25131 12.222ZM6.25131 13.8251H9.16349C9.32582 13.8251 9.45742 13.9567 9.45742 14.119V14.3327C9.45742 14.495 9.32582 14.6266 9.16349 14.6266H6.54456C6.38223 14.6266 6.25063 14.495 6.25063 14.3327V13.8258L6.25131 13.8251ZM6.25131 15.4281H9.16349C9.32582 15.4281 9.45742 15.5597 9.45742 15.7221V15.9357C9.45742 16.0981 9.32582 16.2297 9.16349 16.2297H6.54456C6.38223 16.2297 6.25063 16.0981 6.25063 15.9357V15.4288L6.25131 15.4281ZM9.45742 17.5395C9.45742 17.7018 9.32582 17.8334 9.16349 17.8334H6.54456C6.38223 17.8334 6.25063 17.7018 6.25063 17.5395V17.3251C6.25063 17.1628 6.38223 17.0312 6.54456 17.0312H9.16349C9.32582 17.0312 9.45742 17.1628 9.45742 17.3251V17.5395ZM17.8745 17.5395C17.8745 17.7018 17.7429 17.8334 17.5805 17.8334H10.5529C10.3905 17.8334 10.2589 17.7018 10.2589 17.5395V17.3251C10.2589 17.1628 10.3905 17.0312 10.5529 17.0312H17.5805C17.7429 17.0312 17.8745 17.1628 17.8745 17.3251V17.5395ZM17.8745 15.9357C17.8745 16.0981 17.7429 16.2297 17.5805 16.2297H10.5529C10.3905 16.2297 10.2589 16.0981 10.2589 15.9357V15.7221C10.2589 15.5597 10.3905 15.4281 10.5529 15.4281H17.5805C17.7429 15.4281 17.8745 15.5597 17.8745 15.7221V15.9357ZM17.8745 14.3327C17.8745 14.495 17.7429 14.6266 17.5805 14.6266H10.5529C10.3905 14.6266 10.2589 14.495 10.2589 14.3327V14.119C10.2589 13.9567 10.3905 13.8251 10.5529 13.8251H17.5805C17.7429 13.8251 17.8745 13.9567 17.8745 14.119V14.3327ZM10.5529 13.0236C10.3905 13.0236 10.2589 12.892 10.2589 12.7296V12.516C10.2589 12.3536 10.3905 12.222 10.5529 12.222H17.5805C17.7429 12.222 17.8745 12.3536 17.8745 12.516V12.7296C17.8745 12.892 17.7429 13.0236 17.5805 13.0236H10.5529Z" fill="#F36FA0"/>
</svg>
