<svg width="56" height="56" viewBox="0 0 56 56" fill="none" xmlns="http://www.w3.org/2000/svg">
<path d="M46.1191 18.6309L33.8691 6.38094C33.7877 6.29971 33.6912 6.2353 33.585 6.19138C33.4788 6.14747 33.3649 6.12491 33.25 6.125H12.25C11.5538 6.125 10.8861 6.40156 10.3938 6.89385C9.90156 7.38613 9.625 8.05381 9.625 8.75V47.25C9.625 47.9462 9.90156 48.6139 10.3938 49.1062C10.8861 49.5984 11.5538 49.875 12.25 49.875H43.75C44.4462 49.875 45.1139 49.5984 45.6062 49.1062C46.0984 48.6139 46.375 47.9462 46.375 47.25V19.25C46.3751 19.1351 46.3525 19.0212 46.3086 18.915C46.2647 18.8088 46.2003 18.7123 46.1191 18.6309ZM34.125 9.11094L43.3869 18.375H34.125V9.11094ZM43.75 48.125H12.25C12.0179 48.125 11.7954 48.0328 11.6313 47.8687C11.4672 47.7046 11.375 47.4821 11.375 47.25V8.75C11.375 8.51794 11.4672 8.29538 11.6313 8.13128C11.7954 7.96719 12.0179 7.875 12.25 7.875H32.375V19.25C32.375 19.4821 32.4672 19.7046 32.6313 19.8687C32.7954 20.0328 33.0179 20.125 33.25 20.125H44.625V47.25C44.625 47.4821 44.5328 47.7046 44.3687 47.8687C44.2046 48.0328 43.9821 48.125 43.75 48.125Z" fill="#54697A"/>
<path d="M27.25 39.8984C27.6642 39.8984 28 40.2342 28 40.6484C28 41.0627 27.6642 41.3984 27.25 41.3984H15.75C15.3358 41.3984 15 41.0627 15 40.6484C15 40.2342 15.3358 39.8984 15.75 39.8984H27.25Z" fill="#BFC8CC"/>
<path d="M27.25 43.0977C27.6642 43.0977 28 43.4334 28 43.8477C28 44.2619 27.6642 44.5977 27.25 44.5977H15.75C15.3358 44.5977 15 44.2619 15 43.8477C15 43.4334 15.3358 43.0977 15.75 43.0977H27.25Z" fill="#BFC8CC"/>
<path fill-rule="evenodd" clip-rule="evenodd" d="M4.4308 17H28.5692C28.9625 17 29.3204 17.1821 29.5801 17.4754C29.8392 17.768 30 18.1703 30 18.6116V26.3883C30 26.8297 29.8392 27.232 29.5801 27.5246C29.3204 27.8179 28.9625 28 28.5692 28H4.4308C4.03753 28 3.6796 27.8179 3.41985 27.5246C3.16082 27.2321 3 26.8298 3 26.3883V18.6116C3 18.1703 3.16082 17.768 3.41985 17.4754C3.67957 17.1821 4.03749 17 4.4308 17Z" fill="#0263D1"/>
<path d="M5.3269 19.6118H7.45803C7.93804 19.6118 8.30375 19.6481 8.55651 19.7221C8.89534 19.8216 9.18576 19.9991 9.42646 20.2545C9.66848 20.5086 9.85267 20.8206 9.97907 21.189C10.1041 21.5587 10.1673 22.0132 10.1673 22.5551C10.1673 23.0297 10.1081 23.4398 9.98982 23.784C9.84594 24.2035 9.64023 24.5436 9.37133 24.8031C9.16964 25.0008 8.89669 25.1541 8.55249 25.2643C8.29569 25.3463 7.95148 25.3867 7.51988 25.3867H5.3269V19.6118ZM6.49263 20.5893V24.4132H7.36256C7.68795 24.4132 7.92324 24.3957 8.06845 24.3581C8.2567 24.311 8.41401 24.2317 8.53904 24.1188C8.66408 24.0058 8.76494 23.8189 8.84426 23.5608C8.92223 23.3026 8.96257 22.949 8.96257 22.5026C8.96257 22.0562 8.92223 21.7147 8.84426 21.4754C8.76494 21.236 8.65467 21.0491 8.5135 20.916C8.37098 20.7816 8.1908 20.6915 7.97299 20.6444C7.8103 20.6068 7.49162 20.5893 7.01567 20.5893L6.49263 20.5893ZM10.9202 22.5349C10.9202 21.946 11.0076 21.4525 11.1838 21.0532C11.3155 20.7601 11.4944 20.4952 11.7216 20.2612C11.9488 20.0286 12.1976 19.8552 12.4678 19.7423C12.8282 19.589 13.2423 19.5137 13.7129 19.5137C14.564 19.5137 15.2443 19.7772 15.7553 20.3056C16.2662 20.8327 16.5217 21.5668 16.5217 22.5066C16.5217 23.4398 16.2675 24.1685 15.7606 24.6956C15.2537 25.2213 14.5761 25.4848 13.729 25.4848C12.8698 25.4848 12.1868 25.2226 11.6799 24.6996C11.173 24.1752 10.9203 23.4532 10.9203 22.5349L10.9202 22.5349ZM12.1209 22.4959C12.1209 23.1494 12.2729 23.6455 12.574 23.983C12.8766 24.3204 13.2598 24.4885 13.725 24.4885C14.1889 24.4885 14.5707 24.3218 14.8692 23.9857C15.1663 23.6509 15.3156 23.1494 15.3156 22.4798C15.3156 21.8182 15.1704 21.3248 14.8813 20.9981C14.5909 20.6727 14.205 20.51 13.725 20.51C13.2436 20.51 12.8564 20.6754 12.5619 21.0048C12.2688 21.3342 12.1209 21.8303 12.1209 22.4959ZM21.1268 23.2636L22.2562 23.6213C22.0827 24.2519 21.795 24.7198 21.3916 25.0263C20.9896 25.3315 20.4773 25.4848 19.8575 25.4848C19.0911 25.4848 18.4605 25.2227 17.9671 24.6996C17.4736 24.1752 17.2262 23.4586 17.2262 22.551C17.2262 21.5897 17.4749 20.8434 17.9711 20.311C18.4672 19.7799 19.1193 19.5137 19.9287 19.5137C20.6346 19.5137 21.2088 19.7221 21.6498 20.1402C21.9133 20.3863 22.1096 20.7412 22.2414 21.2038L21.0864 21.4794C21.0192 21.1796 20.8767 20.9429 20.6588 20.7695C20.4424 20.596 20.1788 20.51 19.8696 20.51C19.442 20.51 19.0938 20.6633 18.8276 20.9712C18.5613 21.2777 18.4282 21.7752 18.4282 22.4636C18.4282 23.1937 18.5586 23.7141 18.8222 24.0233C19.0844 24.3339 19.4259 24.4885 19.8454 24.4885C20.156 24.4885 20.4222 24.3904 20.6454 24.1927C20.8686 23.9964 21.0286 23.6858 21.1268 23.2636ZM22.6703 25.3867L24.6441 22.3735L22.8559 19.6118H24.2179L25.3769 21.4673L26.5104 19.6118H27.8616L26.0653 22.4166L28.0391 25.3867H26.6327L25.3527 23.39L24.0687 25.3867H22.6703Z" fill="white"/>
</svg>
